<svg id="Isolation_Mode" data-name="Isolation Mode" xmlns="http://www.w3.org/2000/svg" viewBox="0 0 310.72 408.58"><defs><style>.cls-1{fill:#d2d2d2;}</style></defs><title>Member-Search-Icon-Grey</title><path class="cls-1" d="M310.55,348.34C309,252.22,296.47,224.83,200.41,207.49c0,0-13.53,17.23-45,17.23s-45-17.23-45-17.23C15.3,224.64,2,251.62.23,345.22c-.14,7.64-.21,8-.23,7.15,0,1.66,0,4.74,0,10.1,0,0,22.87,46.11,155.35,46.11s155.35-46.11,155.35-46.11c0-3.44,0-5.84,0-7.47C310.7,355.55,310.65,354.49,310.55,348.34Z"/><ellipse class="cls-1" cx="155.37" cy="99.91" rx="82.26" ry="99.91"/></svg>