<?xml version="1.0" encoding="utf-8"?>
<!-- Generator: Adobe Illustrator 21.1.0, SVG Export Plug-In . SVG Version: 6.00 Build 0)  -->
<svg version="1.1" xmlns="http://www.w3.org/2000/svg" xmlns:xlink="http://www.w3.org/1999/xlink" x="0px" y="0px"
	 viewBox="0 0 1020.6 1020.6" style="enable-background:new 0 0 1020.6 1020.6;" xml:space="preserve">
<style type="text/css">
	.st0{fill:#F58220;}
	.st1{fill:#FFFFFF;}
</style>
<g id="Layer_1">
	<g id="Layer_1_1_">
		<g>
			<circle class="st0" cx="510.3" cy="510.3" r="510.3"/>
		</g>
	</g>
</g>
<g id="Layer_2">
	<path class="st1" d="M375.8,493.6c2.2,10.3,4.8,20,7.7,29.1c2.6,9.3,6,19.3,10.5,29.4c22.9,51.9,62.6,80.6,114.9,83.2l0,0.1
		l1.4-0.1l1.4,0.1l0-0.1c52.3-2.6,92-31.3,114.9-83.2c4.5-10.1,7.9-20.1,10.5-29.4c2.9-9.1,5.5-18.8,7.7-29.1
		c3.1,4.5,10.6,5.5,14.2-0.2c21.9-34,20.4-65.8,14.7-87.4c-0.8-3-2.8-5-5.2-5.8c-3.5,1.4-7.1,2.3-10.3,2.3c-1.9,0-3.7-0.3-5.3-1
		c-2.7-1.2-6.1-4.1-6.6-10.9c-0.3-4.2-0.4-11.1-0.5-19.8c-0.2-17.3-0.5-41.1-2.8-61.5c-3.4-29.9-9.5-37-12.9-38.6
		c-14.4-6.8-48.4-11.2-83.7-13.2c-20.9,83.8-91.6,145.4-175.6,145.4c-7.1,0-14.2-0.5-21.1-1.3c-1.4,1-2.4,2.5-3,4.6
		c-5.7,21.6-7.2,53.4,14.7,87.4C365.2,499.1,372.7,498.1,375.8,493.6z"/>
	<path class="st1" d="M769.1,649.8c10.2-26.4,9.1-55.9-3.5-88v0c-8.5-21.7-15.7-38.2-22.1-52.7c-18.9-43.3-29.3-67.1-43.5-158
		c-8.2-57.9-31.2-110.9-64.9-149.1c-34.7-39.4-79.1-61.1-124.8-61.1c-31,0-61.7,10-89,28.9c-26,18.1-49,44.3-66.4,76l-0.1,0.2
		c-12.6,24.3-23.1,52.8-30,71.7c-2.7,7.5-5.8,15.9-7.1,18.3c-46.3,49.7-75.5,102.6-86.7,157.1c-10.9,52.8-4.3,105.5,19.4,157.1
		c-18.8,7.6-36,16.5-47,26.3c-6.5,5.8-7.9,15.6-3.3,23.1c63.8,104.4,178.8,174,310.1,174c131.3,0,246.3-69.6,310.1-174
		c4.6-7.5,3.2-17.3-3.3-23.2C805.8,666.5,788.3,657.5,769.1,649.8z M751.6,643.2c-26.1-9.1-52.6-16-69.1-19.9
		c-0.1,0-0.1-0.1-0.2-0.1c-5.2-2.3-10.8-3.5-16.3-3.6l0,0v0l-0.1,0c-4.6-0.1-8.8,2.7-10.6,6.9c-2.7,6.3-6.6,12.1-11.7,17.2l-94,94
		c-21.6,21.6-57,21.6-78.6,0l-94-94c-5.1-5.1-9-11-11.7-17.2c-1.8-4.3-6-7-10.6-6.9l-0.1,0l0,0l0,0c-5.5,0.1-11.1,1.3-16.3,3.6
		c-0.1,0-0.1,0.1-0.2,0.1c-16.7,3.9-43.7,10.9-70.1,20.2c-22.5-48.4-28.8-97.6-18.6-146.7c10.4-50.6,39-102,82.6-148.6
		c2.6-2.8,4.3-7.3,10.5-24.1c6.7-18.4,16.9-46.2,29-69.3c16.1-29.1,37-53.1,60.7-69.5c24.4-17,50.8-25.6,78.3-25.6
		c83.3,0,155.3,81.6,171.1,194.1l0,0.1c14.6,93.4,26,119.5,44.9,162.7c6.3,14.4,13.4,30.6,21.8,52
		C759.1,596.5,760.2,621.1,751.6,643.2z"/>
</g>
</svg>
