<svg id="Isolation_Mode" data-name="Isolation Mode" xmlns="http://www.w3.org/2000/svg" viewBox="0 0 394.81 379.77"><defs><style>.cls-1{fill:#ddd;}</style></defs><title>Studio-Grey</title><g id="Layer_1" data-name="Layer 1"><path class="cls-1" d="M394.19,248.31,378.71,205a9.49,9.49,0,0,0-7.3-6.37,9.33,9.33,0,0,0-5.67.79l-39.17,19a10.37,10.37,0,0,0-5.1,5.53,11.21,11.21,0,0,0-.41,7.18,9.59,9.59,0,0,0,7.5,7.05,9.33,9.33,0,0,0,5.69-.81l18.42-8.91c-20.19,85.61-104.28,141.73-192,126.2C69.88,338.54,9.07,251.56,25.15,160.74A167.48,167.48,0,0,1,219,25.19,168,168,0,0,1,346.69,131.63a11.37,11.37,0,0,0,8.64,7.15,11.14,11.14,0,0,0,5.86-.54,11.4,11.4,0,0,0,6.68-14.57A190.85,190.85,0,0,0,223,2.93C119.92-15.33,21.21,53.71,2.95,156.81a190,190,0,0,0,153.83,220,191.07,191.07,0,0,0,33.33,2.94A190.32,190.32,0,0,0,371.77,244.5l4.2,11.74a9.55,9.55,0,0,0,7.3,6.31,9.25,9.25,0,0,0,6.38-1.19A11.1,11.1,0,0,0,394.19,248.31Z" transform="translate(0 0)"/><path class="cls-1" d="M247.94,195.6A6.19,6.19,0,0,0,252,198l14.17,1.93a6.19,6.19,0,0,0,4.58-1.21l37-28.15a6.19,6.19,0,0,0,2.39-4.09l1.93-14.18a6.19,6.19,0,0,0-1.21-4.58L262.56,84.15a6.18,6.18,0,0,0-4.1-2.38l-14.18-1.93A6.2,6.2,0,0,0,239.71,81l-37,28.15a6.2,6.2,0,0,0-2.39,4.09l-1.93,14.18A6.19,6.19,0,0,0,199.6,132l10.33,13.58-67.46,51.31-10.33-13.58A6.2,6.2,0,0,0,128,181L113.87,179a6.19,6.19,0,0,0-4.58,1.21l-37,28.15a6.19,6.19,0,0,0-2.39,4.09L68,226.66a6.2,6.2,0,0,0,1.21,4.58l48.35,63.56a6.18,6.18,0,0,0,4.09,2.38l14.18,1.93a6.19,6.19,0,0,0,4.58-1.21l37-28.15a6.19,6.19,0,0,0,2.38-4.09l1.93-14.18a6.2,6.2,0,0,0-1.21-4.58l-10.33-13.58L237.62,182Z" transform="translate(0 0)"/></g></svg>