<?xml version="1.0" encoding="UTF-8"?>
<svg width="171px" height="119px" viewBox="0 0 171 119" version="1.1" xmlns="http://www.w3.org/2000/svg" xmlns:xlink="http://www.w3.org/1999/xlink">
    <!-- Generator: Sketch 47.1 (45422) - http://www.bohemiancoding.com/sketch -->
    <title>icon</title>
    <desc>Created with Sketch.</desc>
    <defs></defs>
    <g id="Page-1" stroke="none" stroke-width="1" fill="none" fill-rule="evenodd">
        <g id="Coach's-Hub-Screen" transform="translate(-873.000000, -490.000000)" fill="#F58220">
            <g id="input-results" transform="translate(749.000000, 367.000000)">
                <g id="icon" transform="translate(124.000000, 123.000000)">
                    <g id="Group-3">
                        <path d="M117.243432,105.539209 L160.150365,92.4229838 C160.150365,92.4229838 118.736946,92.6525895 119.42626,92.5951881 C118.544512,92.8707149 117.849454,93.5537919 117.556495,94.4320336 L117.243432,105.539209 Z M159.202558,8.9613161 L11.1177754,8.9613161 C9.89711499,8.9613161 8.90622591,9.95149063 8.90622591,11.1712708 L8.90622591,107.519558 C8.90622591,108.739338 9.89711499,109.729513 11.1177754,109.729513 L108.480526,109.729513 C109.658104,103.15705 108.480526,92.509086 109.718419,85.9079224 C109.896492,84.9033975 110.735157,84.1456988 111.75764,84.0710769 C127.005843,82.9804499 146.424397,84.0710769 161.41698,83.0378513 L161.41698,11.2860737 C161.477294,10.0662935 160.540976,9.02732773 159.320316,8.96418617 C159.282978,8.9613161 159.242768,8.9613161 159.202558,8.9613161 L159.202558,8.9613161 Z M168.396285,0.064095669 C169.616946,0.064095669 170.607835,1.0542702 170.607835,2.27405042 L170.607835,6.43565352 L170.607835,93.4562094 C170.607835,98.364031 169.200485,100.086074 163.829579,101.808116 L117.387039,116.50288 C113.785372,117.860424 109.999889,118.672654 106.156963,118.91374 L24.7317297,118.91374 L2.23998374,118.91374 C1.02219543,118.930961 0.0169456393,117.955136 -0.000287214225,116.732486 C-0.000287214225,116.695175 -0.000287214225,116.657864 0.00258492803,116.617683 L0.00258492803,2.27405042 C0.00258492803,1.0542702 0.990601863,0.064095669 2.21413446,0.064095669 L168.396285,0.064095669 Z" id="Fill-1"></path>
                    </g>
                    <path d="M92.6672374,67.2558156 C92.6643519,66.1008591 93.6598689,65.161095 94.8862306,65.158371 C94.9112387,65.158371 110.773144,65.159279 142.471947,65.161095 C143.698308,65.161095 144.69094,66.1008591 144.69094,67.2558156 L144.69094,69.5739004 C144.69094,70.7315809 143.698308,71.671345 142.471947,71.671345 L95.0045384,71.671345 C93.7781768,71.731272 92.7307197,70.843263 92.670123,69.6855825 C92.6672374,69.6474472 92.6672374,69.6120358 92.6672374,69.5739004 L92.6672374,67.2558156 Z" id="Fill-4"></path>
                    <path d="M141.375364,74.9321267 L94.3570663,74.9321267 C92.5249247,74.9321267 91.0414903,73.324296 91.0414903,71.3423354 L91.0414903,68.7141505 C91.0586398,66.7445579 92.5363577,65.158371 94.3570663,65.158371 L141.375364,65.158371 C143.207505,65.158371 144.69094,66.7662018 144.69094,68.7481623 L144.69094,71.3732552 C144.67379,73.3428479 143.196072,74.9321267 141.375364,74.9321267 L141.375364,74.9321267 Z" id="Fill-6"></path>
                    <path d="M144.69094,26.560319 L144.69094,28.8242963 C144.69094,29.9976992 143.695423,30.9502262 142.469061,30.9502262 L94.8862246,30.9502262 C93.6598628,30.9502262 92.6672312,29.9976992 92.6672312,28.8242963 L92.6672312,26.560319 C92.6672312,25.3869162 93.6598628,24.4343891 94.8862246,24.4343891 L142.469061,24.4343891 C143.695423,24.4343891 144.69094,25.3869162 144.69094,26.560319" id="Fill-8"></path>
                    <path d="M94.3500156,25.2098362 C93.7453541,25.2254492 93.2661883,25.76566 93.2661883,26.4276524 L93.2661883,28.988189 C93.2661883,29.6439362 93.7510584,30.1747792 94.3500156,30.1747792 L141.382415,30.1747792 C141.984224,30.1747792 142.480503,29.6470588 142.494764,28.988189 L142.494764,26.3964264 C142.494764,25.7250661 141.995633,25.1786102 141.382415,25.1786102 L94.3500156,25.2098362 Z M141.382415,32.5791855 L94.3500156,32.5791855 C92.5217701,32.5791855 91.0414903,30.9585532 91.0414903,28.956963 L91.0414903,26.3964264 C91.0586033,24.4073266 92.5331788,22.8054299 94.3500156,22.8054299 L141.382415,22.8054299 C143.21066,22.8054299 144.69094,24.4291848 144.69094,26.4276524 L144.69094,28.988189 C144.676679,30.9772888 143.199251,32.5791855 141.382415,32.5791855 L141.382415,32.5791855 Z" id="Fill-10"></path>
                    <path d="M92.6672312,49.8868778 L92.6672312,47.8506787 C92.6672312,46.614415 93.6593914,45.6108597 94.8844937,45.6108597 L142.476553,45.6108597 C143.69878,45.6108597 144.69094,46.614415 144.69094,47.8506787 L144.69094,49.8868778 C144.69094,51.1231416 143.69878,52.1266968 142.476553,52.1266968 L94.8844937,52.1266968 C93.6593914,52.1266968 92.6672312,51.1231416 92.6672312,49.8868778" id="Fill-12"></path>
                    <path d="M94.3394956,46.0855234 C93.7424429,46.0855234 93.2562715,46.5440053 93.2562715,47.1103653 L93.2562715,48.998232 C93.2562715,49.564592 93.7424429,50.0230739 94.3394956,50.0230739 L141.392934,50.0230739 C141.99283,50.0230739 142.487531,49.5699859 142.498904,48.998232 L142.498904,47.1103653 C142.487531,46.5386114 141.99283,46.0855234 141.392934,46.0855234 L94.3394956,46.0855234 Z M141.392934,52.1266968 L94.3394956,52.1266968 C92.5170634,52.1266968 91.0414903,50.7269785 91.0414903,48.998232 L91.0414903,47.1103653 C91.0414903,45.3816188 92.5170634,43.9819005 94.3394956,43.9819005 L141.392934,43.9819005 C143.212524,43.9819005 144.69094,45.3816188 144.69094,47.1103653 L144.69094,48.998232 C144.69094,50.7269785 143.212524,52.1266968 141.392934,52.1266968 L141.392934,52.1266968 Z" id="Fill-14"></path>
                    <path d="M27.6375953,69.5749636 L27.6375953,67.2548893 C27.6375953,66.0989417 28.6330572,65.158371 29.859351,65.158371 L77.4395483,65.158371 C78.665842,65.158371 79.661304,66.0989417 79.661304,67.2548893 L79.661304,69.5749636 C79.661304,70.7336375 78.665842,71.6742081 77.4395483,71.6742081 L29.859351,71.6742081 C28.6330572,71.6742081 27.6375953,70.7336375 27.6375953,69.5749636" id="Fill-16"></path>
                    <path d="M76.3457282,74.9321267 L29.2131042,74.9321267 C27.4266949,74.8642962 26.0090004,73.2795295 26.0118587,71.3525272 L26.0118587,68.7318041 C26.0118587,66.7554705 27.495293,65.158371 29.3274344,65.158371 L76.3457282,65.158371 C78.1750114,65.158371 79.661304,66.7554705 79.661304,68.7318041 L79.661304,71.3525272 C79.661304,73.3288608 78.1750114,74.9321267 76.3457282,74.9321267 L76.3457282,74.9321267 Z" id="Fill-18"></path>
                    <path d="M79.661304,26.560319 L79.661304,28.8242963 C79.661304,29.9976992 78.6647365,30.9502262 77.437081,30.9502262 L29.8618182,30.9502262 C28.6341627,30.9502262 27.6375953,29.9976992 27.6375953,28.8242963 L27.6375953,26.560319 C27.6375953,25.3869162 28.6341627,24.4343891 29.8618182,24.4343891 L77.437081,24.4343891 C78.6647365,24.4343891 79.661304,25.3869162 79.661304,26.560319" id="Fill-20"></path>
                    <path d="M29.2165189,25.2333055 C28.6127838,25.2488688 28.1292235,25.7873591 28.1292235,26.4472433 L28.1292235,28.9996253 C28.1292235,29.6532841 28.6156451,30.1824365 29.2165189,30.1824365 L76.3421916,30.1824365 C76.948788,30.1824365 77.4409323,29.6563968 77.4581001,28.9996253 L77.4581001,26.4161167 C77.4581001,25.7468945 76.9573719,25.2021789 76.3421916,25.2021789 L29.2165189,25.2333055 Z M76.3421916,32.5791855 L29.2165189,32.5791855 C27.428204,32.510707 26.0089974,30.9139119 26.0118587,28.9684987 L26.0118587,26.4161167 C26.0118587,24.4209009 27.4968753,22.8054299 29.330971,22.8054299 L76.3421916,22.8054299 C78.173426,22.8054299 79.661304,24.4209009 79.661304,26.4161167 L79.661304,28.9684987 C79.661304,30.9637144 78.173426,32.5791855 76.3421916,32.5791855 L76.3421916,32.5791855 Z" id="Fill-22"></path>
                    <path d="M27.6375953,49.8868778 L27.6375953,47.8506787 C27.6375953,46.614415 28.6297555,45.6108597 29.851982,45.6108597 L77.4469173,45.6108597 C78.6691437,45.6108597 79.661304,46.614415 79.661304,47.8506787 L79.661304,49.8868778 C79.661304,51.1231416 78.6691437,52.1266968 77.4469173,52.1266968 L29.851982,52.1266968 C28.6297555,52.1266968 27.6375953,51.1231416 27.6375953,49.8868778" id="Fill-24"></path>
                    <path d="M29.2029037,46.0585538 C28.6017336,46.0747355 28.1202277,46.5413083 28.1202277,47.1103653 L28.1202277,48.998232 C28.1202277,49.564592 28.6045828,50.0230739 29.2029037,50.0230739 L76.356293,50.0230739 C76.9574631,50.0230739 77.4532148,49.5699859 77.4674605,48.998232 L77.4674605,47.1103653 C77.4674605,46.5305205 76.9688597,46.0585538 76.356293,46.0585538 L29.2029037,46.0585538 Z M76.356293,52.1266968 L29.2029037,52.1266968 C27.4221866,52.0700608 26.0090095,50.6838273 26.0118587,48.998232 L26.0118587,47.1103653 C26.0118587,45.3843157 27.4905662,43.9819005 29.3168696,43.9819005 L76.356293,43.9819005 C78.1797473,43.9819005 79.661304,45.3843157 79.661304,47.1103653 L79.661304,48.998232 C79.661304,50.7269785 78.1797473,52.1266968 76.356293,52.1266968 L76.356293,52.1266968 Z" id="Fill-26"></path>
                    <path d="M26.0118544,90.754279 L26.0118544,88.5162306 C26.0118544,87.3122172 27.0045634,86.3348416 28.2274658,86.3348416 L75.8199516,86.3348416 C77.042854,86.3348416 78.0355631,87.3122172 78.0355631,88.5162306 L78.0355631,90.6692898 C78.0355631,91.8761361 77.042854,92.8506787 75.8199516,92.8506787 L28.2274658,92.8506787 C27.036215,92.8506787 26.057893,91.9242967 26.0118544,90.754279" id="Fill-28"></path>
                    <path d="M29.3417549,88.4580913 C28.7440804,88.4580913 28.2602487,88.9031622 28.2602487,89.4529556 L28.2602487,91.442684 C28.2602487,91.9977136 28.7412343,92.4480205 29.3417549,92.4611108 L76.387272,92.4611108 C76.9991768,92.4611108 77.4972389,92.0055677 77.4972389,91.442684 L77.4972389,89.3744137 C77.4830085,88.8193841 76.9877925,88.3795494 76.387272,88.3795494 L29.3417549,88.4580913 Z M76.387272,94.479638 L29.3132942,94.479638 C27.4889641,94.479638 26.0118544,93.1182449 26.0118544,91.442684 L26.0118544,89.3744137 C26.0118544,87.6962348 27.4889641,86.3348416 29.3132942,86.3348416 L76.387272,86.3348416 C78.2002178,86.35055 79.6602511,87.706707 79.6602511,89.3744137 L79.6602511,91.3615241 C79.7057882,93.0397029 78.2685235,94.4325129 76.4441934,94.4770199 C76.4242709,94.479638 76.4071945,94.479638 76.387272,94.479638 L76.387272,94.479638 Z" id="Fill-30"></path>
                </g>
            </g>
        </g>
    </g>
</svg>