<?xml version="1.0" encoding="utf-8"?>
<!-- Generator: Adobe Illustrator 23.0.1, SVG Export Plug-In . SVG Version: 6.00 Build 0)  -->
<svg version="1.1" id="Layer_1" xmlns="http://www.w3.org/2000/svg" xmlns:xlink="http://www.w3.org/1999/xlink" x="0px" y="0px"
	 viewBox="0 0 151.67 118.91" style="enable-background:new 0 0 151.67 118.91;" xml:space="preserve">
<style type="text/css">
	.st0{fill:#434b51;}
</style>
<path class="st0" d="M115.8,96.37L115.8,96.37c-4.23,0.61-6.34-2.91-4.95-5.96l0,0c1.15-2.53,1.72-5.26,1.72-8.16
	c0-2.9-0.52-5.57-1.68-8.11l0,0c-1.02-2.47,0.69-6.62,4.92-6v0c2.27,0.33,4.03-1.8,4.03-4.74c0-2.94-1.76-5.78-4.03-6.37
	c-2.38-0.62-4.4,1.46-4.4,4.66v0h0c0,5.59-3.07,7.84-5.54,5.74l0,0c-2.18-1.86-4.74-3.06-7.66-3.53c-3.11-0.5-6.17-0.02-8.9,1.23
	c-2.85,1.03-8.21-2.44-8.21-9.58h0c0-4.16-3.56-8.45-8.22-9.66c-4.99-1.29-9.31,1.41-9.31,6.12c0,4.71,4.32,9.16,9.31,9.89l0,0
	c7.42,1.08,10.89,5.75,9.5,9.19c-2.06,3.03-3.31,6.84-3.31,11.16c0,4.11,1.14,7.75,3.02,10.7c1.3,2.96-1.57,8.51-9.23,9.62h0
	c-5,0.72-9.32,5.17-9.32,9.88c0,4.71,4.32,7.41,9.32,6.12c4.66-1.21,8.23-5.5,8.23-9.66c0,0,0,0,0,0c0-6.94,4.43-10.88,7.85-9.75
	c2.83,1.39,6.02,1.95,9.28,1.43c2.91-0.46,5.44-1.63,7.61-3.47l0,0c2.03-1.59,5.58,0.1,5.58,5.68v0c0,3.2,2.02,5.28,4.4,4.66
	c2.27-0.59,4.03-3.43,4.03-6.37C119.83,98.17,118.06,96.04,115.8,96.37z M98.06,93.72c-6,0.68-11.4-4.42-11.4-11.46
	c0-7.04,5.41-12.14,11.4-11.46c5.36,0.6,9.31,5.71,9.31,11.46C107.38,88.01,103.43,93.11,98.06,93.72z"/>
<g>
	<path class="st0" d="M150.74,74.88l-33.5-49.17c-0.75-1.13-1.98-1.8-3.32-1.8c-0.79,0-1.56,0.23-2.23,0.68L103,36.88L79.12,1.76
		C78.38,0.67,77.15,0.01,75.84,0c-1.32,0.01-2.55,0.67-3.29,1.76L48.68,36.88l-8.7-12.29c-0.66-0.45-1.44-0.68-2.23-0.68
		c-1.34,0-2.57,0.66-3.32,1.8L0.93,74.88C0.31,75.66,0,76.52,0,77.44c0,2.25,1.82,4.08,4.05,4.08h66.06
		c0.07-2.79,0.49-5.5,1.28-8.07H11.61l26.13-38.45l7.62,11.23c0.74,1.09,1.99,1.74,3.34,1.74c0.8,0,1.58-0.23,3.32-1.84l23.81-35.03
		l23.81,35.03c1.74,1.6,2.52,1.84,3.32,1.84c1.35,0,2.6-0.64,3.34-1.74l7.62-11.23l26.13,38.45h-18.85c0.8,2.54,1.2,5.21,1.27,8.07
		h25.14c2.24,0,4.05-1.84,4.05-4.08C151.67,76.52,151.36,75.66,150.74,74.88z"/>
</g>
</svg>
