<svg id="Layer_1" data-name="Layer 1" xmlns="http://www.w3.org/2000/svg" viewBox="0 0 45 45"><defs><style>.cls-1{fill:#444c52;}</style></defs><title>SVG-Icon</title><polygon class="cls-1" points="11.98 41.69 10.34 40.83 12.06 37.56 13.76 38.3 11.98 41.69"/><path class="cls-1" d="M35.75,41.94a.92.92,0,0,1-.78-.43l-3.82-6a.92.92,0,1,1,1.56-1l3.82,6a.92.92,0,0,1-.78,1.42Z"/><path class="cls-1" d="M15.46,24.35a7.32,7.32,0,1,0,7.32,7.32A7.32,7.32,0,0,0,15.46,24.35Zm0,13.33a6,6,0,1,1,6-6A6,6,0,0,1,15.46,37.68Z"/><path class="cls-1" d="M40,16.67a.53.53,0,0,1-.25-.06l-2.27-1.24a.53.53,0,1,1,.51-.93l2.27,1.24a.53.53,0,0,1-.25,1Z"/><path class="cls-1" d="M14.12,42.11H8.7a.92.92,0,1,1,0-1.85h5.42a.92.92,0,1,1,0,1.85Z"/><path class="cls-1" d="M38.14,42.11H32.72a.92.92,0,0,1,0-1.85h5.42a.92.92,0,1,1,0,1.85Z"/><path class="cls-1" d="M35,18.28h0a.72.72,0,0,0,1.18,0l.14-.21A11.31,11.31,0,0,1,35,18.28Z"/><path class="cls-1" d="M38.71,13.4a.72.72,0,0,0-1,.18l-1.23,1.76a1.34,1.34,0,0,1,1.17.83l1.24-1.77A.72.72,0,0,0,38.71,13.4Z"/><circle class="cls-1" cx="29.28" cy="6.41" r="3.41" transform="translate(-0.47 2.78) rotate(-5.4)"/><path class="cls-1" d="M35,18.14a9.87,9.87,0,0,1-7.73-2.66,13.53,13.53,0,0,1-3-3.89,1.2,1.2,0,0,1,2.18-1c.13.28,3.2,6.56,9.63,4.94a1.2,1.2,0,0,1,.59,2.34A11.31,11.31,0,0,1,35,18.14Z"/><path class="cls-1" d="M28.6,32.76h0a.31.31,0,0,1-.25-.36l.51-2.76.6.12L29,32.51A.31.31,0,0,1,28.6,32.76Z"/><path class="cls-1" d="M25.84,27.87l-5.63-6.37L18.51,21a.92.92,0,0,0-.08,1.3l6,6.77A5.52,5.52,0,0,1,25.84,27.87Z"/><path class="cls-1" d="M23.51,17.56S25,15.61,26,14.45a13.3,13.3,0,0,1-1.86-2.76,1.41,1.41,0,0,1,2.56-1.2A10.61,10.61,0,0,0,28.45,13c-.4-1.2-.69-2.62-2.12-3.64-1.73-1.26-4.15.76-4.15.76s-3.81,3.71-4.53,7.25,3.42,3.34,6.24,4.31a5.37,5.37,0,0,1,3.59,4.56c.1,1,.33,2.88,1.81,2.74a2,2,0,0,0,1.82-1.1s.68-1.31-1.07-5.42S23.51,17.56,23.51,17.56Z"/><path class="cls-1" d="M26.93,26.29a4.8,4.8,0,0,0-3.22-4.08,19.55,19.55,0,0,0-2.05-.54A9.07,9.07,0,0,1,18,20.31H16.3a.86.86,0,1,0,0,1.73h5.28c.19.15.38.3.55.46a7.35,7.35,0,0,1,2,3.07l2.65,3h0l0,0a15.12,15.12,0,0,0,.2-1.83C27,26.59,26.95,26.42,26.93,26.29Z"/><path class="cls-1" d="M27,15.74l-.45-.42c2.26,4.4,7.12,4,8,3.16l-.6,0A10.19,10.19,0,0,1,27,15.74Z"/><path class="cls-1" d="M15.46,25.9a5.76,5.76,0,1,0,5.76,5.76A5.77,5.77,0,0,0,15.46,25.9Zm0,9.1a3.34,3.34,0,1,1,3.34-3.34A3.34,3.34,0,0,1,15.46,35Z"/><path class="cls-1" d="M23.09,32.65a5.44,5.44,0,0,1,1.2-3.42l-.37-.42c-.92,0-1.79.12-2.61.21a6.42,6.42,0,0,1-2.1,7.86,22.15,22.15,0,0,0,6,.08A5.46,5.46,0,0,1,23.09,32.65Z"/><path class="cls-1" d="M40.36,15.61a.92.92,0,0,0-1.29.2L31.62,26a3.74,3.74,0,0,1-.08,2.1,2.3,2.3,0,0,1-1.59,1.26.91.91,0,0,0,.75.39.92.92,0,0,0,.75-.38L40.56,16.9A.92.92,0,0,0,40.36,15.61Z"/><path class="cls-1" d="M31.43,28.28a2.57,2.57,0,0,1-2.08,1.16h-.2c-1.16,0-1.66-.95-1.89-1.85a5.23,5.23,0,1,0,4.18.69Zm-2.86,6a1.67,1.67,0,1,1,1.67-1.67A1.67,1.67,0,0,1,28.57,34.32Z"/></svg>