<svg id="Layer_1" data-name="Layer 1" xmlns="http://www.w3.org/2000/svg" viewBox="0 0 45 45"><defs><style>.cls-1{fill:#444c52;}</style></defs><title>SVG-Icon</title><path class="cls-1" d="M32.35,31.22a4.91,4.91,0,0,0,1.44,6C32.89,37.38,9,42,9,42s-2.5.64-3.34-1.23.47-3,2.6-3.48,12.5-3.1,12.5-3.1Z"/><path class="cls-1" d="M38.1,14l-1.47,1.82a.84.84,0,0,1-1.14-.05c-.59-.53.26-1.18.74-1.77L40.62,8.6a.91.91,0,0,1,1.25-.24c.75.47-2,2.91-2,3.65s-2,18.41-2,18.41l-1.49-.28Z"/><path class="cls-1" d="M40.79,32.8a3.87,3.87,0,1,0-3.07,4.54A3.87,3.87,0,0,0,40.79,32.8ZM39.18,35a2.66,2.66,0,1,1,.41-2A2.64,2.64,0,0,1,39.18,35Z"/><path class="cls-1" d="M39.42,33.06A2.49,2.49,0,1,0,39,34.93,2.49,2.49,0,0,0,39.42,33.06Zm-2.18,1.82a1.38,1.38,0,1,1,1.09-1.61A1.38,1.38,0,0,1,37.24,34.88Z"/><polygon class="cls-1" points="39.39 39.54 39.39 42.39 18.49 42.39 39.39 39.54"/><circle class="cls-1" cx="20.02" cy="5.1" r="3.42" transform="translate(-0.48 2.53) rotate(-7.15)"/><path class="cls-1" d="M27.12,29.3a29.75,29.75,0,0,0-1.29-4A8,8,0,0,0,25,23.66a10.92,10.92,0,0,0-1.41-2c-1.15-1.46-2.3-2.61-2.32-2.73,0-.88-.26-3.36-.23-3.18A8.25,8.25,0,0,0,24.21,15c1.34-.72,1.89-1.59,1.48-2.22s-1.29-.42-2,.22a2.54,2.54,0,0,1-2.54.61c.45-3.4-.71-3.92-.71-3.92a2.24,2.24,0,0,0-3.16.79c1.37-.16,2.16,0,2.44.81a.93.93,0,0,1,0,.83c-.28.47-1.09.62-2.1.77l-.8.1-.55.07a10.74,10.74,0,0,0-.15,1.15l.26.15c.7.4,1.49.86,1.71,1.56a1.39,1.39,0,0,1-.35,1.59.89.89,0,0,1-.51.15h0a1.84,1.84,0,0,1-1-.4c.1.89.23,1.48.23,1.48.37,2,1,2,1,2.85a70.78,70.78,0,0,1-1.85,8.11c-.58,2-1.17,4.3.28,4.4s1.82-.89,2.35-2.33a53.3,53.3,0,0,0,2.3-9.27,14.34,14.34,0,0,1,2.8,3.82c.92,2.17,1.32,5.59,2.66,5.71S27.58,30.77,27.12,29.3Z"/><path class="cls-1" d="M16.17,17a25,25,0,0,1-2.72-2.36c-1.45-1.44-.32-3.21,2.1-3.71s3.73-.58,4.07.4-.6,1.18-2,1.38-2.65.17-2.4.88S17.6,14.78,18,15.92,17.56,18.09,16.17,17Z"/></svg>