<svg id="Layer_1" data-name="Layer 1" xmlns="http://www.w3.org/2000/svg" viewBox="0 0 45 45"><defs><style>.cls-1{fill:#444c52;}</style></defs><title>SVG-Icon</title><rect class="cls-1" x="38.53" y="12.48" width="2.48" height="8.43" rx="0.8" ry="0.8" transform="translate(14.5 51.65) rotate(-76.9)"/><path class="cls-1" d="M40.92,26.59V17.09a.62.62,0,0,0-.62-.62H39.24a.62.62,0,0,0-.62.62v4.8a6.8,6.8,0,0,0-10.61,8l-1.06,1.56H3.11s-1.81-.26-2,1,1.63,1.22,1.63,1.22l28.78.15s1.36,0,2.46,0h.18a6.8,6.8,0,0,0,6.7-5.65.61.61,0,0,0,.08-.31v-.42c0-.14,0-.28,0-.42S40.93,26.72,40.92,26.59Zm-3.3,3.63a4.7,4.7,0,0,1-3.29,1.52h-.19a4.74,4.74,0,1,1,3.48-1.52Z"/><path class="cls-1" d="M3.46,23.08a12.24,12.24,0,0,1,.45-1.34L4,21.53c.65-1.74,1.44-1.89,2-1.72a1.28,1.28,0,0,1,.87.67,2.09,2.09,0,0,1-.3,1.69,7.14,7.14,0,0,0-.69,2.05,5.72,5.72,0,0,0,2.45-.93l.16-.1L8.85,23l-.64-1.8c-.57-1.58-1.33-2.95-3-2.79S3,20.74,3.39,22.74Z"/><path class="cls-1" d="M21,25.83a22,22,0,0,0-10.79.93l-.47-1.33-.86.45a7.89,7.89,0,0,1-3.22.93,2.76,2.76,0,0,1-1.13-.22A21.9,21.9,0,0,0,6,29.71c1.15,2,3.73,1.13,4.2.89s6.38-2.49,11.31-1.11A21.4,21.4,0,0,1,24.77,31,1.92,1.92,0,0,0,27,29.52C27.27,28.83,26.67,26.88,21,25.83Z"/><circle class="cls-1" cx="4.68" cy="14.53" r="3.23" transform="translate(-0.57 0.2) rotate(-2.26)"/><rect class="cls-1" x="11.7" y="19.98" width="27.34" height="0.61" transform="translate(-3.34 5.08) rotate(-10.74)"/><rect class="cls-1" x="4.93" y="32.88" width="2.52" height="3.54" rx="0.81" ry="0.81" transform="translate(12.37 69.31) rotate(180)"/><rect class="cls-1" x="34.1" y="32.88" width="2.52" height="3.54" rx="0.81" ry="0.81" transform="translate(70.73 69.31) rotate(-180)"/><path class="cls-1" d="M38.47,26.83a4.34,4.34,0,0,0-4.33-4.16H34a4.33,4.33,0,1,0,4.5,4.16Zm-4.23,2.78a2.62,2.62,0,1,1,2.51-2.72A2.62,2.62,0,0,1,34.25,29.62Z"/><path class="cls-1" d="M5.71,24.29a6.81,6.81,0,0,1,.72-2.18c.64-1.28.41-1.87-.49-2.16s-1.47.74-1.8,1.63-1.49,3.45,0,4.64,4.6-.48,4.6-.48l2.13-1.11a1.23,1.23,0,0,0,.37-1.69c-.61-1-2.24.09-2.89.48S6,24.67,5.71,24.29Z"/><path class="cls-1" d="M12.18,23.08c-.27-.81-1-1.31-1.55-1.11a.92.92,0,0,0-.52.45,1.5,1.5,0,0,1,.69,0,1,1,0,0,1,.61.46A1.37,1.37,0,0,1,11,24.76h0l-.11.06a.93.93,0,0,0,.71.07A1.38,1.38,0,0,0,12.18,23.08Z"/></svg>