<svg id="Layer_1" data-name="Layer 1" xmlns="http://www.w3.org/2000/svg" viewBox="0 0 45 45"><defs><style>.cls-1{fill:#444c52;}</style></defs><title>SVG-Icon</title><path class="cls-1" d="M37.24,42.23H35.54l-1.43-2.71a3.43,3.43,0,0,0,1.39-2.76c0-.08,0-.16,0-.24v0c1-.69,1.07-1.11,1.61-3.25a12.1,12.1,0,0,0,.33-4.16,12.51,12.51,0,0,1-1.51,3.58l-.23.38A9,9,0,0,1,35,35h0a3.46,3.46,0,0,0-.26-.38,3.45,3.45,0,0,1-.58.66,2.58,2.58,0,1,1-4.28.09c-1.33-.18-10.16-1.64-14.82-2.41a4.51,4.51,0,1,1-5.74-2.5,1.93,1.93,0,0,1,3.41-.77L32.87,33.3h0a41.52,41.52,0,0,0-4.25-1.63,1.44,1.44,0,0,0,.31-.34,8.71,8.71,0,0,0,1.56-6.58c-.56-4.11-5-4.47-5-4.47s.14-1.14.33-2.54a4.45,4.45,0,0,0,2.65.92,4.94,4.94,0,0,0,2.13-.52c1.24,2.5,2.88,4.18,4.46,7.57a11.27,11.27,0,0,1,.53,1.37,10.44,10.44,0,0,0,0-2.38c-.09-.65-.19-1.26-.31-1.82-1-1.67-2.08-3-2.72-4.12-.15-.25-.29-.5-.42-.75l-.58,0-.72,0a10.28,10.28,0,0,1-5-1.7h0l-.24-.16,0,0-.22-.16,0,0c-.3-.22-.57-.45-.8-.66l0,0-.14-.13-.05,0-.12-.11-.05-.05-.1-.1-.05-.05-.09-.1,0,0-.15-.17,0,0-.05-.06,0-.05,0-.05,0,0,0,0,0,0,0,0,0,0h0l0,0,0-.06h0a1.54,1.54,0,0,1,.25-2,1.27,1.27,0,0,1,1-.32,1.31,1.31,0,0,1,.92.54,6.8,6.8,0,0,0,1.08,1.09c-.12-3.64-3.2-2.08-3.2-2.08s-1.39.17-2.29,3.64a16.81,16.81,0,0,0,.22,7.53l-1.72,6.5,3.38.71s1.42-5.14,1.59-6c2.86.43,3.07,2.29,2.6,3.72-.35,1.05-1.38,2.5-1.23,3.54C18.62,28.73,9,27.2,6.38,31a7.19,7.19,0,0,0-.58,7.1A5.92,5.92,0,0,0,7.72,39.9L6.46,42.23H4.76a1,1,0,0,0,0,1.91h5.48a1,1,0,1,0,0-1.91H8.72l.83-1.51a12,12,0,0,0,3.64.51c11.07.37,16.67-.4,19.06-1l1,2H31.76a1,1,0,0,0,0,1.91h5.48a1,1,0,0,0,0-1.91Z"/><path class="cls-1" d="M12,29.59a1.49,1.49,0,1,0-.41,2.75,1.67,1.67,0,0,1-.65-.43,1.35,1.35,0,0,1-.33-1A1.33,1.33,0,0,1,12,29.59Z"/><path class="cls-1" d="M29.13,13.7c.07.39.16.76.24,1.11a7.79,7.79,0,0,0,1.5.27,9.3,9.3,0,0,1-.41-2.34c0-.9,0-1.48-.53-1.5S28.81,11.81,29.13,13.7Z"/><path class="cls-1" d="M34.42,14.64a1.24,1.24,0,0,1,.73,0,11,11,0,0,1,.27-3.72c.26-.87.43-1.41-.06-1.59s-1.24.2-1.5,2.11a17.8,17.8,0,0,0-.09,3.39Z"/><path class="cls-1" d="M35.56,17.26v0a1.29,1.29,0,0,1-.37.19q-.47.15-.94.26a51.65,51.65,0,0,1,1.66,7,11.29,11.29,0,0,1-2.91,9L12.25,30a1,1,0,0,0-1.33,1c-.09,1.18,1.37,1.24,1.37,1.24l.36.06a1.93,1.93,0,0,1-3.16-.49,3.31,3.31,0,1,0,3.7.58C16.64,32.87,29,34.92,30,35a17.37,17.37,0,0,0,2.94.28c1.15.14,1.73-1.33,2.63-2.8C39.37,26.43,36.31,20.43,35.56,17.26ZM10.91,36.16a1.46,1.46,0,1,1,1.46-1.46A1.46,1.46,0,0,1,10.91,36.16Z"/><path class="cls-1" d="M25.19,12.33a1,1,0,0,0-1.55-.19,1.3,1.3,0,0,0-.18,1.7,10.36,10.36,0,0,0,8,3.94,11.8,11.8,0,0,0,3.61-.59,1.23,1.23,0,0,0,.75-1.5,1.09,1.09,0,0,0-1.37-.83A8.3,8.3,0,0,1,25.19,12.33Z"/><circle class="cls-1" cx="25.95" cy="7.02" r="3.16"/><path class="cls-1" d="M33,35.62h-.08a15.48,15.48,0,0,1-2.44-.22,2.12,2.12,0,1,0,3.33.09,1.44,1.44,0,0,1-.62.14Z"/></svg>