<svg id="Layer_1" data-name="Layer 1" xmlns="http://www.w3.org/2000/svg" viewBox="0 0 45 45"><defs><style>.cls-1{fill:#444c52;}</style></defs><title>SVG-Icon</title><path class="cls-1" d="M31.39,33.92a5.14,5.14,0,0,0,.29,6.42c-1,0-26.39,0-26.39,0s-2.7.16-3.19-1.92,1.08-3,3.36-3.06,13.46-.71,13.46-.71Z"/><path class="cls-1" d="M39.38,17.23,37.66,19a.88.88,0,0,1-1.18-.17c-.56-.61.39-1.2,1-1.77l5.12-5.2a1,1,0,0,1,1.32-.12c.74.56-2.35,2.82-2.43,3.59s-4,19-4,19l-1.52-.44Z"/><path class="cls-1" d="M35.7,33.16a4.05,4.05,0,1,0,4.05,4.05A4.05,4.05,0,0,0,35.7,33.16Zm0,6.83a2.78,2.78,0,1,1,2.78-2.78A2.78,2.78,0,0,1,35.7,40Z"/><path class="cls-1" d="M35.7,34.61a2.6,2.6,0,1,0,2.6,2.6A2.6,2.6,0,0,0,35.7,34.61Zm0,4a1.44,1.44,0,1,1,1.44-1.44A1.44,1.44,0,0,1,35.7,38.66Z"/><circle class="cls-1" cx="22.23" cy="6.75" r="3.58" transform="translate(-0.58 2.34) rotate(-5.95)"/><path class="cls-1" d="M26.08,17.19c1.42-.72,2-1.62,1.6-2.29s-1.34-.46-2.05.18a2.66,2.66,0,0,1-2.67.58c.55-3.55-.66-4.12-.66-4.12a2.35,2.35,0,0,0-3.32.76c1.64-.19,2.56,0,2.85.87a1,1,0,0,1,0,.86c-.31.49-1.11.62-2.22.76l-.84.09c-.32,0-.64.06-.9.1-.07.32-.12.64-.15,1l.57.36c.72.44,1.54.93,1.76,1.67a1.45,1.45,0,0,1-.4,1.66.93.93,0,0,1-.52.15,2.05,2.05,0,0,1-1.25-.57l-.19-.15a17.78,17.78,0,0,0,.23,1.87,15.46,15.46,0,0,0,.38,2c-1,1.31-1.29,2.79-2.69,3.63-.86.52-4.31.7-6.17.94-2.39.3-2.28,1.26-2,2.17.62,1.78,4.62,1.09,8.23.23,3-.72,5.19-4.35,5.82-5.51,3,.67,2.43,3.15,1.65,4.58s-1.34,3.06.23,3.54,2.43-1.36,2.43-1.36,2.55-3.85.87-6.84A6.66,6.66,0,0,0,23,21.38c0-.23-.05-.45-.08-.63-.18-1.13-.28-2.93-.28-2.93A8,8,0,0,0,26.08,17.19Z"/><path class="cls-1" d="M17.94,19.08a26.13,26.13,0,0,1-2.79-2.53c-1.48-1.54-.26-3.37,2.27-3.83s3.91-.52,4.25.51-.65,1.22-2.13,1.4-2.78.12-2.53.87,2.47,1.32,2.82,2.52S19.37,20.28,17.94,19.08Z"/></svg>