<svg xmlns="http://www.w3.org/2000/svg" viewBox="0 0 38.48 27.68"><defs><style>.cls-1{fill:#f58220;}</style></defs><title>Corporate-Menu-PushNotifications-active</title><g id="Layer_2" data-name="Layer 2"><g id="Layer_1-2" data-name="Layer 1"><path class="cls-1" d="M25.64.87V24.51A.87.87,0,0,1,24,25c-2.66-4.14-5.28-6.31-14.49-6.77l2.91,9.45H8.12L5.18,18.12A5.43,5.43,0,0,1,5.43,7.26C18.06,7.26,21,5.09,24,.39a.87.87,0,0,1,1.59.48Zm7.48,13a10.11,10.11,0,0,1-1.91,5.92,1.64,1.64,0,0,1-1.22.63,1.5,1.5,0,0,1-1.48-1.49A1.67,1.67,0,0,1,28.8,18a6.8,6.8,0,0,0,1.35-4.18A6.8,6.8,0,0,0,28.8,9.66a1.67,1.67,0,0,1-.29-.89A1.5,1.5,0,0,1,30,7.29a1.64,1.64,0,0,1,1.22.63,10.12,10.12,0,0,1,1.91,5.92ZM32,5.26A1.68,1.68,0,0,1,31.35,4a1.49,1.49,0,0,1,1.48-1.49,1.85,1.85,0,0,1,1,.36c1.8,1.34,4.67,4.78,4.67,10.94s-2.87,9.6-4.67,10.94a1.86,1.86,0,0,1-1,.36,1.5,1.5,0,0,1-1.49-1.49A1.68,1.68,0,0,1,32,22.41c2.09-1.54,3.49-4.62,3.49-8.57s-1.4-7-3.49-8.58Zm0,0"/></g></g></svg>