<svg id="Layer_1" data-name="Layer 1" xmlns="http://www.w3.org/2000/svg" viewBox="0 0 16 16"><defs><style>.cls-1{fill:#454d53;}</style></defs><title>Collapse-Keyboard-Icon-Grey</title><path class="cls-1" d="M14.4,0H1.6A1.6,1.6,0,0,0,0,1.6v8a1.6,1.6,0,0,0,1.6,1.6H14.4A1.6,1.6,0,0,0,16,9.6v-8A1.6,1.6,0,0,0,14.4,0ZM7.2,2.4H8.8V4H7.2Zm0,2.4H8.8V6.4H7.2ZM4.8,2.4H6.4V4H4.8Zm0,2.4H6.4V6.4H4.8ZM4,6.4H2.4V4.8H4ZM4,4H2.4V2.4H4Zm7.2,5.6H4.8V8h6.4Zm0-3.2H9.6V4.8h1.6Zm0-2.4H9.6V2.4h1.6Zm2.4,2.4H12V4.8h1.6Zm0-2.4H12V2.4h1.6ZM8,16l3.2-3.2H4.8Zm0,0"/></svg>