<svg xmlns="http://www.w3.org/2000/svg" viewBox="0 0 15.62 18.75"><defs><style>.cls-1{fill:#b6b6b6;}</style></defs><title>Corporate-CoachesHub-Permission</title><g id="Layer_2" data-name="Layer 2"><g id="Layer_1-2" data-name="Layer 1"><path class="cls-1" d="M15.39.23A.75.75,0,0,0,14.84,0H.78A.75.75,0,0,0,.23.23.75.75,0,0,0,0,.78v9.37a5.6,5.6,0,0,0,.41,2.08,7.74,7.74,0,0,0,1,1.83,11.3,11.3,0,0,0,1.44,1.56,16.74,16.74,0,0,0,1.54,1.26q.71.5,1.48.95t1.09.6l.52.24a.72.72,0,0,0,.63,0l.52-.24q.32-.16,1.09-.6t1.48-.95a16.71,16.71,0,0,0,1.54-1.26,11.29,11.29,0,0,0,1.44-1.56,7.78,7.78,0,0,0,1-1.83,5.6,5.6,0,0,0,.41-2.08V.78A.75.75,0,0,0,15.39.23ZM11.58,7,7.63,11a.89.89,0,0,1-1.26,0l-2-2A.89.89,0,0,1,5.68,7.74L6.84,8.91a.23.23,0,0,0,.32,0l3.15-3.15A.89.89,0,1,1,11.58,7Z"/></g></g></svg>