<?xml version="1.0" encoding="utf-8"?>
<!-- Generator: Adobe Illustrator 21.1.0, SVG Export Plug-In . SVG Version: 6.00 Build 0)  -->
<svg version="1.1" xmlns="http://www.w3.org/2000/svg" xmlns:xlink="http://www.w3.org/1999/xlink" x="0px" y="0px"
	 viewBox="0 0 1020.6 1020.6" style="enable-background:new 0 0 1020.6 1020.6;" xml:space="preserve">
<style type="text/css">
	.st0{fill:#6F767B;}
	.st1{fill:#FFFFFF;}
</style>
<g id="Layer_1">
	<g id="Layer_1_1_">
		<g>
			<circle class="st0" cx="510.3" cy="510.3" r="510.3"/>
		</g>
	</g>
</g>
<g id="Layer_2">
	<g>
		<path class="st1" d="M736.8,595.4c-34-21.4-78.9-14.8-104.7,16c-28.6,34.2-71.6,55.9-119.7,55.9c-48.1,0-91.1-21.7-119.7-55.9
			c-25.4-30.4-69.1-38.1-102.8-17.2c-27.2,16.9-52.3,36.8-74.8,59.2c-8.8,8.7-10.4,22.3-4.2,33c60.4,102.4,171.8,171.1,299.3,171.1
			c128.6,0,240.9-70,300.9-173.9c6.2-10.8,4.4-24.4-4.5-33.1C785.5,629.8,762.1,611.3,736.8,595.4z"/>
		<path class="st1" d="M360.9,467.7c9.5,5.9,16,15.5,19.4,26.2c0.1,0.3,0.2,0.7,0.3,1c2.7,9.5,6.2,19.7,10.7,30.1
			c23.5,53.1,64.1,82.5,117.6,85.1c0,0,0,0,0,0v0c1.8,0,1,0,2.9,0v0c0,0,0,0,0,0c53.5-2.6,94.1-32.1,117.6-85.1
			c4.6-10.3,8-20.5,10.7-30.1c0.1-0.4,0.2-0.7,0.3-1.1c3.4-10.6,9.9-20.2,19.4-26.1c1-0.6,2-1.6,2.8-2.8
			c22.4-34.8,20.9-67.4,15.1-89.4c-1.5-5.6-7-7.4-11.4-5.9c2.9-15.3,5.9-34.1,7.3-53.8c5-66.3-8.8-108.1-40.9-124.3
			c-50.8-25.4-100.1-28.7-123-28.6c-22.9-0.1-72.1,3.3-122.8,28.6c-32.2,16.1-45.9,57.9-40.9,124.3c1.5,19.5,4.4,38.2,7.3,53.4
			c-4.1-0.8-8.8,1.2-10.1,6.2c-5.8,22.1-7.3,54.6,15.1,89.4C358.9,466.2,359.8,467.1,360.9,467.7z M396.5,210.9
			c39.3-19.7,78.4-24.9,102-26l0,0.1c0.1,0,3-0.3,8.1-0.3c0.2,0,0.4,0,0.6,0c0.2,0,0.4,0,0.5,0c0.2,0,0.5,0,0.7,0c0.3,0,0.5,0,0.8,0
			c0.1,0,0.2,0,0.3,0c1.4,0,3,0,4.6,0c4.3,0.1,6.7,0.3,6.8,0.3l0-0.1c23.6,1.1,62.7,6.3,102,26c29.3,14.7,32,64.2,29.1,103.1
			c-1.7,22.2-5.3,43.6-8.6,59.6c-0.2-0.5-0.3-1-0.3-1.6c0-0.4,0-0.8,0-1.1c0-0.1,0-0.2,0-0.4c0-0.5,0-1,0-1.6c0-0.2,0.1-0.3,0.1-0.5
			c0.1-3.4,0.2-6.8,0.3-10.2c0.8-44.7-4.6-71.7-12.3-87.7c-1-2.4-2.4-4.8-4.1-7.2c0,0,0,0,0,0c-1.7-2.6-4.8-3.9-7.8-3.7
			c-32,3-69.2,4.7-109,4.7s-77-1.7-109-4.7c-3.1-0.3-6.1,1.1-7.8,3.7c0,0,0,0,0,0.1c-1.7,2.3-3,4.7-4.1,7.2
			c-7.7,16-13.1,43-12.3,87.7c0.1,3.4,0.2,6.8,0.3,10.2c0,0.2,0.1,0.3,0.1,0.5c0.1,0.6,0.1,1.2,0,1.8c0,0.4,0,0.9,0.1,1.3
			c0,1.1-0.4,2.2-1.2,2.9c-3.4-16.1-7.2-38.1-8.9-60.9C364.4,275,367.1,225.6,396.5,210.9z"/>
	</g>
</g>
</svg>
