<?xml version="1.0" encoding="utf-8"?>
<!-- Generator: Adobe Illustrator 21.1.0, SVG Export Plug-In . SVG Version: 6.00 Build 0)  -->
<svg version="1.1" xmlns="http://www.w3.org/2000/svg" xmlns:xlink="http://www.w3.org/1999/xlink" x="0px" y="0px"
	 viewBox="0 0 1020.6 1020.6" style="enable-background:new 0 0 1020.6 1020.6;" xml:space="preserve">
<style type="text/css">
	.st0{fill:#4A4A4A;}
	.st1{display:none;}
	.st2{display:inline;}
	.st3{fill:#FFFFFF;}
</style>
<g id="Layer_1">
	<g id="Layer_1_1_">
		<g>
			<circle class="st0" cx="510.3" cy="510.3" r="510.3"/>
		</g>
	</g>
</g>
<g id="Layer_2" class="st1">
	<g class="st2">
		<path class="st3" d="M736.8,595.4c-34-21.4-78.9-14.8-104.7,16c-28.6,34.2-71.6,55.9-119.7,55.9c-48.1,0-91.1-21.7-119.7-55.9
			c-25.4-30.4-69.1-38.1-102.8-17.2c-27.2,16.9-52.3,36.8-74.8,59.2c-8.8,8.7-10.4,22.3-4.2,33c60.4,102.4,171.8,171.1,299.3,171.1
			c128.6,0,240.9-70,300.9-173.9c6.2-10.8,4.4-24.4-4.5-33.1C785.5,629.8,762.1,611.3,736.8,595.4z"/>
		<path class="st3" d="M360.9,467.7c9.5,5.9,16,15.5,19.4,26.2c0.1,0.3,0.2,0.7,0.3,1c2.7,9.5,6.2,19.7,10.7,30.1
			c23.5,53.1,64.1,82.5,117.6,85.1c0,0,0,0,0,0v0c1.8,0,1,0,2.9,0v0c0,0,0,0,0,0c53.5-2.6,94.1-32.1,117.6-85.1
			c4.6-10.3,8-20.5,10.7-30.1c0.1-0.4,0.2-0.7,0.3-1.1c3.4-10.6,9.9-20.2,19.4-26.1c1-0.6,2-1.6,2.8-2.8
			c22.4-34.8,20.9-67.4,15.1-89.4c-1.5-5.6-7-7.4-11.4-5.9c2.9-15.3,5.9-34.1,7.3-53.8c5-66.3-8.8-108.1-40.9-124.3
			c-50.8-25.4-100.1-28.7-123-28.6c-22.9-0.1-72.1,3.3-122.8,28.6c-32.2,16.1-45.9,57.9-40.9,124.3c1.5,19.5,4.4,38.2,7.3,53.4
			c-4.1-0.8-8.8,1.2-10.1,6.2c-5.8,22.1-7.3,54.6,15.1,89.4C358.9,466.2,359.8,467.1,360.9,467.7z M396.5,210.9
			c39.3-19.7,78.4-24.9,102-26l0,0.1c0.1,0,3-0.3,8.1-0.3c0.2,0,0.4,0,0.6,0c0.2,0,0.4,0,0.5,0c0.2,0,0.5,0,0.7,0c0.3,0,0.5,0,0.8,0
			c0.1,0,0.2,0,0.3,0c1.4,0,3,0,4.6,0c4.3,0.1,6.7,0.3,6.8,0.3l0-0.1c23.6,1.1,62.7,6.3,102,26c29.3,14.7,32,64.2,29.1,103.1
			c-1.7,22.2-5.3,43.6-8.6,59.6c-0.2-0.5-0.3-1-0.3-1.6c0-0.4,0-0.8,0-1.1c0-0.1,0-0.2,0-0.4c0-0.5,0-1,0-1.6c0-0.2,0.1-0.3,0.1-0.5
			c0.1-3.4,0.2-6.8,0.3-10.2c0.8-44.7-4.6-71.7-12.3-87.7c-1-2.4-2.4-4.8-4.1-7.2c0,0,0,0,0,0c-1.7-2.6-4.8-3.9-7.8-3.7
			c-32,3-69.2,4.7-109,4.7s-77-1.7-109-4.7c-3.1-0.3-6.1,1.1-7.8,3.7c0,0,0,0,0,0.1c-1.7,2.3-3,4.7-4.1,7.2
			c-7.7,16-13.1,43-12.3,87.7c0.1,3.4,0.2,6.8,0.3,10.2c0,0.2,0.1,0.3,0.1,0.5c0.1,0.6,0.1,1.2,0,1.8c0,0.4,0,0.9,0.1,1.3
			c0,1.1-0.4,2.2-1.2,2.9c-3.4-16.1-7.2-38.1-8.9-60.9C364.4,275,367.1,225.6,396.5,210.9z"/>
	</g>
</g>
<g id="Layer_3">
	<path class="st3" d="M742,295.1c-7.7-12.5-34.7-57.2-41.9-78.9c-8.4-25.3-87.7-68.8-122.5-75.4c-34.8-6.6-37.7-0.5-46.8,2.9
		c-9.1,3.3-16.2,5.3-29.4,30.2c-8.3,15.7-12.5,28.6-12,38.6c0.3,6.5,4.5,12.1,10.5,14.4c6.1,2.4,10.9,3.8,10.8,2.4
		c-2.3-22.7,7.4-46.7,14.3-60.4c0.5-0.9,1.8-0.3,1.5,0.6c-3.4,9.2-7.8,22.5-10.5,36.9c-3.9,21.5,7.2,33.3,12.9,37.5
		c0.3,0.2,6.2,4.5,6.5,4.6c0.3,0.2,0.7,0.3,1,0.5c0.1,0.2-0.4,0-1.4-0.7c-13.9-6.7-29.4-13.5-39.5-17.8c-3.4-1.4-7.3-0.7-9.8,1.9
		c-4.3,4.5-7.9,11.3-5.4,19.3c4.8,14.7,31.6,14.6,49.2,8.9c17.7-5.7,42.9,5.3,67.8-0.6c24.9-5.8,32.6-14.2,48,19.9
		c6,13.2,10.5,23.6,13.7,31.3c12.3,34.6,35.3,107.8,27.5,151.1c-4.8,26.9-10.2,69.2-14.6,107c2.2,11.4,4.8,27.2,7.2,42.4
		c-0.9,0.4-1.8,0.8-2.7,1.3c-5.3-16.9-12.2-31.1-19.6-43c-21.9-26.2-53.1-47.3-90.7-58.4c-36.1-10.7-72.4-10.5-104.1-1.5
		c-22.1,6.3-45.8,0-61.8-16.5c-17.3-17.9-39.5-31.7-65.3-39.4c-76.9-22.8-157,18.4-178.7,91.9s22.9,151.6,99.9,174.4
		c18.2,5.4,36.5,7.2,54.2,5.9c45.3-3.4,90.8,6.3,129.4,30.3c14.3,8.9,30.3,16.1,47.6,21.3c2.1,0.6,4.3,1.2,6.4,1.8
		c0.7,0.4,1.5,0.6,2.3,0.9c31.8,8,96,17.7,201.6,6.7c104.8-14.9,137.8-60.6,130.7-90.7C820.2,663.4,891.9,530,742,295.1z
		 M565.8,251.8c-12.1-4.6-22.3-10-25.3-20.9c-3.3-17.8,9.5-60,9.5-60c0.6-2.2,1.1,4.1-2.6,21.6C538.8,233.4,558.6,248.2,565.8,251.8
		c0.8,0.3,1.7,0.6,2.5,1C568.5,252.9,567.5,252.6,565.8,251.8z M597,245.5c-10.5-2.8-19.3-6.4-22.1-14.9c-3.2-14,6.8-48.9,6.8-48.9
		c0.5-1.8,1.1,3.2-1.7,17.5C573.4,232.8,590.7,243.1,597,245.5c0.7,0.2,1.5,0.4,2.2,0.6C599.3,246.2,598.4,246.1,597,245.5z"/>
</g>
</svg>
