<svg id="Capa_1" data-name="Capa 1" xmlns="http://www.w3.org/2000/svg" viewBox="0 0 487.13 371.2"><defs><style>.cls-1{fill:#444c52;}</style></defs><title>Timer-TodayChallengeLeader</title><path class="cls-1" d="M459.5,168.56a8.75,8.75,0,0,0,12.5,0l12.5-12.5a8.75,8.75,0,0,0,0-12.5l-28.3-28.3a8.75,8.75,0,0,0-12.5,0l-12.5,12.5a8.75,8.75,0,0,0,0,12.5l1.2,1.2-8.8,8.8a154.76,154.76,0,0,0-78.6-32.7v-16h9.7a8.81,8.81,0,0,0,8.8-8.8v-26a8.81,8.81,0,0,0-8.8-8.8H298.5a8.81,8.81,0,0,0-8.8,8.8v26a8.81,8.81,0,0,0,8.8,8.8h9.7v16a156.13,156.13,0,0,0-78.6,32.7l-8.8-8.8,1.2-1.2a8.75,8.75,0,0,0,0-12.5l-12.5-12.5a8.75,8.75,0,0,0-12.5,0l-28.3,28.3a8.75,8.75,0,0,0,0,12.5l12.5,12.5a8.75,8.75,0,0,0,12.5,0l1.2-1.2,8.8,8.8a155.44,155.44,0,0,0-33.5,96.6c0,86.2,70.2,156.4,156.4,156.4S483,359,483,272.76a156,156,0,0,0-33.5-96.6l8.8-8.8ZM326.6,393a120.1,120.1,0,1,1,120.1-120.1A120.27,120.27,0,0,1,326.6,393Z" transform="translate(0 -57.96)"/><path class="cls-1" d="M63.5,314.76a15.5,15.5,0,0,0,0,31h84.1a14.49,14.49,0,0,0,4.7-.8,181.17,181.17,0,0,1-9.6-30.3H63.5Z" transform="translate(0 -57.96)"/><path class="cls-1" d="M152.2,201a17,17,0,0,0-4.6-.8H15.5a15.5,15.5,0,0,0,0,31H142.6A182.6,182.6,0,0,1,152.2,201Z" transform="translate(0 -57.96)"/><path class="cls-1" d="M138,272.86c0-5.2.3-10.3.7-15.4H37.1a15.5,15.5,0,0,0,0,31H138.6C138.3,283.36,138,278.16,138,272.86Z" transform="translate(0 -57.96)"/><path class="cls-1" d="M402.1,228.16a9.54,9.54,0,0,0-12.5-3.7L335.5,251a24.1,24.1,0,0,0-21.2,1.5,23.8,23.8,0,1,0,35.7,23.2L399.3,241A9.52,9.52,0,0,0,402.1,228.16Zm-65.5,47.3a10.43,10.43,0,1,1-7.5-12.7A10.51,10.51,0,0,1,336.6,275.46Z" transform="translate(0 -57.96)"/><path class="cls-1" d="M360.4,213.26a9.72,9.72,0,1,0-3.6-3.5A12,12,0,0,0,360.4,213.26Z" transform="translate(0 -57.96)"/><path class="cls-1" d="M326,204.26a9.75,9.75,0,1,0-9.8-9.7,9.94,9.94,0,0,0,1.3,4.9A9.62,9.62,0,0,0,326,204.26Z" transform="translate(0 -57.96)"/><path class="cls-1" d="M327.3,341.66h0a9.88,9.88,0,0,0-9.7,9.9,9.63,9.63,0,0,0,9.8,9.6,9.73,9.73,0,0,0,9.6-9.9A9.62,9.62,0,0,0,327.3,341.66Z" transform="translate(0 -57.96)"/><path class="cls-1" d="M361.5,332.16a9.65,9.65,0,0,0-3.4,13.3h0a9.75,9.75,0,0,0,16.8-9.9A9.88,9.88,0,0,0,361.5,332.16Z" transform="translate(0 -57.96)"/><path class="cls-1" d="M399.7,303.16a9.77,9.77,0,0,0-13.2,13.5,9.32,9.32,0,0,0,3.6,3.5,9.76,9.76,0,1,0,9.6-17Z" transform="translate(0 -57.96)"/><path class="cls-1" d="M257.8,273.76a9.75,9.75,0,1,0-19.5.2,9.75,9.75,0,0,0,19.5-.2Z" transform="translate(0 -57.96)"/><path class="cls-1" d="M254.1,304.56a9.65,9.65,0,0,0-3.4,13.3h0a9.78,9.78,0,1,0,16.8-10A9.85,9.85,0,0,0,254.1,304.56Z" transform="translate(0 -57.96)"/><path class="cls-1" d="M395.3,272.36a9.31,9.31,0,0,0,1.4,4.9,9.68,9.68,0,1,0-1.4-4.9Z" transform="translate(0 -57.96)"/><path class="cls-1" d="M253.4,243.06a9.7,9.7,0,0,0,13.3-3.7h0a9.81,9.81,0,0,0-17.1-9.6,10.05,10.05,0,0,0,.1,9.8A10.39,10.39,0,0,0,253.4,243.06Z" transform="translate(0 -57.96)"/><path class="cls-1" d="M291.5,214a.1.1,0,0,0,.1-.1c.1,0,.1,0,.1-.1h.1a9.78,9.78,0,0,0-10-16.8.1.1,0,0,0-.1.1c-.1,0-.1.1-.2.1a9.65,9.65,0,0,0-3.4,13.3h0A9.82,9.82,0,0,0,291.5,214Z" transform="translate(0 -57.96)"/><path class="cls-1" d="M292.8,332.86a9.77,9.77,0,0,0-13.2,13.5,10.34,10.34,0,0,0,3.6,3.6,9.81,9.81,0,0,0,9.6-17.1Z" transform="translate(0 -57.96)"/></svg>