<svg xmlns="http://www.w3.org/2000/svg" viewBox="0 0 59.86 73.07"><defs><style>.cls-1{fill:#f58220;}</style></defs><title>globe_O</title><g id="Layer_2" data-name="Layer 2"><g id="Layer_1-2" data-name="Layer 1"><path class="cls-1" d="M50.53,70.74H50a5.84,5.84,0,0,0-5.71-4.66H34.2V63.63a32.89,32.89,0,0,0,11.48-2.49,1.17,1.17,0,0,0,.63-1.52l-.6-1.44a1.17,1.17,0,0,0-2.15.89l.14.34a30.51,30.51,0,0,1-9.5,1.89v-.37a1.17,1.17,0,1,0-2.33,0v.36A30.7,30.7,0,0,1,20.22,2.71l.14.34a1.17,1.17,0,1,0,2.15-.89L21.92.72A1.17,1.17,0,0,0,20.39.09,33,33,0,0,0,31.87,63.63v2.45H21.77a5.84,5.84,0,0,0-5.71,4.66h-.51a1.17,1.17,0,0,0,0,2.33h35a1.17,1.17,0,0,0,0-2.33ZM21.77,68.41H44.31a3.5,3.5,0,0,1,3.3,2.33H18.47a3.5,3.5,0,0,1,3.3-2.33Zm0,0"/><path class="cls-1" d="M57.18,42.25a26.59,26.59,0,1,0-.14.29,1.18,1.18,0,0,0,.14-.27v0Zm-9.4-11.88c-.34-1.09-.86-2.7-1.38-4l9.68-4a24.42,24.42,0,0,1-.64,18.14h0A26.82,26.82,0,0,0,49.5,39.4,33.8,33.8,0,0,0,48.91,35C48.61,33.66,48.12,31.46,47.78,30.38Zm-1.16,5.08a34.57,34.57,0,0,1,.53,3.9A26.79,26.79,0,0,0,38.59,41l-4-9.72,9.68-4A24.94,24.94,0,0,1,45.55,31C46.19,33.39,46.36,34.16,46.62,35.45Zm-23.89.69,9.68-4,4,9.72a26.8,26.8,0,0,0-7.2,4.92,43.89,43.89,0,0,1-6.51-10.63ZM43.35,25.08l-9.68,4-4-9.72a26.78,26.78,0,0,0,7.2-4.92,43.92,43.92,0,0,1,6.51,10.63ZM18.88,17.41c.3-4.29,1.63-7.37,3.76-8.85l4,9.55a24.45,24.45,0,0,1-7.78,1.44c0-.73,0-1.44.06-2.14Zm9.87-.19-4-9.55c2.56-.46,5.67.79,8.92,3.6q.79.68,1.56,1.46a24.49,24.49,0,0,1-6.52,4.48Zm-1.26,3,4,9.72-9.68,4a43.9,43.9,0,0,1-2.91-12.12,26.8,26.8,0,0,0,8.57-1.61Zm15.95,32.4-4-9.55a24.46,24.46,0,0,1,7.77-1.44c0,5.2-1.32,9.22-3.82,11ZM37.33,44l4,9.55c-2.56.46-5.67-.79-8.92-3.6q-.79-.68-1.56-1.46A24.47,24.47,0,0,1,37.33,44ZM55.19,20.18l-9.68,4a46.15,46.15,0,0,0-7-11.42,26.76,26.76,0,0,0,3.46-5,24.41,24.41,0,0,1,13.26,12.4ZM39.67,7a24.4,24.4,0,0,1-2.8,4q-.8-.81-1.63-1.53a20.08,20.08,0,0,0-4.92-3.23A24.29,24.29,0,0,1,33,6.12,24.6,24.6,0,0,1,39.67,7ZM17.75,11.47a20.07,20.07,0,0,0-1.19,5.77c-.05.73-.07,1.48-.07,2.24a24.51,24.51,0,0,1-4.8-.85,24.23,24.23,0,0,1,6.07-7.16Zm-7.33,9.77.21-.49a26.8,26.8,0,0,0,6,1.07,46.16,46.16,0,0,0,3.1,13.06L10,38.9a24.31,24.31,0,0,1,.42-17.65ZM10.89,41l9.68-4a46.13,46.13,0,0,0,7,11.42,26.78,26.78,0,0,0-3.46,5A24.41,24.41,0,0,1,10.89,41ZM26.4,54.19a24.49,24.49,0,0,1,2.8-4q.8.81,1.63,1.53A20,20,0,0,0,35.76,55a24.32,24.32,0,0,1-2.71.15,24.6,24.6,0,0,1-6.64-.91Zm21.92-4.45a16.55,16.55,0,0,0,.61-2,24.56,24.56,0,0,0,.65-6,24.44,24.44,0,0,1,4.79.85,24.44,24.44,0,0,1-6.06,7.15Zm0,0"/></g></g></svg>