<?xml version="1.0" encoding="utf-8"?>
<!-- Generator: Adobe Illustrator 23.0.1, SVG Export Plug-In . SVG Version: 6.00 Build 0)  -->
<svg version="1.1" id="Layer_1" xmlns="http://www.w3.org/2000/svg" xmlns:xlink="http://www.w3.org/1999/xlink" x="0px" y="0px"
	 viewBox="0 0 581.1 730.9" style="enable-background:new 0 0 581.1 730.9;" xml:space="preserve">
<style type="text/css">
	.st0{fill:#F58220;}
</style>
<g>
	<path class="st0" d="M89.4,382.9c0.1-26.6,0.1-39.8,0.2-66.4c0-12.8-3.2-17.8-15-17.3c-5.4,0.2-8,0.3-13.4,0.6
		C61.1,335.2,61,370.6,61,406c5.3-1,8-1.5,13.3-2.5C86.1,401.3,89.3,395.7,89.4,382.9z"/>
	<path class="st0" d="M189.1,295.4c-6.7,0.1-10,0.2-16.7,0.3c-0.1,16.4-0.1,24.6-0.2,41c6.7-0.3,10-0.5,16.7-0.8
		c8.1-0.4,12.1-3.8,12.1-11.8c0-7,0-10.5,0.1-17.5C201.1,298.4,197.2,295.2,189.1,295.4z"/>
	<path class="st0" d="M359.4,412.9c7.4,0.4,11.2,0.7,18.6,1.3c-0.1-43.3-0.3-86.7-0.4-130c12.2,0.1,18.3,0.2,30.5,0.3
		c0-6.2,0-9.3-0.1-15.6c-26.5,0-53,0-79.6,0c0,6,0,9,0,15c12.3,0.1,18.5,0.1,30.7,0.2C359.2,327,359.3,370,359.4,412.9z"/>
	<path class="st0" d="M552.2,444.8c0-58.6,0-117.2,0-175.8c-7.4,0-11.1,0-18.5,0c0.1,57,0.2,114,0.2,171
		C541.2,441.8,544.9,442.8,552.2,444.8z"/>
	<path class="st0" d="M444.6,421.9c-0.1-25.1-0.2-37.6-0.3-62.7c9.3,0.8,13.9,1.3,23.1,2.2c10.8,26.8,16.2,40.6,27,69.4
		c7.9,1.6,11.9,2.5,19.8,4.3c-11.5-31-17.3-45.8-29-74.4c14.5-3.6,21.8-15.4,21.8-33.7c0-7.5,0-11.3-0.1-18.8
		c-0.1-25.7-10.3-39.3-36.2-39.3c-18.1,0-27.2,0-45.3,0c0.2,50.1,0.4,100.2,0.6,150.3C433.5,420.3,437.2,420.8,444.6,421.9z
		 M469.4,285.5c13.6,0.3,19,6.2,19,21.6c0,7.3,0,11,0.1,18.3c0.1,15.2-5.7,20.9-19.8,19.7c-9.8-0.9-14.7-1.2-24.5-2
		c-0.1-23.2-0.2-34.9-0.3-58.1C454.2,285.2,459.3,285.3,469.4,285.5z"/>
	<path class="st0" d="M546.1,246.2V135.7L289.1,0l-257,135.7v110.5H0V482c10.3-3.6,21-6.9,32.1-10.1v123.4l257,135.7l257-135.7
		V471.1c12.1,3.4,23.9,7,35,10.9V246.2H546.1z M67.1,150.2h0.1L289.1,33L511,150.2v96h-8.8v-85.8L289.1,47.8L75.9,160.4v85.8h-8.8
		V150.2z M239.6,412c-14.5,0.6-21.8,1-36.3,2.2c-8.3-20.4-12.4-30.7-20.7-51.6c-4.2,0.3-6.3,0.4-10.4,0.7
		c-0.1,21.5-0.1,32.3-0.2,53.9c-13,1.5-19.5,2.3-32.4,4.2c0.2-50.8,0.4-101.7,0.7-152.5c20.7,0,31.1,0,51.8,0
		c29.4,0,41.6,11.2,41.6,36.6c0,7.2,0,10.8,0,18.1c0,14-6.5,25.7-19.3,32.5C224.3,378.6,229.4,389.8,239.6,412z M254,411.6
		c0.1-47.5,0.1-95.1,0.2-142.6c13,0,19.4,0,32.4,0c0,47.5,0,94.9,0.1,142.4C273.6,411.2,267.1,411.3,254,411.6z M28.9,444.8
		c0-58.6,0-117.2,0-175.8c19.6,0,29.4,0,49,0c30.8,0,44.1,14,44,47.1c-0.1,24.4-0.2,36.7-0.3,61.1c-0.1,33.1-13.6,49-44.2,55.6
		C58,437.1,48.3,439.5,28.9,444.8z M511.2,576.8H511L289.1,693.9L67.2,576.8V462.9c2.9-0.7,5.8-1.3,8.8-2v105.9l213.2,112.5
		l213.2-112.5V460.2c3,0.6,5.8,1.3,8.8,2V576.8z M567.3,463c-73.5-22.8-163-35.9-256.3-37.6V260h256.3V463z"/>
</g>
</svg>
