<?xml version="1.0" encoding="utf-8"?>
<!-- Generator: Adobe Illustrator 23.0.1, SVG Export Plug-In . SVG Version: 6.00 Build 0)  -->
<svg version="1.1" id="Layer_1" xmlns="http://www.w3.org/2000/svg" xmlns:xlink="http://www.w3.org/1999/xlink" x="0px" y="0px"
	 viewBox="0 0 581.1 730.9" style="enable-background:new 0 0 581.1 730.9;" xml:space="preserve">
<style type="text/css">
	.st0{fill:none;}
	.st1{fill:#4a4a4a;}.st1{opacity:0.4;}
	.st2{opacity:0.17;fill:#4a4a4a;}
</style>
<g>
	<path class="st0" d="M254.2,269c-0.1,47.5-0.1,95.1-0.2,142.6c13.1-0.3,19.6-0.4,32.7-0.2c-0.1-47.5-0.1-94.9-0.1-142.4
		C273.6,269,267.2,269,254.2,269z"/>
	<path class="st0" d="M311,425.4c93.3,1.7,182.8,14.8,256.3,37.6V260H311V425.4z M552.2,269c0,58.6,0,117.2,0,175.8
		c-7.3-2-11-3-18.3-4.8c0-57-0.1-114-0.2-171C541.1,269,544.8,269,552.2,269z M470.7,268.9c25.9,0,36.1,13.6,36.2,39.3
		c0.1,7.5,0.1,11.3,0.1,18.8c0,18.3-7.3,30.1-21.8,33.7c11.7,28.6,17.5,43.4,29,74.4c-7.9-1.8-11.9-2.7-19.8-4.3
		c-10.8-28.8-16.2-42.6-27-69.4c-9.2-0.9-13.8-1.4-23.1-2.2c0.1,25.1,0.2,37.6,0.3,62.7c-7.4-1.1-11.1-1.6-18.6-2.7
		c-0.2-50.1-0.4-100.2-0.6-150.3C443.5,268.9,452.6,268.9,470.7,268.9z M328.4,268.9c26.6,0,53.1,0,79.6,0c0.1,6.3,0.1,9.4,0.1,15.6
		c-12.2-0.1-18.3-0.2-30.5-0.3c0.1,43.3,0.3,86.7,0.4,130c-7.4-0.6-11.2-0.9-18.6-1.3c-0.1-42.9-0.2-85.9-0.3-128.8
		c-12.2-0.1-18.4-0.1-30.7-0.2C328.4,277.9,328.4,274.9,328.4,268.9z"/>
	<path class="st0" d="M233.7,323.6c0-7.3,0-10.9,0-18.1c0-25.4-12.2-36.6-41.6-36.6c-20.7,0-31.1,0-51.8,0
		c-0.3,50.8-0.5,101.7-0.7,152.5c12.9-1.9,19.4-2.7,32.4-4.2c0.1-21.6,0.1-32.4,0.2-53.9c4.1-0.3,6.2-0.4,10.4-0.7
		c8.3,20.9,12.4,31.2,20.7,51.6c14.5-1.2,21.8-1.6,36.3-2.2c-10.2-22.2-15.3-33.4-25.2-55.9C227.2,349.3,233.7,337.6,233.7,323.6z
		 M201,324.1c0,8-4,11.4-12.1,11.8c-6.7,0.3-10,0.5-16.7,0.8c0.1-16.4,0.1-24.6,0.2-41c6.7-0.1,10-0.2,16.7-0.3
		c8.1-0.2,12,3,12,11.2C201,313.6,201,317.1,201,324.1z"/>
	<path class="st0" d="M76,460.9c-3,0.7-5.9,1.3-8.8,2v0.9c2.9-0.7,5.8-1.3,8.8-2V460.9z"/>
	<path class="st0" d="M502.4,460.2v1c3,0.6,5.9,1.3,8.8,2v-0.9C508.2,461.5,505.4,460.8,502.4,460.2z"/>
	<path class="st0" d="M468.7,345.1c14.1,1.2,19.9-4.5,19.8-19.7c-0.1-7.3-0.1-11-0.1-18.3c0-15.4-5.4-21.3-19-21.6
		c-10.1-0.2-15.2-0.3-25.5-0.5c0.1,23.2,0.2,34.9,0.3,58.1C454,343.9,458.9,344.2,468.7,345.1z"/>
	<path class="st0" d="M121.6,377.2c0.1-24.4,0.2-36.7,0.3-61.1c0.1-33.1-13.2-47.1-44-47.1c-19.6,0-29.4,0-49,0
		c0,58.6,0,117.2,0,175.8c19.4-5.3,29.1-7.7,48.5-12C108,426.2,121.5,410.3,121.6,377.2z M61,406c0-35.4,0.1-70.8,0.2-106.2
		c5.4-0.3,8-0.4,13.4-0.6c11.8-0.5,15,4.5,15,17.3c-0.1,26.6-0.1,39.8-0.2,66.4c-0.1,12.8-3.3,18.4-15.1,20.6
		C69,404.5,66.3,405,61,406z"/>
	<path class="st1" d="M89.4,382.9c0.1-26.6,0.1-39.8,0.2-66.4c0-12.8-3.2-17.8-15-17.3c-5.4,0.2-8,0.3-13.4,0.6
		C61.1,335.2,61,370.6,61,406c5.3-1,8-1.5,13.3-2.5C86.1,401.3,89.3,395.7,89.4,382.9z"/>
	<path class="st1" d="M189.1,295.4c-6.7,0.1-10,0.2-16.7,0.3c-0.1,16.4-0.1,24.6-0.2,41c6.7-0.3,10-0.5,16.7-0.8
		c8.1-0.4,12.1-3.8,12.1-11.8c0-7,0-10.5,0.1-17.5C201.1,298.4,197.2,295.2,189.1,295.4z"/>
	<path class="st1" d="M359.4,412.9c7.4,0.4,11.2,0.7,18.6,1.3c-0.1-43.3-0.3-86.7-0.4-130c12.2,0.1,18.3,0.2,30.5,0.3
		c0-6.2,0-9.3-0.1-15.6c-26.5,0-53,0-79.6,0c0,6,0,9,0,15c12.3,0.1,18.5,0.1,30.7,0.2C359.2,327,359.3,370,359.4,412.9z"/>
	<path class="st1" d="M552.2,444.8c0-58.6,0-117.2,0-175.8c-7.4,0-11.1,0-18.5,0c0.1,57,0.2,114,0.2,171
		C541.2,441.8,544.9,442.8,552.2,444.8z"/>
	<path class="st1" d="M444.6,421.9c-0.1-25.1-0.2-37.6-0.3-62.7c9.3,0.8,13.9,1.3,23.1,2.2c10.8,26.8,16.2,40.6,27,69.4
		c7.9,1.6,11.9,2.5,19.8,4.3c-11.5-31-17.3-45.8-29-74.4c14.5-3.6,21.8-15.4,21.8-33.7c0-7.5,0-11.3-0.1-18.8
		c-0.1-25.7-10.3-39.3-36.2-39.3c-18.1,0-27.2,0-45.3,0c0.2,50.1,0.4,100.2,0.6,150.3C433.5,420.3,437.2,420.8,444.6,421.9z
		 M469.4,285.5c13.6,0.3,19,6.2,19,21.6c0,7.3,0,11,0.1,18.3c0.1,15.2-5.7,20.9-19.8,19.7c-9.8-0.9-14.7-1.2-24.5-2
		c-0.1-23.2-0.2-34.9-0.3-58.1C454.2,285.2,459.3,285.3,469.4,285.5z"/>
	<path class="st1" d="M546.1,246.2V135.7L289.1,0l-257,135.7v110.5H0V482c10.3-3.6,21-6.9,32.1-10.1v1.1c11.2-3.3,22.9-6.4,35.1-9.2
		l8.8-2c61.9-13.7,135.5-21.6,214.5-21.6c77.9,0,150.5,7.7,211.9,21l8.8,2c12.1,2.8,23.8,5.8,34.9,9v-1c12.1,3.4,23.9,7,35,10.9
		V246.2H546.1z M121.6,377.2c-0.1,33.1-13.6,49-44.2,55.6c-19.4,4.3-29.1,6.7-48.5,12c0-58.6,0-117.2,0-175.8c19.6,0,29.4,0,49,0
		c30.8,0,44.1,14,44,47.1C121.8,340.5,121.7,352.8,121.6,377.2z M203.3,414.2c-8.3-20.4-12.4-30.7-20.7-51.6
		c-4.2,0.3-6.3,0.4-10.4,0.7c-0.1,21.5-0.1,32.3-0.2,53.9c-13,1.5-19.5,2.3-32.4,4.2c0.2-50.8,0.4-101.7,0.7-152.5
		c20.7,0,31.1,0,51.8,0c29.4,0,41.6,11.2,41.6,36.6c0,7.2,0,10.8,0,18.1c0,14-6.5,25.7-19.3,32.5c9.9,22.5,15,33.7,25.2,55.9
		C225.1,412.6,217.8,413,203.3,414.2z M254,411.6c0.1-47.5,0.1-95.1,0.2-142.6c13,0,19.4,0,32.4,0c0,47.5,0,94.9,0.1,142.4
		C273.6,411.2,267.1,411.3,254,411.6z M75.9,246.2h-8.8v-96h0.1L289.1,33L511,150.2v96h-8.8H75.9z M567.3,463
		c-73.5-22.8-163-35.9-256.3-37.6V260h256.3V463z"/>
	<path class="st1" d="M289.1,731l257-135.7V472.1c-11.1-3.2-22.8-6.2-34.9-9v113.7H511L289.1,693.9L67.2,576.8v-113
		c-12.2,2.9-23.9,5.9-35.1,9.2v122.3L289.1,731z"/>
	<path class="st2" d="M289.1,731l257-135.7V472.1c-11.1-3.2-22.8-6.2-34.9-9v113.7H511L289.1,693.9L67.2,576.8v-113
		c-12.2,2.9-23.9,5.9-35.1,9.2v122.3L289.1,731z"/>
</g>
</svg>
