<?xml version="1.0" encoding="utf-8"?>
<!-- Generator: Adobe Illustrator 23.0.1, SVG Export Plug-In . SVG Version: 6.00 Build 0)  -->
<svg version="1.1" id="Layer_1" xmlns="http://www.w3.org/2000/svg" xmlns:xlink="http://www.w3.org/1999/xlink" x="0px" y="0px"
	 viewBox="0 0 550.2 577.3" style="enable-background:new 0 0 550.2 577.3;" xml:space="preserve">
<style type="text/css">
	.st0{fill:#F58220;}
	.st1{fill:none;}
</style>
<g>
	<path class="st0" d="M522.8,380.1c0-55.5,0-111,0-166.4c-7,0-10.5,0-17.5,0c0.1,54,0.2,107.9,0.2,161.9
		C512.4,377.3,515.9,378.2,522.8,380.1z"/>
	<path class="st1" d="M240.7,213.7c-0.1,45-0.1,90-0.2,135c12.4-0.3,18.6-0.4,31-0.2c-0.1-45-0.1-89.9-0.1-134.8
		C259,213.7,253,213.7,240.7,213.7z"/>
	<path class="st1" d="M294.5,361.7c88.3,1.6,173.1,14,242.7,35.6V205.1H294.5V361.7z M522.8,213.7c0,55.5,0,111,0,166.4
		c-6.9-1.9-10.4-2.8-17.3-4.5c0-54-0.1-107.9-0.2-161.9C512.3,213.7,515.8,213.7,522.8,213.7z M445.7,213.6
		c24.5,0,34.2,12.9,34.3,37.2c0.1,7.1,0.1,10.7,0.1,17.8c0,17.3-6.9,28.5-20.6,31.9c11.1,27.1,16.6,41.1,27.5,70.4
		c-7.5-1.7-11.3-2.6-18.7-4.1c-10.2-27.3-15.3-40.3-25.6-65.7c-8.7-0.9-13.1-1.3-21.9-2.1c0.1,23.8,0.2,35.6,0.3,59.4
		c-7-1-10.5-1.5-17.6-2.6c-0.2-47.4-0.4-94.9-0.6-142.3C419.9,213.6,428.5,213.6,445.7,213.6z M310.9,213.6c25.2,0,50.3,0,75.4,0
		c0.1,6,0.1,8.9,0.1,14.8c-11.6-0.1-17.3-0.2-28.9-0.3c0.1,41,0.3,82.1,0.4,123.1c-7-0.6-10.6-0.9-17.6-1.2
		c-0.1-40.6-0.2-81.3-0.3-121.9c-11.6-0.1-17.4-0.1-29.1-0.2C310.9,222.1,310.9,219.2,310.9,213.6z"/>
	<path class="st1" d="M221.3,265.3c0-6.9,0-10.3,0-17.1c0-24-11.6-34.7-39.4-34.7c-19.6,0-29.4,0-49,0c-0.3,48.1-0.5,96.3-0.7,144.4
		c12.2-1.8,18.4-2.6,30.7-4c0.1-20.5,0.1-30.7,0.2-51c3.9-0.3,5.9-0.4,9.8-0.7c7.9,19.8,11.7,29.5,19.6,48.9
		c13.7-1.1,20.6-1.5,34.4-2.1c-9.7-21-14.5-31.6-23.9-52.9C215.1,289.7,221.3,278.6,221.3,265.3z M190.3,265.8
		c0,7.6-3.8,10.8-11.5,11.2c-6.3,0.3-9.5,0.5-15.8,0.8c0.1-15.5,0.1-23.3,0.2-38.8c6.3-0.1,9.5-0.2,15.8-0.3
		c7.7-0.2,11.4,2.8,11.4,10.6C190.3,255.9,190.3,259.2,190.3,265.8z"/>
	<path class="st1" d="M72,396.2"/>
	<path class="st1" d="M475.7,394.7v0.9c2.8,0.6,5.6,1.2,8.3,1.9v-0.9C481.2,395.9,478.5,395.2,475.7,394.7z"/>
	<path class="st1" d="M443.8,285.7c13.3,1.1,18.8-4.3,18.7-18.7c-0.1-6.9-0.1-10.4-0.1-17.3c0-14.6-5.1-20.2-18-20.5
		c-9.6-0.2-14.4-0.3-24.1-0.5c0.1,22,0.2,33,0.3,55C429.8,284.6,434.5,284.9,443.8,285.7z"/>
	<path class="st1" d="M115.1,316.1c0.1-23.1,0.2-34.7,0.3-57.8c0.1-31.3-12.5-44.6-41.7-44.6c-18.6,0-27.8,0-46.4,0
		c0,55.5,0,111,0,166.4c18.4-5,27.6-7.3,45.9-11.4C102.3,362.5,115,347.4,115.1,316.1z M57.8,343.4c0-33.5,0.1-67,0.2-100.5
		c5.1-0.3,7.6-0.4,12.7-0.6c11.2-0.5,14.2,4.3,14.2,16.4c-0.1,25.2-0.1,37.7-0.2,62.9c-0.1,12.1-3.1,17.4-14.3,19.5
		C65.3,341.9,62.8,342.4,57.8,343.4z"/>
	<path class="st0" d="M84.6,321.5c0.1-25.2,0.1-37.7,0.2-62.9c0-12.1-3-16.9-14.2-16.4c-5.1,0.2-7.6,0.3-12.7,0.6
		c-0.1,33.5-0.2,67-0.2,100.5c5-0.9,7.6-1.4,12.6-2.4C81.5,338.9,84.5,333.6,84.6,321.5z"/>
	<path class="st0" d="M179,238.6c-6.3,0.1-9.5,0.2-15.8,0.3c-0.1,15.5-0.1,23.3-0.2,38.8c6.3-0.3,9.5-0.5,15.8-0.8
		c7.7-0.4,11.5-3.6,11.5-11.2c0-6.6,0-9.9,0.1-16.6C190.4,241.5,186.7,238.5,179,238.6z"/>
	<path class="st0" d="M340.3,349.9c7,0.4,10.6,0.7,17.6,1.2c-0.1-41-0.3-82.1-0.4-123.1c11.6,0.1,17.3,0.2,28.9,0.3
		c0-5.9,0-8.8-0.1-14.8c-25.1,0-50.2,0-75.4,0c0,5.7,0,8.5,0,14.2c11.6,0.1,17.5,0.1,29.1,0.2C340.1,268.6,340.2,309.3,340.3,349.9z
		"/>
	<path class="st0" d="M420.9,358.4c-0.1-23.8-0.2-35.6-0.3-59.4c8.8,0.8,13.2,1.2,21.9,2.1c10.2,25.4,15.3,38.4,25.6,65.7
		c7.5,1.5,11.3,2.4,18.7,4.1c-10.9-29.4-16.4-43.4-27.5-70.4c13.7-3.4,20.6-14.6,20.6-31.9c0-7.1,0-10.7-0.1-17.8
		c-0.1-24.3-9.8-37.2-34.3-37.2c-17.1,0-25.8,0-42.9,0c0.2,47.4,0.4,94.9,0.6,142.3C410.4,356.9,413.9,357.4,420.9,358.4z
		 M444.4,229.3c12.9,0.3,18,5.9,18,20.5c0,6.9,0,10.4,0.1,17.3c0.1,14.4-5.4,19.8-18.7,18.7c-9.3-0.9-13.9-1.1-23.2-1.9
		c-0.1-22-0.2-33-0.3-55C430,229,434.9,229.1,444.4,229.3z"/>
	<path class="st0" d="M517,192.1H497V75.3L385.2,0L274.6,74.6v0L163.9,0L53.2,74.6v117.5H30.4H0v223.3c9.8-3.4,22.5-6.4,30.4-8.5
		c7.4-2.2,15-4.2,22.8-6.2V502L165,577.3l110.7-74.6v0l110.7,74.6L497,502.7V400.3c6.9,1.4,13.6,2.9,20.1,4.7
		c11.5,3.2,22.6,6.6,33.1,10.3V192.1H517z M115.1,316.1c-0.1,31.3-12.9,46.4-41.8,52.6c-18.4,4.1-27.6,6.3-45.9,11.4
		c0-55.5,0-111,0-166.4c18.6,0,27.8,0,46.4,0c29.2,0,41.8,13.3,41.7,44.6C115.3,281.4,115.2,293,115.1,316.1z M192.5,351.1
		c-7.9-19.3-11.7-29.1-19.6-48.9c-4,0.3-6,0.4-9.8,0.7c-0.1,20.4-0.1,30.6-0.2,51c-12.3,1.4-18.5,2.2-30.7,4
		c0.2-48.1,0.4-96.3,0.7-144.4c19.6,0,29.4,0,49,0c27.8,0,39.4,10.6,39.4,34.7c0,6.8,0,10.2,0,17.1c0,13.3-6.2,24.3-18.3,30.8
		c9.4,21.3,14.2,31.9,23.9,52.9C213.1,349.6,206.2,350,192.5,351.1z M240.5,348.7c0.1-45,0.1-90,0.2-135c12.3,0,18.4,0,30.7,0
		c0,45,0,89.9,0.1,134.8C259,348.3,252.9,348.4,240.5,348.7z M537.1,397.3c-69.6-21.6-154.3-34-242.7-35.6V205.1h242.7V397.3z"/>
</g>
</svg>
