<?xml version="1.0" encoding="utf-8"?>
<!-- Generator: Adobe Illustrator 23.0.1, SVG Export Plug-In . SVG Version: 6.00 Build 0)  -->
<svg version="1.1" id="Layer_1" xmlns="http://www.w3.org/2000/svg" xmlns:xlink="http://www.w3.org/1999/xlink" x="0px" y="0px"
	 viewBox="0 0 220.03 97.75" style="enable-background:new 0 0 220.03 97.75;" xml:space="preserve">
<style type="text/css">
	.st0{fill:#434b51;}
	.st1{fill:none;}
</style>
<path class="st0" d="M108.12,13.24c37.3,45.86,74.61-45.87,111.91,0v15.92c-37.3-45.87-74.61,45.87-111.91,0V13.24z M108.12,40.91
	c37.3,45.86,74.61-45.87,111.91,0v15.92c-37.3-45.87-74.61,45.87-111.91,0V40.91z M108.12,68.58c37.3,45.86,74.61-45.87,111.91,0
	v15.93c-37.3-45.87-74.61,45.86-111.91,0V68.58z"/>
<rect x="-685.88" y="-181.69" class="st1" width="527.91" height="461.11"/>
<g>
	<path class="st0" d="M0,32.91c0-16.64,7.7-23.1,23.89-23.1c6.45,0,12.79,0.91,17.89,2.72l-1.7,10.87
		c-4.08-1.25-9.17-2.26-14.95-2.26c-8.94,0-12.23,3.06-12.23,12.11v33.4c0,6.68,2.38,10.3,10.42,10.3c1.92,0,4.64-0.11,6.34-0.57
		V50.46h12.11V85.1c-3.85,1.47-12.68,2.83-19.7,2.83C6,87.93,0,80.46,0,66.54V32.91z"/>
	<path class="st0" d="M51.17,32.34c0-13.02,5.77-22.53,22.19-22.53c16.42,0,22.08,9.51,22.08,22.53V65.4
		c0,13.02-5.66,22.53-22.08,22.53c-16.42,0-22.19-9.51-22.19-22.53V32.34z M64.08,66.65c0,6.57,2.49,10.19,9.28,10.19
		c6.79,0,9.17-3.62,9.17-10.19V31.21c0-6.68-2.26-10.3-9.17-10.3c-6.91,0-9.28,3.62-9.28,10.3V66.65z"/>
</g>
</svg>
