<?xml version="1.0" encoding="utf-8"?>
<!-- Generator: Adobe Illustrator 21.1.0, SVG Export Plug-In . SVG Version: 6.00 Build 0)  -->
<svg version="1.1" id="Layer_1" xmlns="http://www.w3.org/2000/svg" xmlns:xlink="http://www.w3.org/1999/xlink" x="0px" y="0px"
	 viewBox="0 0 300 317.3" style="enable-background:new 0 0 300 317.3;" xml:space="preserve">
<style type="text/css">
	.st0{fill:#F58220;}
</style>
<g>
	<g>
		<path class="st0" d="M207.2,123.3c0.3-0.3,0.6-0.6,0.9-0.9l0.6-0.9c-2,0.6-4.3,0.9-6.3,0.9C203.5,123.9,205.5,124.2,207.2,123.3
			L207.2,123.3z"/>
		<circle class="st0" cx="174.5" cy="64.7" r="16.5"/>
		<path class="st0" d="M161.2,85.2c-1.4-2.8-4.8-4.3-7.7-2.8c-2.8,1.4-4.3,4.8-2.8,7.7c3.7,7.1,8.5,13.4,14.5,18.8
			c10,9.4,23.6,13.9,37.5,12.8c2.8-0.3,5.4-0.9,8-1.4c3.1-0.9,4.8-4,4.3-7.1c-0.9-3.1-4-4.8-7.1-4.3
			C176.5,117.1,161.7,86.6,161.2,85.2z"/>
		<path class="st0" d="M148.6,138.7c9.7,3.4,16.5,11.9,17.3,22.2c0.6,4.8,1.7,13.9,8.8,13.4c3.7,0,7.1-2,8.8-5.4
			c0,0,3.4-6.3-5.1-26.2c-8.5-19.9-31.9-23.9-31.9-23.9s7.4-9.4,11.9-15.1c-3.7-4-6.5-8.5-9.1-13.4c-1.7-3.4-0.3-7.7,3.1-9.1
			c3.4-1.7,7.7-0.3,9.1,3.1c2.3,4.6,5.1,8.5,8.5,12.2c-2-5.7-3.4-12.8-10.2-17.6c-8.2-6.3-20.2,3.7-20.2,3.7s-18.8,18.2-21.9,35.3
			C114.8,135,135,134.1,148.6,138.7z"/>
		<path class="st0" d="M163.7,110l-2.3-2c10.8,21.3,34.4,19.3,38.7,15.4h-2.8C184.8,123,172.8,118.5,163.7,110z"/>
		<path class="st0" d="M107.7,159.2c-15.4,0-27.9,12.5-27.9,27.9s12.5,27.9,27.9,27.9s27.9-12.5,27.9-27.9l0,0
			C135.6,171.7,123.1,159.2,107.7,159.2z M107.7,203.2c-8.8,0-16.2-7.1-16.2-16.2c0-8.8,7.1-16.2,16.2-16.2
			c8.8,0,16.2,7.1,16.2,16.2S116.8,203.2,107.7,203.2L107.7,203.2z"/>
		<path class="st0" d="M144.7,191.9c0-6,2-11.9,5.7-16.5l-1.7-2.3c-2.8,0-5.4,0.3-8.2,0.6c-7.4-18.2-28.2-26.7-46.4-19.3
			c-17.9,7.4-26.7,28.2-19.3,46.1c3.1,7.4,8.5,13.4,15.4,17.3l-5.7,10.8H75c-2.6,0.3-4.6,2.3-4.6,4.6c0,2.3,2,4.6,4.6,4.6h26.2
			c2.6,0,4.6-2,4.6-4.6c0-2.6-2-4.6-4.6-4.6h-6.5l4-7.4c11.7,3.4,24.2,0.3,33-8c7.7,0.9,15.4,0.6,23.3-0.3
			C148.4,207.8,144.7,200.1,144.7,191.9z M78.7,187c0-15.9,13.1-29,29-29s29,13.1,29,29s-13.1,29-29,29l0,0
			C91.8,216.3,78.7,203.2,78.7,187z"/>
		<path class="st0" d="M228.6,109.4L228.6,109.4c-0.6-0.6-1.4-0.9-2.3-0.9l-6.3-3.4l1.1-1.7c1.1-1.7,0.9-3.7-0.9-4.8
			c-1.7-1.1-3.7-0.9-4.8,0.9l0,0l-6,8.5c2.6,0,4.8,1.7,5.7,4l1.7-2.6l4.3,2.3l-35.3,47.8c0.9,3.4,0.9,6.8,0,10.2
			c-0.3,0.3-0.3,0.6-0.6,1.1l0,0c-1.4,2.3-3.7,4-6.3,4.8c-0.3,0-0.6,0.3-0.9,0.3l0,0c-0.9,0.3-2,0.6-2.8,0.6h-0.9
			c-5.7,0-8-4.6-9.1-9.1c-0.9,0.3-1.4,0.6-2.3,0.9c0.3-1.7,0.6-3.4,0.6-4.8c0-0.6,0-1.4,0-2.3c-0.9-9.1-7.1-16.8-15.6-19.6
			c-3.4-1.1-6.5-2-10-2.6c-6.3-0.9-12.2-3.1-17.6-6.5H112c-2.3,0-4.3,2-4.3,4.3s2,4.3,4.3,4.3h9.7c0.3,0.3,0.3,0.9,0.6,1.1
			l29.3,32.7c2-2.3,4.3-4.3,6.8-5.7L133,140.7h4.3c0.9,0.9,1.7,1.4,2.6,2.3c4.3,4,7.7,9.1,9.4,14.8l10.2,11.7
			c-12.5,6.3-17.3,21.6-11.1,34.1c6.3,12.5,21.6,17.3,34.1,11.1c1.7-0.9,3.1-1.7,4.6-2.8l10.8,17.1h-7.1c-2.6,0-4.6,2-4.6,4.6
			c0,2.6,2,4.6,4.6,4.6l0,0h26.2c2.6,0,4.6-2,4.6-4.6c0-2.6-2-4.6-4.6-4.6h-8.5l-15.6-24.5c6-10.5,3.7-23.9-5.7-31.9l42.1-56.9
			C231.1,113.7,230.5,110.8,228.6,109.4z M170.8,200.1c-4.6,0-8-3.7-8-8s3.7-8,8-8h0.6l-1.1,6.8l0,0c0,0.9,0.6,1.4,1.4,1.4
			c0.6,0,1.1-0.3,1.4-0.9l1.1-6.5c4,2,5.7,6.5,4,10.8C176.8,198.1,174,199.8,170.8,200.1L170.8,200.1z"/>
	</g>
	<g>
		<path class="st0" d="M180.8,280.3c-0.4,0.3-0.7,0.6-1.1,0.9c-5.6,4.5-11.2,8.9-16.9,13.3c-0.2,0.2-0.2,0.3-0.1,0.5
			c2.2,7.5,4.3,14.9,6.5,22.4c0,0.1,0,0.1,0.1,0.2c-0.1-0.1-0.2-0.1-0.2-0.1c-6.1-4.5-12.2-8.9-18.3-13.4c-0.2-0.2-0.4-0.2-0.6,0
			c-6,4.4-12.1,8.8-18.1,13.2c-0.1,0.1-0.2,0.1-0.3,0.2c0-0.2,0.1-0.3,0.1-0.4c1.9-6.5,3.7-13,5.6-19.5c0.3-0.9,0.5-1.8,0.8-2.7
			c0.1-0.3,0-0.4-0.2-0.6c-3.5-2.8-7-5.6-10.5-8.4c-2.4-1.9-4.8-3.8-7.2-5.8c-0.1-0.1-0.2-0.1-0.2-0.2c0,0,0-0.1,0-0.1
			c0.7,0,1.3,0,2,0c4.4-0.1,8.9-0.1,13.3-0.2c2.4,0,4.8-0.1,7.2-0.1c0.2,0,0.3-0.1,0.4-0.3c2.4-7.3,4.8-14.6,7.3-22
			c0-0.1,0.1-0.2,0.1-0.4c0.3,0.9,0.6,1.8,0.9,2.6c2.2,6.6,4.4,13.2,6.6,19.8c0.1,0.2,0.2,0.3,0.4,0.3c3,0.1,6,0.1,8.9,0.2
			c3.8,0.1,7.6,0.2,11.3,0.3c0.7,0,1.5,0,2.2,0C180.8,280.2,180.8,280.2,180.8,280.3z"/>
	</g>
	<path class="st0" d="M150.4,0.3c-82.8,0-150,67.2-150,150c0,65.6,42.2,121.2,100.8,141.6c0.1-6.7,1.6-13.2,4.1-19
		c-49.9-18.4-85.7-66.3-85.7-122.6c0-72.1,58.7-130.8,130.8-130.8c72.1,0,130.8,58.7,130.8,130.8c0,56.3-35.8,104.2-85.7,122.6
		c2.6,5.8,4,12.2,4.1,19c58.7-20.4,100.8-76,100.8-141.6C300.4,67.5,233.2,0.3,150.4,0.3z"/>
</g>
</svg>
