<?xml version="1.0" encoding="utf-8"?>
<!-- Generator: Adobe Illustrator 21.1.0, SVG Export Plug-In . SVG Version: 6.00 Build 0)  -->
<svg version="1.1" id="Layer_1" xmlns="http://www.w3.org/2000/svg" xmlns:xlink="http://www.w3.org/1999/xlink" x="0px" y="0px"
	 viewBox="0 0 300 317.3" style="enable-background:new 0 0 300 317.3;" xml:space="preserve">
<style type="text/css">
	.st0{fill:#F58220;}
</style>
<g>
	<g>
		<path class="st0" d="M231.1,232.3c-0.5-1.5-1.6-2.7-3.1-3.1v-0.3h-8.1l-6.9-13c4.2-3.1,6.7-8,6.7-13.2v-1.2
			c4.8-3.3,5.1-5.3,7.7-15.6c1.7-6.5,2.2-13.3,1.6-20c-1.5,6.1-4,11.9-7.2,17.2l-1.1,1.8c-0.8,3.2-1.9,6.3-3.4,9.3
			c-0.4-0.6-0.8-1.2-1.2-1.8c-0.8,1.2-1.7,2.2-2.8,3.2c3.9,5.6,2.6,13.3-3,17.3c-5.6,3.9-13.3,2.6-17.3-3c-2.9-4.1-3-9.6-0.3-13.9
			c-6.4-0.9-48.8-7.9-71.1-11.6c4.6,11-0.7,23.7-11.7,28.3c-11,4.6-23.7-0.7-28.3-11.7c-4.6-11,0.7-23.7,11.7-28.3l0.7-0.3
			c1.1-5,6.1-8.2,11.1-7c2.1,0.5,4,1.6,5.3,3.3L207,186c-6.7-2.9-13.5-5.5-20.4-7.7c0.6-0.5,1.1-1,1.5-1.6
			c6.6-9.1,9.3-20.5,7.5-31.6c-2.8-19.7-24-21.5-24-21.5s0.7-5.5,1.6-12.2c3.7,2.8,8.1,4.4,12.7,4.4c3.6-0.1,7-0.9,10.2-2.5
			c6,12.1,13.9,20,21.4,36.4c1,2.1,1.8,4.3,2.6,6.6c0.4-3.8,0.4-7.6,0-11.4c-0.4-3.1-0.9-6-1.5-8.7c-4.8-8-10-14.4-13.1-19.7
			c-0.7-1.2-1.4-2.4-2-3.6h-6.2c-8.6-0.6-16.8-3.4-24-8.1l-1.2-0.8l-1.1-0.8c-1.3-1-2.6-2-3.8-3.2l-0.7-0.6h-0.3l-0.6-0.5l-0.3-0.3
			l-0.5-0.5l-0.3-0.3l-0.4-0.5l-0.7-0.8l-0.3-0.3v-0.8c-0.4-0.6-0.6-1.2-0.8-1.9c9.3,11.3,23.1,17.9,37.7,18.1
			c5.9,0,11.7-1,17.3-2.8c2.9-1.1,4.5-4.2,3.6-7.2c-0.6-2.8-3.3-4.7-6.2-4.1c0,0,0,0,0,0h-0.4c-15.9,5.8-33.7,0.9-44.4-12.1
			c-0.3-0.5-0.7-0.9-1.1-1.2h0.4c1.8,0.2,3.4,1.1,4.4,2.6c1.5,1.9,3.3,3.7,5.2,5.2c-0.6-17.5-15.4-10-15.4-10s-6.7,0.8-11,17.5
			c-2.4,12-2,24.3,1.1,36.1l-8.3,31.2l16.2,3.4c0,0,6.8-24.7,7.6-28.8c13.7,2.1,14.7,11,12.5,17.8c-1.7,5-6.6,12-5.9,16.9
			c-37.3-12.1-83.4-19.5-96.1-1.3c-6.9,10.1-8,23-2.8,34.1c2.4,3.6,5.5,6.6,9.2,8.8l-6,11.2H72c-2.5,0.8-3.9,3.5-3.1,6
			c0.5,1.5,1.6,2.7,3.1,3.1h26.3c2.5-0.8,3.9-3.5,3.1-6c-0.5-1.5-1.6-2.7-3.1-3.1H91l4-7.2c5.7,1.7,11.6,2.5,17.5,2.4
			c53.1,1.8,80-1.9,91.5-4.8l4.8,9.6h-7.1c-2.5,0.8-3.9,3.5-3.1,6c0.5,1.5,1.6,2.7,3.1,3.1h26.3c2.5-0.8,4-3.4,3.2-6
			C231.2,232.4,231.1,232.3,231.1,232.3z"/>
		<path class="st0" d="M99.7,180.8c1.5,0.9,3.4,1.1,5.1,0.8c-1.2-0.4-2.3-1.1-3.1-2.1c-1.2-1.3-1.7-3.1-1.6-4.8
			c0-3.5,2.9-6.4,6.4-6.4c0,0,0,0,0,0h0.3c-3.5-1.8-7.8-0.3-9.6,3.3C95.6,174.8,96.7,178.8,99.7,180.8L99.7,180.8z"/>
		<path class="st0" d="M189,92.1c0.3,1.9,0.8,3.7,1.2,5.3c2.3,0.7,4.8,1.1,7.2,1.3c-1.1-3.6-1.8-7.4-2-11.2c0-4.3,0-7.1-2.6-7.2
			S187.5,83,189,92.1z"/>
		<path class="st0" d="M214.4,96.6c1.1-0.4,2.4-0.4,3.5,0c-0.6-6-0.2-12,1.3-17.8c1.2-4.2,2.1-6.8-0.3-7.6s-6,1-7.2,10.1
			c-0.7,5.4-0.8,10.8-0.4,16.3L214.4,96.6z"/>
		<path class="st0" d="M219.9,109.2c-0.5,0.4-1.1,0.7-1.8,0.9c-1.5,0.5-3,0.9-4.5,1.2c3.4,11,6.1,22.3,8,33.7
			c1.9,15.8-3.3,31.5-14,43.2L108,170.3c-2.5-0.9-5.2,0.5-6.1,3c-0.2,0.6-0.3,1.2-0.3,1.8c-0.4,5.6,6.6,6,6.6,6l1.7,0.3
			c-3.5,3.7-9.4,4-13.1,0.5c-0.9-0.8-1.6-1.8-2.1-2.8c-7.9,3.8-11.3,13.2-7.5,21.2c3.8,7.9,13.2,11.3,21.2,7.5
			c7.9-3.8,11.3-13.2,7.5-21.2c-0.8-1.8-2-3.3-3.4-4.7c16.5,2.3,75.9,12.1,80.7,12.5c4.6,0.8,9.3,1.3,14,1.3
			c5.6,0.7,8.4-6.4,12.6-13.4C238.2,153.2,223.5,124.4,219.9,109.2z M108.6,192.9c0,3.9-3.1,7-7,7c-3.9,0-7-3.1-7-7c0-3.9,3.1-7,7-7
			l0,0C105.5,185.9,108.6,189,108.6,192.9z"/>
		<circle class="st0" cx="173.8" cy="60" r="15.2"/>
		<path class="st0" d="M207.6,197.3h-0.4c-3.9,0-7.8-0.4-11.7-1.1c-3.6,4.3-3,10.7,1.3,14.3c4.3,3.6,10.7,3,14.3-1.3
			c3-3.6,3.1-8.8,0.3-12.6c-0.9,0.4-1.9,0.7-3,0.7L207.6,197.3z"/>
	</g>
	<g>
		<path class="st0" d="M180.4,280c-0.4,0.3-0.7,0.6-1.1,0.9c-5.6,4.5-11.2,8.9-16.9,13.3c-0.2,0.2-0.2,0.3-0.1,0.5
			c2.2,7.5,4.3,14.9,6.5,22.4c0,0.1,0,0.1,0.1,0.2c-0.1-0.1-0.2-0.1-0.2-0.1c-6.1-4.5-12.2-8.9-18.3-13.4c-0.2-0.2-0.4-0.2-0.6,0
			c-6,4.4-12.1,8.8-18.1,13.2c-0.1,0.1-0.2,0.1-0.3,0.2c0-0.2,0.1-0.3,0.1-0.4c1.9-6.5,3.7-13,5.6-19.5c0.3-0.9,0.5-1.8,0.8-2.7
			c0.1-0.3,0-0.4-0.2-0.6c-3.5-2.8-7-5.6-10.5-8.4c-2.4-1.9-4.8-3.8-7.2-5.8c-0.1-0.1-0.2-0.1-0.2-0.2c0,0,0-0.1,0-0.1
			c0.7,0,1.3,0,2,0c4.4-0.1,8.9-0.1,13.3-0.2c2.4,0,4.8-0.1,7.2-0.1c0.2,0,0.3-0.1,0.4-0.3c2.4-7.3,4.8-14.6,7.3-22
			c0-0.1,0.1-0.2,0.1-0.4c0.3,0.9,0.6,1.8,0.9,2.6c2.2,6.6,4.4,13.2,6.6,19.8c0.1,0.2,0.2,0.3,0.4,0.3c3,0.1,6,0.1,8.9,0.2
			c3.8,0.1,7.6,0.2,11.3,0.3c0.7,0,1.5,0,2.2,0C180.4,279.9,180.4,279.9,180.4,280z"/>
	</g>
	<path class="st0" d="M150,0C67.2,0,0,67.2,0,150c0,65.6,42.2,121.2,100.8,141.6c0.1-6.7,1.6-13.2,4.1-19
		C55,254.2,19.2,206.3,19.2,150C19.2,77.9,77.9,19.2,150,19.2c72.1,0,130.8,58.7,130.8,130.8c0,56.3-35.8,104.2-85.7,122.6
		c2.6,5.8,4,12.2,4.1,19C257.8,271.2,300,215.6,300,150C300,67.2,232.8,0,150,0z"/>
</g>
</svg>
