<?xml version="1.0" encoding="utf-8"?>
<!-- Generator: Adobe Illustrator 21.1.0, SVG Export Plug-In . SVG Version: 6.00 Build 0)  -->
<svg version="1.1" id="Layer_1" xmlns="http://www.w3.org/2000/svg" xmlns:xlink="http://www.w3.org/1999/xlink" x="0px" y="0px"
	 viewBox="0 0 300 317.3" style="enable-background:new 0 0 300 317.3;" xml:space="preserve">
<style type="text/css">
	.st0{fill:#F58220;}
</style>
<g>
	<g>
		<path class="st0" d="M194.9,197.9l-57.9,3.4c0,0-52,3.1-62.4,3.4c-10.4,0.3-17.9,4.5-15.7,14.3c2.2,9.8,14.8,9,14.8,9h122.6
			C189,219.2,188.4,206.8,194.9,197.9z"/>
		<path class="st0" d="M253.3,94.6c-2-1.4-4.5-1.1-6.2,0.6l-23.8,24.1c-2.8,2.8-7.3,5.3-4.8,8.1c1.4,1.7,3.9,2,5.6,0.8l8.1-8.1
			l-15.1,74.2c-0.6,0-1.4-0.3-2-0.3c-10.6,0-19,8.4-19.3,18.7c0,10.6,8.4,19,18.7,19.3c10.6,0,19-8.4,19.3-18.7
			c0-7-3.6-13.4-9.8-16.8c3.4-15.1,17.6-82,17.9-85.3C242.4,107.8,256.7,97.4,253.3,94.6z M228.2,213.3c0,7-5.9,12.9-12.9,12.9l0,0
			l0,0c-7.3,0-12.9-5.6-13.2-12.9c0-7.3,5.6-12.9,12.9-13.2C222,200.1,227.9,206,228.2,213.3C227.9,213,227.9,213,228.2,213.3
			L228.2,213.3z"/>
		<path class="st0" d="M203,213.3c0,6.7,5.3,12,12,12s12-5.3,12-12c0-6.7-5.3-12-12-12l0,0C208.3,201,203,206.6,203,213.3z
			 M221.7,213c0,3.6-2.8,6.7-6.4,7l0,0H215v-0.3c-3.6,0-6.7-3.1-6.7-6.7s3.1-6.7,6.7-6.7C218.6,206.3,221.7,209.4,221.7,213
			L221.7,213z"/>
		<circle class="st0" cx="152.3" cy="71.7" r="16.5"/>
		<path class="st0" d="M121.8,179.4c14-3.4,24.1-20.1,27.1-25.7c14,3.1,11.2,14.6,7.6,21.3c-3.6,6.7-6.2,14.3,1.1,16.5
			c7.3,2.2,11.2-6.4,11.2-6.4s12-17.9,4.2-31.9c-3.9-6.4-9.8-11.5-17.1-13.7c0-0.8-0.3-2-0.3-2.8c-0.8-5.3-1.4-13.7-1.4-13.7
			c5.6,0.3,10.9-0.8,16-2.8c6.7-3.4,9.2-7.6,7.6-10.6c-1.7-3.1-6.2-2.2-9.5,0.8c-3.4,3.1-8.1,4.2-12.3,2.8c2.5-16.5-3.1-19-3.1-19
			c-5-3.4-11.8-2-15.1,3.1l0,0l-0.3,0.6c7.6-0.8,11.8,0,13.2,3.9c0.6,1.4,0.6,2.8,0,3.9c-1.4,2.2-5,2.8-10.4,3.6l-3.9,0.6
			c-1.4,0-2.8,0.3-4.2,0.6c-0.3,1.4-0.6,3.1-0.6,4.8l2.5,1.4c3.4,2,7.3,4.2,8.1,7.8c1.1,2.8,0.3,5.9-2,7.8c-0.8,0.6-1.7,0.8-2.5,0.6
			c-2.2-0.3-4.2-1.1-5.9-2.8l-0.6-0.6c0.3,2.8,0.6,5.6,1.1,8.4c0.3,3.1,0.8,6.2,1.7,9.2c-4.8,6.2-5.9,12.9-12.6,16.8
			c-3.9,2.5-20.1,3.4-28.5,4.5c-11.2,1.4-10.6,5.9-9.2,10.1C86.6,186.4,105.3,183.3,121.8,179.4z"/>
		<path class="st0" d="M132.5,128.8c6.7,5.6,10.4,0.6,8.7-5c-1.7-5.6-12-8.1-13.2-11.8s4.8-3.4,11.8-4.2s11.5-1.7,9.8-6.4
			c-1.7-4.8-8.1-4.5-19.9-2.2c-11.8,2.2-17.3,10.6-10.6,17.9C123.5,121.2,128,125.1,132.5,128.8z"/>
	</g>
	<g>
		<path class="st0" d="M180.2,280.3c-0.4,0.3-0.7,0.6-1.1,0.9c-5.6,4.5-11.2,8.9-16.9,13.3c-0.2,0.2-0.2,0.3-0.1,0.5
			c2.2,7.5,4.3,14.9,6.5,22.4c0,0.1,0,0.1,0.1,0.2c-0.1-0.1-0.2-0.1-0.2-0.1c-6.1-4.5-12.2-8.9-18.3-13.4c-0.2-0.2-0.4-0.2-0.6,0
			c-6,4.4-12.1,8.8-18.1,13.2c-0.1,0.1-0.2,0.1-0.3,0.2c0-0.2,0.1-0.3,0.1-0.4c1.9-6.5,3.7-13,5.6-19.5c0.3-0.9,0.5-1.8,0.8-2.7
			c0.1-0.3,0-0.4-0.2-0.6c-3.5-2.8-7-5.6-10.5-8.4c-2.4-1.9-4.8-3.8-7.2-5.8c-0.1-0.1-0.2-0.1-0.2-0.2c0,0,0-0.1,0-0.1
			c0.7,0,1.3,0,2,0c4.4-0.1,8.9-0.1,13.3-0.2c2.4,0,4.8-0.1,7.2-0.1c0.2,0,0.3-0.1,0.4-0.3c2.4-7.3,4.8-14.6,7.3-22
			c0-0.1,0.1-0.2,0.1-0.4c0.3,0.9,0.6,1.8,0.9,2.6c2.2,6.6,4.4,13.2,6.6,19.8c0.1,0.2,0.2,0.3,0.4,0.3c3,0.1,6,0.1,8.9,0.2
			c3.8,0.1,7.6,0.2,11.3,0.3c0.7,0,1.5,0,2.2,0C180.2,280.2,180.2,280.2,180.2,280.3z"/>
	</g>
	<path class="st0" d="M149.9,0.3c-82.8,0-150,67.2-150,150c0,65.6,42.2,121.2,100.8,141.6c0.1-6.7,1.6-13.2,4.1-19
		c-49.9-18.4-85.7-66.3-85.7-122.6c0-72.1,58.7-130.8,130.8-130.8c72.1,0,130.8,58.7,130.8,130.8c0,56.3-35.8,104.2-85.7,122.6
		c2.6,5.8,4,12.2,4.1,19c58.7-20.4,100.8-76,100.8-141.6C299.9,67.5,232.7,0.3,149.9,0.3z"/>
</g>
</svg>
