<?xml version="1.0" encoding="utf-8"?>
<!-- Generator: Adobe Illustrator 21.1.0, SVG Export Plug-In . SVG Version: 6.00 Build 0)  -->
<svg version="1.1" xmlns="http://www.w3.org/2000/svg" xmlns:xlink="http://www.w3.org/1999/xlink" x="0px" y="0px"
	 viewBox="0 0 465 444.4" style="enable-background:new 0 0 465 444.4;" xml:space="preserve">
<style type="text/css">
	.st0{display:none;}
	.st1{display:inline;}
	.st2{fill:#F58220;}
</style>
<g id="Layer_1" class="st0">
	<g id="oBGt9Y.tif" class="st1">
		
			<image style="overflow:visible;" width="384" height="318" id="Layer_0_1_" xlink:href="C39CDAD2A917DC64.png"  transform="matrix(3.2989 0 0 3.2989 -439.3793 -341.3371)">
		</image>
	</g>
</g>
<g id="Layer_2">
</g>
<g id="Layer_3">
	<path class="st2" d="M429.8,74.1v335.1H35.2V74.1H429.8 M465,38.9H0v405.5h465V38.9L465,38.9z"/>
	<g>
		<rect x="130.2" class="st2" width="27.9" height="112.5"/>
		<rect x="306.9" class="st2" width="27.9" height="112.5"/>
	</g>
	<path class="st2" d="M403.5,188.3l-51.7-12.1c-3.2-0.8-6.1,1.2-6.9,4.4l-1.6,7.3c-0.8,3.2,1.2,6.1,4.4,6.9l14.9,3.6l-201.4,38.3
		c-2-3.6-6.1-5.2-9.7-4.4c-1.6,0.4-3.2,2-4,3.6c1.6-0.4,3.6-0.4,5.2,0c2,0.4,3.6,1.6,4.8,3.6c3.2,4.8,1.6,11.3-3.2,14.5l-0.8,0.4
		c1.6,0.8,3.6,1.2,5.6,0.4c4.8-2.8,6.9-8.9,4.4-13.7l203.4-38.7v29.5c-21.8-19-54.9-16.5-73.8,4.8c-13.7,15.7-16.9,37.9-7.7,56.9
		l-8.1,12.1h-184c0,0-13.7-2-15.7,7.7c-2,9.7,12.5,9.3,12.5,9.3h16.9V338c0,3.2,2.4,5.6,5.6,5.6l0,0h7.7c3.2,0,5.6-2.4,5.6-5.6l0,0
		v-15.3l185.6,0.4h20.2v14.1c0,3.2,2.4,5.6,5.6,5.6l0,0h7.7c3.2,0,5.6-2.4,5.6-5.6l0,0v-15.3c0-0.8,0-1.2-0.4-2
		c17.4-6.5,29.5-21.8,32.7-39.5c0.4-0.8,0.8-1.6,0.8-2.4V271c0-1.2,0-2.8,0-3.6v-64.2l14.9,3.6c3.2,0.8,6.1-1.2,6.9-4.4l1.6-7.3
		C408.8,191.9,406.8,189.1,403.5,188.3L403.5,188.3z M359.2,295.3L359.2,295.3c-6.5,7.3-15.7,11.3-25.4,11.7h-1.6
		c-20.2,0-36.3-16.5-36.3-36.3c0-20.2,16.5-36.3,36.3-36.3c20.2,0,36.3,16.5,36.3,36.3C368.4,279.9,365.2,288.8,359.2,295.3z"/>
	<path class="st2" d="M109.8,204.5c-12.9,1.2-16.5,18.2-13.7,33.5l0.4,2.8c0.8-3.6,2-6.9,3.6-10.1l0.8-1.6
		c4.8-13.3,11.3-14.5,15.3-13.3c2.8,0.8,5.2,2.4,6.9,5.2c1.2,4.4,0.4,9.3-2.4,12.9c-2.4,4.8-4.4,10.5-5.2,15.7
		c6.9-0.8,13.3-3.2,19-7.3l1.2-0.8l2.8-1.6l-4.8-13.7C128.3,213.7,122.7,203.2,109.8,204.5z"/>
	<path class="st2" d="M113,269.4c-2.8,0-6.1-0.4-8.9-1.6c3.2,8.5,6.9,16.5,11.3,24.2c8.9,15.3,28.7,8.9,32.3,6.9
		c3.6-2,49.2-19.4,87.2-8.9c8.9,3.2,17.4,7.3,25.4,11.7c7.7,1.6,15.3-3.2,17.4-10.9V290c1.6-5.2-2.8-20.2-46.4-28.2
		c-28.2-4.4-56.5-2-83.1,7.3l-3.6-10.1l-6.5,3.6C130.4,266.2,121.9,268.6,113,269.4z"/>
	<circle class="st2" cx="105.7" cy="175" r="25"/>
	<path class="st2" d="M332.1,237.5h-1.2c-18.6,0.8-32.7,16.1-31.9,34.7c0.8,18.6,16.1,32.7,34.7,31.9c18.6-0.8,32.7-16.1,31.9-34.7
		l0,0l0,0C364.4,251.7,349.9,237.5,332.1,237.5z M332.9,290.8L332.9,290.8c-11.3,0.8-20.6-8.1-21.4-19c-0.4-11.3,8.1-20.6,19.4-21
		c11.3-0.4,20.6,8.1,21,19.4l0,0l0,0C352.3,281.1,343.8,290,332.9,290.8z"/>
	<path class="st2" d="M156.6,239.2c-4.8-8.1-17.4,0.8-22.2,3.6c-4.8,2.8-19,9.7-21,6.9c0.8-6.1,2.8-11.7,5.6-16.9
		c4.8-9.7,3.2-14.5-3.6-16.5s-11.3,5.6-13.7,12.5s-11.3,26.6,0,35.9c11.3,9.3,35.9-4,35.9-4l16.5-8.5
		C158.2,249.7,159.4,243.6,156.6,239.2z"/>
</g>
</svg>
