<?xml version="1.0" encoding="utf-8"?>
<!-- Generator: Adobe Illustrator 21.1.0, SVG Export Plug-In . SVG Version: 6.00 Build 0)  -->
<svg version="1.1" xmlns="http://www.w3.org/2000/svg" xmlns:xlink="http://www.w3.org/1999/xlink" x="0px" y="0px"
	 viewBox="0 0 128.2 128.2" style="enable-background:new 0 0 128.2 128.2;" xml:space="preserve">
<style type="text/css">
	.st0{clip-path:url(#SVGID_2_);}
	.st1{fill:#CB001C;}
	.st2{fill:#FFFFFF;}
	.st3{fill:#2A3560;}
	.st4{fill:none;}
	.st5{opacity:0.25;fill:url(#SVGID_3_);}
	.st6{fill:#D8D8D8;}
</style>
<g id="Layer_2">
	<g>
		<defs>
			<circle id="SVGID_1_" cx="64.1" cy="64.1" r="62.6"/>
		</defs>
		<clipPath id="SVGID_2_">
			<use xlink:href="#SVGID_1_"  style="overflow:visible;"/>
		</clipPath>
		<g class="st0">
			<rect id="XMLID_67_" x="-60.6" y="125.9" class="st1" width="274.7" height="12.3"/>
			<rect id="XMLID_66_" x="-60.6" y="113.6" class="st2" width="274.7" height="12.3"/>
			<rect id="XMLID_65_" x="-60.6" y="101.3" class="st1" width="274.7" height="12.3"/>
			<rect id="XMLID_64_" x="-60.6" y="88.9" class="st2" width="274.7" height="12.3"/>
			<rect id="XMLID_63_" x="-60.6" y="76.6" class="st1" width="274.7" height="12.3"/>
			<rect id="XMLID_62_" x="-60.6" y="64.3" class="st2" width="274.7" height="12.3"/>
			<rect id="XMLID_61_" x="-60.6" y="52" class="st1" width="274.7" height="12.3"/>
			<rect id="XMLID_60_" x="-60.6" y="39.6" class="st2" width="274.7" height="12.3"/>
			<rect id="XMLID_59_" x="-60.6" y="27.3" class="st1" width="274.7" height="12.3"/>
			<rect id="XMLID_58_" x="-60.6" y="15" class="st2" width="274.7" height="12.3"/>
			<rect id="XMLID_57_" x="-60.6" y="2.7" class="st1" width="274.7" height="12.3"/>
			<rect id="XMLID_56_" x="-60.6" y="-9.7" class="st2" width="274.7" height="12.3"/>
			<rect id="XMLID_55_" x="-60.6" y="-22" class="st1" width="274.7" height="12.3"/>
			<rect id="XMLID_54_" x="-60.6" y="-22" class="st3" width="125.5" height="86.3"/>
			<polygon id="XMLID_53_" class="st2" points="-56.9,-14.1 -55.7,-10.5 -51.9,-10.5 -55,-8.2 -53.8,-4.6 -56.9,-6.8 -60,-4.6 
				-58.8,-8.2 -61.9,-10.5 -58.1,-10.5 			"/>
			<polygon class="st2" points="-56.9,-7.2 -59.5,-5.3 -58.5,-8.3 -61.1,-10.2 -57.9,-10.2 -56.9,-13.3 -55.9,-10.2 -52.7,-10.2 
				-55.3,-8.3 -54.3,-5.3 			"/>
			<polygon id="XMLID_52_" class="st2" points="-56.9,1.9 -55.7,5.5 -51.9,5.5 -55,7.8 -53.8,11.4 -56.9,9.1 -60,11.4 -58.8,7.8 
				-61.9,5.5 -58.1,5.5 			"/>
			<polygon class="st2" points="-56.9,8.8 -59.5,10.7 -58.5,7.7 -61.1,5.8 -57.9,5.8 -56.9,2.7 -55.9,5.8 -52.7,5.8 -55.3,7.7 
				-54.3,10.7 			"/>
			<polygon id="XMLID_51_" class="st2" points="-56.9,17.9 -55.7,21.5 -51.9,21.5 -55,23.8 -53.8,27.4 -56.9,25.2 -60,27.4 
				-58.8,23.8 -61.9,21.5 -58.1,21.5 			"/>
			<polygon class="st2" points="-56.9,24.8 -59.5,26.7 -58.5,23.7 -61.1,21.8 -57.9,21.8 -56.9,18.7 -55.9,21.8 -52.7,21.8 
				-55.3,23.7 -54.3,26.7 			"/>
			<polygon id="XMLID_50_" class="st2" points="-56.9,33.9 -55.7,37.5 -51.9,37.5 -55,39.8 -53.8,43.4 -56.9,41.2 -60,43.4 
				-58.8,39.8 -61.9,37.5 -58.1,37.5 			"/>
			<polygon class="st2" points="-56.9,40.8 -59.5,42.7 -58.5,39.7 -61.1,37.8 -57.9,37.8 -56.9,34.7 -55.9,37.8 -52.7,37.8 
				-55.3,39.7 -54.3,42.7 			"/>
			<polygon id="XMLID_49_" class="st2" points="-56.9,49.9 -55.7,53.6 -51.9,53.6 -55,55.8 -53.8,59.4 -56.9,57.2 -60,59.4 
				-58.8,55.8 -61.9,53.6 -58.1,53.6 			"/>
			<polygon class="st2" points="-56.9,56.8 -59.5,58.7 -58.5,55.7 -61.1,53.8 -57.9,53.8 -56.9,50.7 -55.9,53.8 -52.7,53.8 
				-55.3,55.7 -54.3,58.7 			"/>
			<polygon id="XMLID_48_" class="st2" points="-45.7,-5.7 -44.6,-2 -40.8,-2 -43.8,0.2 -42.7,3.8 -45.7,1.6 -48.8,3.8 -47.7,0.2 
				-50.7,-2 -46.9,-2 			"/>
			<polygon class="st2" points="-47.4,0.1 -49.9,-1.8 -46.7,-1.8 -45.7,-4.8 -44.8,-1.8 -41.6,-1.8 -44.1,0.1 -43.2,3.1 -45.7,1.3 
				-48.3,3.1 			"/>
			<polygon id="XMLID_47_" class="st2" points="-45.7,10.3 -44.6,13.9 -40.8,13.9 -43.8,16.2 -42.7,19.8 -45.7,17.6 -48.8,19.8 
				-47.7,16.2 -50.7,13.9 -46.9,13.9 			"/>
			<polygon class="st2" points="-47.4,16.1 -49.9,14.2 -46.7,14.2 -45.7,11.2 -44.8,14.2 -41.6,14.2 -44.1,16.1 -43.2,19.1 
				-45.7,17.3 -48.3,19.1 			"/>
			<polygon id="XMLID_46_" class="st2" points="-45.7,26.3 -44.6,30 -40.8,30 -43.8,32.2 -42.7,35.8 -45.7,33.6 -48.8,35.8 
				-47.7,32.2 -50.7,30 -46.9,30 			"/>
			<polygon class="st2" points="-47.4,32.1 -49.9,30.2 -46.7,30.2 -45.7,27.2 -44.8,30.2 -41.6,30.2 -44.1,32.1 -43.2,35.2 
				-45.7,33.3 -48.3,35.2 			"/>
			<polygon id="XMLID_45_" class="st2" points="-45.7,42.4 -44.6,46 -40.8,46 -43.8,48.2 -42.7,51.8 -45.7,49.6 -48.8,51.8 
				-47.7,48.2 -50.7,46 -46.9,46 			"/>
			<polygon class="st2" points="-47.4,48.1 -49.9,46.2 -46.7,46.2 -45.7,43.2 -44.8,46.2 -41.6,46.2 -44.1,48.1 -43.2,51.1 
				-45.7,49.3 -48.3,51.1 			"/>
			<polygon id="XMLID_44_" class="st2" points="-34.5,-14.1 -33.3,-10.5 -29.5,-10.5 -32.6,-8.2 -31.4,-4.6 -34.5,-6.8 -37.5,-4.6 
				-36.4,-8.2 -39.5,-10.5 -35.6,-10.5 			"/>
			<polygon class="st2" points="-34.5,-7.2 -37,-5.3 -36.1,-8.3 -38.7,-10.2 -35.5,-10.2 -34.5,-13.3 -33.5,-10.2 -30.3,-10.2 
				-32.9,-8.3 -31.9,-5.3 			"/>
			<polygon id="XMLID_43_" class="st2" points="-34.5,1.9 -33.3,5.5 -29.5,5.5 -32.6,7.8 -31.4,11.4 -34.5,9.1 -37.5,11.4 
				-36.4,7.8 -39.5,5.5 -35.6,5.5 			"/>
			<polygon class="st2" points="-34.5,8.8 -37,10.7 -36.1,7.7 -38.7,5.8 -35.5,5.8 -34.5,2.7 -33.5,5.8 -30.3,5.8 -32.9,7.7 
				-31.9,10.7 			"/>
			<polygon id="XMLID_42_" class="st2" points="-34.5,17.9 -33.3,21.5 -29.5,21.5 -32.6,23.8 -31.4,27.4 -34.5,25.2 -37.5,27.4 
				-36.4,23.8 -39.5,21.5 -35.6,21.5 			"/>
			<polygon class="st2" points="-34.5,24.8 -37,26.7 -36.1,23.7 -38.7,21.8 -35.5,21.8 -34.5,18.8 -33.5,21.8 -30.3,21.8 
				-32.9,23.7 -31.9,26.7 			"/>
			<polygon id="XMLID_41_" class="st2" points="-34.5,33.9 -33.3,37.5 -29.5,37.5 -32.6,39.8 -31.4,43.4 -34.5,41.2 -37.5,43.4 
				-36.4,39.8 -39.5,37.5 -35.6,37.5 			"/>
			<polygon class="st2" points="-34.5,40.8 -37,42.7 -36.1,39.7 -38.7,37.8 -35.5,37.8 -34.5,34.7 -33.5,37.8 -30.3,37.8 
				-32.9,39.7 -31.9,42.7 			"/>
			<polygon id="XMLID_40_" class="st2" points="-34.5,49.9 -33.3,53.6 -29.5,53.6 -32.6,55.8 -31.4,59.4 -34.5,57.2 -37.5,59.4 
				-36.4,55.8 -39.5,53.6 -35.6,53.6 			"/>
			<polygon class="st2" points="-34.5,56.8 -37,58.7 -36.1,55.7 -38.7,53.8 -35.5,53.8 -34.5,50.8 -33.5,53.8 -30.3,53.8 
				-32.9,55.7 -31.9,58.7 			"/>
			<polygon id="XMLID_39_" class="st2" points="-23.3,-5.7 -22.1,-2 -18.3,-2 -21.4,0.2 -20.2,3.8 -23.3,1.6 -26.4,3.8 -25.2,0.2 
				-28.3,-2 -24.5,-2 			"/>
			<polygon class="st2" points="-23.3,1.3 -25.9,3.1 -24.9,0.1 -27.5,-1.8 -24.3,-1.8 -23.3,-4.8 -22.3,-1.8 -19.1,-1.8 -21.7,0.1 
				-20.7,3.1 			"/>
			<polygon id="XMLID_38_" class="st2" points="-23.3,10.3 -22.1,13.9 -18.3,13.9 -21.4,16.2 -20.2,19.8 -23.3,17.6 -26.4,19.8 
				-25.2,16.2 -28.3,13.9 -24.5,13.9 			"/>
			<polygon class="st2" points="-23.3,17.3 -25.9,19.1 -24.9,16.1 -27.5,14.2 -24.3,14.2 -23.3,11.2 -22.3,14.2 -19.1,14.2 
				-21.7,16.1 -20.7,19.1 			"/>
			<polygon id="XMLID_37_" class="st2" points="-23.3,26.3 -22.1,30 -18.3,30 -21.4,32.2 -20.2,35.8 -23.3,33.6 -26.4,35.8 
				-25.2,32.2 -28.3,30 -24.5,30 			"/>
			<polygon class="st2" points="-23.3,33.3 -25.9,35.2 -24.9,32.1 -27.5,30.2 -24.3,30.2 -23.3,27.2 -22.3,30.2 -19.1,30.2 
				-21.7,32.1 -20.7,35.2 			"/>
			<polygon id="XMLID_36_" class="st2" points="-23.3,42.4 -22.1,46 -18.3,46 -21.4,48.2 -20.2,51.8 -23.3,49.6 -26.4,51.8 
				-25.2,48.2 -28.3,46 -24.5,46 			"/>
			<polygon class="st2" points="-23.3,49.3 -25.9,51.1 -24.9,48.1 -27.5,46.2 -24.3,46.2 -23.3,43.2 -22.3,46.2 -19.1,46.2 
				-21.7,48.1 -20.7,51.1 			"/>
			<polygon id="XMLID_35_" class="st2" points="-12,-14.1 -10.8,-10.5 -7,-10.5 -10.1,-8.2 -8.9,-4.6 -12,-6.8 -15.1,-4.6 
				-13.9,-8.2 -17,-10.5 -13.2,-10.5 			"/>
			<polygon class="st2" points="-13.6,-8.3 -16.2,-10.2 -13,-10.2 -12,-13.3 -11,-10.2 -7.8,-10.2 -10.4,-8.3 -9.4,-5.3 -12,-7.2 
				-14.6,-5.3 			"/>
			<polygon id="XMLID_34_" class="st2" points="-12,1.9 -10.8,5.5 -7,5.5 -10.1,7.8 -8.9,11.4 -12,9.1 -15.1,11.4 -13.9,7.8 
				-17,5.5 -13.2,5.5 			"/>
			<polygon class="st2" points="-13.6,7.7 -16.2,5.8 -13,5.8 -12,2.7 -11,5.8 -7.8,5.8 -10.4,7.7 -9.4,10.7 -12,8.8 -14.6,10.7 			
				"/>
			<polygon id="XMLID_33_" class="st2" points="-12,17.9 -10.8,21.5 -7,21.5 -10.1,23.8 -8.9,27.4 -12,25.2 -15.1,27.4 -13.9,23.8 
				-17,21.5 -13.2,21.5 			"/>
			<polygon class="st2" points="-13.6,23.7 -16.2,21.8 -13,21.8 -12,18.8 -11,21.8 -7.8,21.8 -10.4,23.7 -9.4,26.7 -12,24.8 
				-14.6,26.7 			"/>
			<polygon id="XMLID_32_" class="st2" points="-12,33.9 -10.8,37.5 -7,37.5 -10.1,39.8 -8.9,43.4 -12,41.2 -15.1,43.4 -13.9,39.8 
				-17,37.5 -13.2,37.5 			"/>
			<polygon class="st2" points="-13.6,39.7 -16.2,37.8 -13,37.8 -12,34.7 -11,37.8 -7.8,37.8 -10.4,39.7 -9.4,42.7 -12,40.8 
				-14.6,42.7 			"/>
			<polygon id="XMLID_31_" class="st2" points="-12,49.9 -10.8,53.6 -7,53.6 -10.1,55.8 -8.9,59.4 -12,57.2 -15.1,59.4 -13.9,55.8 
				-17,53.6 -13.2,53.6 			"/>
			<polygon class="st2" points="-13.6,55.7 -16.2,53.8 -13,53.8 -12,50.8 -11,53.8 -7.8,53.8 -10.4,55.7 -9.4,58.7 -12,56.8 
				-14.6,58.7 			"/>
			<polygon id="XMLID_30_" class="st2" points="-0.9,-5.7 0.3,-2 4.1,-2 1,0.2 2.2,3.8 -0.9,1.6 -3.9,3.8 -2.8,0.2 -5.9,-2 -2.1,-2 
							"/>
			<polygon class="st2" points="-2.5,0.1 -5.1,-1.8 -1.9,-1.8 -0.9,-4.8 0.1,-1.8 3.3,-1.8 0.7,0.1 1.7,3.1 -0.9,1.3 -3.5,3.1 			
				"/>
			<polygon id="XMLID_29_" class="st2" points="-0.9,10.3 0.3,13.9 4.1,13.9 1,16.2 2.2,19.8 -0.9,17.6 -3.9,19.8 -2.8,16.2 
				-5.9,13.9 -2.1,13.9 			"/>
			<polygon class="st2" points="-2.5,16.1 -5.1,14.2 -1.9,14.2 -0.9,11.2 0.1,14.2 3.3,14.2 0.7,16.1 1.7,19.1 -0.9,17.3 -3.5,19.1 
							"/>
			<polygon id="XMLID_28_" class="st2" points="-0.9,26.3 0.3,30 4.1,30 1,32.2 2.2,35.8 -0.9,33.6 -3.9,35.8 -2.8,32.2 -5.9,30 
				-2.1,30 			"/>
			<polygon class="st2" points="-2.5,32.1 -5.1,30.2 -1.9,30.2 -0.9,27.2 0.1,30.2 3.3,30.2 0.7,32.1 1.7,35.2 -0.9,33.3 -3.5,35.2 
							"/>
			<polygon id="XMLID_27_" class="st2" points="-0.9,42.4 0.3,46 4.1,46 1,48.2 2.2,51.8 -0.9,49.6 -3.9,51.8 -2.8,48.2 -5.9,46 
				-2.1,46 			"/>
			<polygon class="st2" points="-2.5,48.1 -5.1,46.2 -1.9,46.2 -0.9,43.2 0.1,46.2 3.3,46.2 0.7,48.1 1.7,51.1 -0.9,49.3 -3.5,51.1 
							"/>
			<polygon id="XMLID_26_" class="st2" points="10.4,-14.1 11.6,-10.5 15.4,-10.5 12.3,-8.2 13.5,-4.6 10.4,-6.8 7.3,-4.6 8.5,-8.2 
				5.4,-10.5 9.2,-10.5 			"/>
			<polygon class="st2" points="10.4,-7.2 7.8,-5.3 8.8,-8.3 6.2,-10.2 9.4,-10.2 10.4,-13.3 11.4,-10.2 14.6,-10.2 12,-8.3 
				13,-5.3 			"/>
			<polygon id="XMLID_25_" class="st2" points="10.4,1.9 11.6,5.5 15.4,5.5 12.3,7.8 13.5,11.4 10.4,9.1 7.3,11.4 8.5,7.8 5.4,5.5 
				9.2,5.5 			"/>
			<polygon class="st2" points="10.4,8.8 7.8,10.7 8.8,7.7 6.2,5.8 9.4,5.8 10.4,2.7 11.4,5.8 14.6,5.8 12,7.7 13,10.7 			"/>
			<polygon class="st2" points="10.4,24.8 7.8,26.7 8.8,23.7 6.2,21.8 9.4,21.8 10.4,18.8 11.4,21.8 14.6,21.8 12,23.7 13,26.7 			
				"/>
			<polygon class="st2" points="10.4,40.8 7.8,42.7 8.8,39.7 6.2,37.8 9.4,37.8 10.4,34.7 11.4,37.8 14.6,37.8 12,39.7 13,42.7 			
				"/>
			<polygon class="st2" points="10.4,56.8 7.8,58.7 8.8,55.7 6.2,53.8 9.4,53.8 10.4,50.8 11.4,53.8 14.6,53.8 12,55.7 13,58.7 			
				"/>
			<polygon id="XMLID_21_" class="st2" points="21.6,-5.7 22.7,-2 26.6,-2 23.5,0.2 24.6,3.8 21.6,1.6 18.5,3.8 19.7,0.2 16.6,-2 
				20.4,-2 			"/>
			<polygon class="st2" points="21.6,1.3 19,3.1 20,0.1 17.4,-1.8 20.6,-1.8 21.6,-4.8 22.5,-1.8 25.8,-1.8 23.2,0.1 24.2,3.1 			
				"/>
			<polygon class="st2" points="21.6,17.3 19,19.1 20,16.1 17.4,14.2 20.6,14.2 21.6,11.2 22.5,14.2 25.8,14.2 23.2,16.1 24.2,19.1 
							"/>
			<polygon class="st2" points="21.6,33.3 19,35.2 20,32.1 17.4,30.2 20.6,30.2 21.6,27.2 22.5,30.2 25.8,30.2 23.2,32.1 24.2,35.2 
							"/>
			<polygon class="st2" points="21.6,49.3 19,51.1 20,48.1 17.4,46.2 20.6,46.2 21.6,43.2 22.5,46.2 25.8,46.2 23.2,48.1 24.2,51.1 
							"/>
			<polygon id="XMLID_17_" class="st2" points="32.9,-14.1 34,-10.5 37.8,-10.5 34.8,-8.2 35.9,-4.6 32.9,-6.8 29.8,-4.6 31,-8.2 
				27.9,-10.5 31.7,-10.5 			"/>
			<polygon class="st2" points="32.9,-7.2 30.3,-5.3 31.3,-8.3 28.7,-10.2 31.9,-10.2 32.9,-13.3 33.9,-10.2 37.1,-10.2 34.5,-8.3 
				35.4,-5.3 			"/>
			<polygon class="st2" points="32.9,8.8 30.3,10.7 31.3,7.7 28.7,5.8 31.9,5.8 32.9,2.7 33.9,5.8 37.1,5.8 34.5,7.7 35.4,10.7 			
				"/>
			<polygon class="st2" points="32.9,24.8 30.3,26.7 31.3,23.7 28.7,21.8 31.9,21.8 32.9,18.8 33.9,21.8 37.1,21.8 34.5,23.7 
				35.4,26.7 			"/>
			<polygon class="st2" points="32.9,40.8 30.3,42.7 31.3,39.7 28.7,37.8 31.9,37.8 32.9,34.7 33.9,37.8 37.1,37.8 34.5,39.7 
				35.4,42.7 			"/>
			<polygon class="st2" points="32.9,56.8 30.3,58.7 31.3,55.7 28.7,53.8 31.9,53.8 32.9,50.8 33.9,53.8 37.1,53.8 34.5,55.7 
				35.4,58.7 			"/>
			<polygon class="st2" points="42.4,0.1 39.8,-1.8 43,-1.8 44,-4.8 45,-1.8 48.2,-1.8 45.6,0.1 46.6,3.1 44,1.3 41.4,3.1 			"/>
			<polygon class="st2" points="42.4,16.1 39.8,14.2 43,14.2 44,11.2 45,14.2 48.2,14.2 45.6,16.1 46.6,19.1 44,17.3 41.4,19.1 			
				"/>
			<polygon class="st2" points="42.4,32.1 39.8,30.2 43,30.2 44,27.2 45,30.2 48.2,30.2 45.6,32.1 46.6,35.2 44,33.3 41.4,35.2 			
				"/>
			<polygon class="st2" points="42.4,48.1 39.8,46.2 43,46.2 44,43.2 45,46.2 48.2,46.2 45.6,48.1 46.6,51.1 44,49.3 41.4,51.1 			
				"/>
			<polygon class="st2" points="55.3,-7.2 52.7,-5.3 53.7,-8.3 51.1,-10.2 54.3,-10.2 55.3,-13.3 56.3,-10.2 59.5,-10.2 56.9,-8.3 
				57.9,-5.3 			"/>
			<polygon class="st2" points="55.3,8.8 52.7,10.7 53.7,7.7 51.1,5.8 54.3,5.8 55.3,2.7 56.3,5.8 59.5,5.8 56.9,7.7 57.9,10.7 			
				"/>
			<polygon class="st2" points="55.3,24.8 52.7,26.7 53.7,23.7 51.1,21.8 54.3,21.8 55.3,18.7 56.3,21.8 59.5,21.8 56.9,23.7 
				57.9,26.7 			"/>
			<polygon class="st2" points="55.3,40.8 52.7,42.7 53.7,39.7 51.1,37.8 54.3,37.8 55.3,34.7 56.3,37.8 59.5,37.8 56.9,39.7 
				57.9,42.7 			"/>
			<polygon class="st2" points="55.3,56.8 52.7,58.7 53.7,55.7 51.1,53.8 54.3,53.8 55.3,50.8 56.3,53.8 59.5,53.8 56.9,55.7 
				57.9,58.7 			"/>
			<rect id="XMLID_3_" x="-60.6" y="-22" class="st4" width="274.7" height="160.2"/>
		</g>
	</g>
</g>
<g id="Layer_4">
	<radialGradient id="SVGID_3_" cx="65.1251" cy="64.125" r="62.625" gradientUnits="userSpaceOnUse">
		<stop  offset="0.5" style="stop-color:#000000;stop-opacity:0"/>
		<stop  offset="0.9293" style="stop-color:#000000;stop-opacity:0.8587"/>
		<stop  offset="1" style="stop-color:#000000"/>
	</radialGradient>
	<circle class="st5" cx="65.1" cy="64.1" r="62.6"/>
	<path class="st6" d="M64.1,128.2C28.8,128.2,0,99.5,0,64.1S28.8,0,64.1,0s64.1,28.8,64.1,64.1S99.5,128.2,64.1,128.2z M64.1,3
		C30.4,3,3,30.4,3,64.1s27.4,61.1,61.1,61.1s61.1-27.4,61.1-61.1S97.8,3,64.1,3z"/>
</g>
</svg>
