<svg id="Isolation_Mode" data-name="Isolation Mode" xmlns="http://www.w3.org/2000/svg" viewBox="0 0 51.87 51.87"><defs><style>.cls-1{fill:#fff;}.cls-2{fill:#444c52;}</style></defs><title>Vector Smart Object7</title><circle class="cls-1" cx="25.94" cy="25.94" r="25.94"/><path class="cls-2" d="M36.9,26.77a.8.8,0,0,1-.84.84h-14a.47.47,0,0,0-.34.76l3.37,3.37a.81.81,0,0,1,0,1.18l-1.18,1.18a.81.81,0,0,1-1.18,0l-7.59-7.59a1.24,1.24,0,0,1-.17-.59.77.77,0,0,1,.26-.59l7.59-7.59a.82.82,0,0,1,1.18,0l1.18,1.18a.81.81,0,0,1,0,1.18L21.8,23.49a.45.45,0,0,0,.34.76H36.06a.8.8,0,0,1,.84.84Z"/></svg>