<svg xmlns="http://www.w3.org/2000/svg" viewBox="0 0 192.13 138.53"><defs><style>.cls-1{fill:#ddd;}</style></defs><title>Email-Address-Icon</title><g id="Layer_2" data-name="Layer 2"><g id="Layer_1-2" data-name="Layer 1"><path class="cls-1" d="M166.5,62.93A37.58,37.58,0,0,0,184,58.5v66.84c0,.36.11.72.08,1.08L128,74.05l18-17.34a37,37,0,0,0,20.55,6.22ZM137.22,48.56a37.43,37.43,0,0,1-8-23.19,38.46,38.46,0,0,1,4.6-18H13.2a12.67,12.67,0,0,0-8.34,3.15L92.2,91.87ZM0,22.61V125.33a13.45,13.45,0,0,0,.58,3.36L56.3,75Zm96.43,81.85a6,6,0,0,1-8.25.07L65.3,83.21,8.68,137.68a12.5,12.5,0,0,0,4.52.85H171.34a12.58,12.58,0,0,0,6.4-1.75L119.37,82.39Zm95.71-79A25.47,25.47,0,1,1,166.67,0a25.49,25.49,0,0,1,25.47,25.47ZM182,11.94a6,6,0,0,0-8.37,1.36l-11,15.31-4-3.61a6,6,0,1,0-8.09,8.86L159.48,42a6,6,0,0,0,4,1.57c.21,0,.42,0,.62,0a6,6,0,0,0,4.25-2.47l15-20.78A6,6,0,0,0,182,11.94Zm0,0"/></g></g></svg>