<svg xmlns="http://www.w3.org/2000/svg" xmlns:xlink="http://www.w3.org/1999/xlink" width="60.6666676402092" height="42.00000125169754"><rect id="backgroundrect" width="100%" height="100%" x="0" y="0" fill="none" stroke="none" class="selected" style=""/><defs><style>.cls-1{fill:url(#grad1);}</style><linearGradient id="linear-gradient" x1="34.90999984741211" y1="63" x2="91.08999633789062" y2="63" gradientUnits="userSpaceOnUse"><stop offset="0" stop-color="#f58220"/><stop offset="0.3" stop-color="#f47e1e"/><stop offset="0.61" stop-color="#f07116"/><stop offset="0.93" stop-color="#eb5d0a"/><stop offset="1" stop-color="#e95707"/></linearGradient>
<linearGradient id="grad1" x1="0%" y1="0%" x2="100%" y2="0%">
      <stop offset="0%" style="stop-color:#f58220;stop-opacity:1"/>
      <stop offset="100%" style="stop-color:#e95707;stop-opacity:1"/>
    </linearGradient>
</defs><title>Email-Confirm_1</title><g class="currentLayer" style=""><title>Layer 1</title><path class="cls-1" d="M51.599999761581415,18.483332061767577 a11,11 0 0 0 5.12,-1.3 V36.72333206176758 c0,0.11000000000000013 0,0.21000000000000021 0,0.32000000000000056 L40.32999976158142,21.733332061767584 l5.26,-5.07 a10.82,10.82 0 0 0 6,1.82 zM42.99999976158142,14.283332061767581 a11,11 0 0 1 -2.35,-6.78 A11.25,11.25 0 0 1 41.99999976158142,2.2233320617675787 H6.769999761581424 a3.71,3.71 0 0 0 -2.44,0.92 l25.54,23.8 zM2.9099997615814175,6.693332061767578 v30 a3.93,3.93 0 0 0 0.17,1 l16.3,-15.7 zm28.2,23.93 a1.75,1.75 0 0 1 -2.41,0 L21.99999976158142,24.413332061767576 L5.449999761581424,40.33333206176758 a3.66,3.66 0 0 0 1.32,0.25 H52.99999976158142 a3.68,3.68 0 0 0 1.87,-0.51 L37.80999976158142,24.17333206176758 zm28,-23.1 a7.45,7.45 0 1 1 -7.45,-7.45 a7.45,7.45 0 0 1 7.45,7.45 zm-3,-4 a1.75,1.75 0 0 0 -2.45,0.4 l-3.22,4.48 L49.29999976158142,7.39333206176758 a1.75,1.75 0 1 0 -2.37,2.59 L49.53999976158143,12.333332061767578 a1.75,1.75 0 0 0 1.18,0.46 h0.18000000000000024 a1.7600000000000002,1.7600000000000002 0 0 0 1.24,-0.7200000000000006 l4.37,-6.08 a1.75,1.75 0 0 0 -0.4,-2.45 zm0,0 " id="svg_2" opacity="1"/></g></svg>