<svg xmlns="http://www.w3.org/2000/svg" xmlns:xlink="http://www.w3.org/1999/xlink" width="51.14285659790039" height="60" style=""><rect id="backgroundrect" width="100%" height="100%" x="0" y="0" fill="none" stroke="none" class="" style=""/><defs><style>.cls-1{fill:url(#grad1);}</style><linearGradient id="linear-gradient" x1="42.189998626708984" y1="63" x2="83.80999755859375" y2="63" gradientUnits="userSpaceOnUse"><stop offset="0" stop-color="#f58220"/><stop offset="0.3" stop-color="#f47e1e"/><stop offset="0.61" stop-color="#f07116"/><stop offset="0.93" stop-color="#eb5d0a"/><stop offset="1" stop-color="#e95707"/></linearGradient>
<linearGradient id="grad1" x1="0%" y1="0%" x2="100%" y2="0%">
      <stop offset="0%" style="stop-color:#f58220;stop-opacity:1"/>
      <stop offset="100%" style="stop-color:#e95707;stop-opacity:1"/>
    </linearGradient>
</defs><title>Forgot-Password_1</title><g class="currentLayer" style=""><title>Layer 1</title><path class="cls-1" d="M43.96925178639442,24.147671310071825 H43.85225006215126 V18.127400771741748 a17.305618667602538,17.305618667602538 0 1 0 -34.611237335205075,0 v6.020270538330078 h-0.40418777465820355 a4.573703765869141,4.573703765869141 0 0 0 -4.573703765869141,4.573703765869141 V53.898018828992726 a4.573703765869141,4.573703765869141 0 0 0 4.573703765869141,4.573703765869141 h35.10051727294922 a4.573703765869141,4.573703765869141 0 0 0 4.573703765869141,-4.573703765869141 V28.72137507594097 A4.573703765869141,4.573703765869141 0 0 0 43.96925178639442,24.147671310071825 zm-18.08208465576172,28.505874633789062 a2.6165840148925783,2.6165840148925783 0 1 1 2.744222259521485,-2.510218811035156 A2.5208553314208983,2.5208553314208983 0 0 1 25.929713212175663,52.653545943860884 zM32.79026886097938,39.06007289088237 a12.668095779418945,12.668095779418945 0 0 1 -2.265578842163086,2.0209388732910156 l-1.1700172424316406,0.8083755493164068 a3.456869125366211,3.456869125366211 0 0 0 -1.255109405517578,1.5316589355468757 A3.8823299407958993,3.8823299407958993 0 0 0 27.89746948353798,44.5378808895396 a0.3616416931152348,0.3616416931152348 0 0 1 -0.40418777465820355,0.35100517272949266 h-3.297321319580078 c-0.37227821350097695,0 -0.40418777465820355,-0.21273040771484383 -0.40418777465820355,-0.319095611572266 c0,-1.478476333618164 0.10636520385742193,-2.499582290649414 0.6913738250732432,-3.1909561157226562 a19.145736694335938,19.145736694335938 0 0 1 3.30795783996582,-2.6591300964355478 a3.7015090942382813,3.7015090942382813 0 0 0 0.8509216308593757,-0.8615581512451176 a3.1058639526367187,3.1058639526367187 0 0 0 0.7126468658447276,-1.7656623840332033 a3.4249595642089847,3.4249595642089847 0 0 0 -0.6488277435302746,-2.031575393676758 a2.7335857391357425,2.7335857391357425 0 0 0 -2.371944046020508,-0.9147407531738291 a2.6165840148925783,2.6165840148925783 0 0 0 -2.403853607177734,1.1274711608886718 a4.329063796997071,4.329063796997071 0 0 0 -0.7126468658447276,2.3400344848632812 H18.962792359514534 q0.1808208465576172,-4.169515991210938 2.9144065856933588,-5.9139053344726555 a7.7008407592773445,7.7008407592773445 0 0 1 4.254608154296875,-1.0636520385742188 a9.168680572509766,9.168680572509766 0 0 1 5.499081039428711,1.5848415374755869 a5.764994049072266,5.764994049072266 0 0 1 1.0636520385742188,7.881661605834961 zm3.5206882476806642,-14.891128540039062 H16.835488282366097 V18.138037292127493 a9.732416152954102,9.732416152954102 0 1 1 19.464832305908203,0 z" id="svg_2" transform="rotate(-0.3763713538646698 26.38708305358926,29.646753311156782) "/></g></svg>