<?xml version="1.0" encoding="utf-8"?>
<!-- Generator: Adobe Illustrator 21.1.0, SVG Export Plug-In . SVG Version: 6.00 Build 0)  -->
<svg version="1.1" xmlns="http://www.w3.org/2000/svg" xmlns:xlink="http://www.w3.org/1999/xlink" x="0px" y="0px"
	 viewBox="0 0 65.5 84" style="enable-background:new 0 0 65.5 84;" xml:space="preserve">
<style type="text/css">
	.st0{display:none;}
	.st1{display:inline;fill:url(#SVGID_1_);}
	.st2{display:inline;fill:url(#SVGID_2_);}
	.st3{fill:#DDDDDD;}
</style>
<g id="Layer_1">
</g>
<g id="Layer_2" class="st0">
	<linearGradient id="SVGID_1_" gradientUnits="userSpaceOnUse" x1="57.1978" y1="6.4524" x2="15.1978" y2="90.7024">
		<stop  offset="0" style="stop-color:#FF7A00"/>
		<stop  offset="1" style="stop-color:#FB4C00"/>
	</linearGradient>
	<path class="st1" d="M59,33.6v-7.4C59,11.8,47.2,0,32.8,0C18.3,0,6.5,11.8,6.5,26.2v7.4c-3.7,0.7-6.5,4-6.5,7.9V76c0,4.4,3.6,8,8,8
		h49.5c4.4,0,8-3.6,8-8V41.5C65.5,37.6,62.7,34.4,59,33.6z M34.8,74.2c-0.6,0.6-1.3,0.9-2.1,0.9s-1.5-0.3-2.1-0.9
		c-0.6-0.6-0.9-1.3-0.9-2.1c0-0.8,0.3-1.5,0.9-2.1c0.6-0.6,1.3-0.9,2.1-0.9s1.5,0.3,2.1,0.9c0.6,0.6,0.9,1.3,0.9,2.1
		C35.7,73,35.4,73.7,34.8,74.2z M41.8,53.4c-0.3,0.9-0.8,1.7-1.4,2.4l-2.7,2.8L37.2,59c-0.5,0.5-0.9,0.8-1.2,1.2s-0.5,0.6-0.7,1
		c-0.2,0.3-0.3,0.7-0.3,1.2c-0.1,0.4-0.1,1-0.1,1.6v2h-4.3v-2.8c0-0.8,0.1-1.5,0.2-2c0.1-0.5,0.3-1,0.5-1.5c0.2-0.4,0.6-0.9,1-1.3
		c0.4-0.4,0.9-0.9,1.5-1.5c0.5-0.5,1-0.9,1.4-1.4c0.5-0.5,0.9-1,1.3-1.4c0.4-0.5,0.7-1,1-1.6c0.3-0.6,0.4-1.2,0.4-1.9
		c0-0.7-0.1-1.3-0.4-1.9c-0.3-0.6-0.6-1.1-1-1.5c-0.4-0.4-0.9-0.8-1.5-1c-0.6-0.2-1.2-0.4-1.9-0.4c-1.5,0-2.7,0.5-3.6,1.4
		c-0.9,0.9-1.5,2.2-1.7,3.7l-4.6-0.5c0.4-2.6,1.5-4.7,3.3-6.2c1.8-1.5,4-2.2,6.7-2.2c1.3,0,2.5,0.2,3.6,0.6c1.1,0.4,2.1,0.9,2.9,1.6
		s1.5,1.6,1.9,2.6c0.5,1,0.7,2.2,0.7,3.6C42.3,51.5,42.1,52.5,41.8,53.4z M49,33.5H16.5v-7.2c0-9,7.3-16.2,16.2-16.2
		c9,0,16.2,7.3,16.2,16.2V33.5z"/>
</g>
<g id="Layer_2_copy" class="st0">
	<linearGradient id="SVGID_2_" gradientUnits="userSpaceOnUse" x1="57.1978" y1="6.4524" x2="15.1978" y2="90.7024">
		<stop  offset="0" style="stop-color:#FF7A00"/>
		<stop  offset="1" style="stop-color:#FB4C00"/>
	</linearGradient>
	<path class="st2" d="M59,33.6v-7.4C59,11.8,47.2,0,32.8,0C18.3,0,6.5,11.8,6.5,26.2v7.4c-3.7,0.7-6.5,4-6.5,7.9V76c0,4.4,3.6,8,8,8
		h49.5c4.4,0,8-3.6,8-8V41.5C65.5,37.6,62.7,34.4,59,33.6z M49,33.5H16.5v-7.2c0-9,7.3-16.2,16.2-16.2c9,0,16.2,7.3,16.2,16.2V33.5z
		"/>
</g>
<g id="Layer_2_copy_2">
	<path class="st3" d="M59,33.6v-7.4C59,11.8,47.2,0,32.8,0C18.3,0,6.5,11.8,6.5,26.2v7.4c-3.7,0.7-6.5,4-6.5,7.9V76c0,4.4,3.6,8,8,8
		h49.5c4.4,0,8-3.6,8-8V41.5C65.5,37.6,62.7,34.4,59,33.6z M16.5,26.2c0-9,7.3-16.2,16.2-16.2c9,0,16.2,7.3,16.2,16.2v7.2H16.5V26.2
		z M49.4,45.2L19.2,75.4c-0.8,0.8-2.2,0.8-3,0c-0.8-0.8-0.8-2.2,0-3l30.2-30.2c0.8-0.8,2.2-0.8,3,0C50.2,43,50.2,44.3,49.4,45.2z"/>
</g>
</svg>
