<?xml version="1.0" encoding="utf-8"?>
<!-- Generator: Adobe Illustrator 21.1.0, SVG Export Plug-In . SVG Version: 6.00 Build 0)  -->
<svg version="1.1" id="Layer_1" xmlns="http://www.w3.org/2000/svg" xmlns:xlink="http://www.w3.org/1999/xlink" x="0px" y="0px"
	 viewBox="0 0 65.5 84" style="enable-background:new 0 0 65.5 84;" xml:space="preserve">
<style type="text/css">
	.st0{fill:#f58220;}
</style>
<path class="st0" d="M59,33.6v-7.4C59,11.8,47.2,0,32.8,0C18.3,0,6.5,11.8,6.5,26.2v7.4c-3.7,0.7-6.5,4-6.5,7.9V76c0,4.4,3.6,8,8,8
	h49.5c4.4,0,8-3.6,8-8V41.5C65.5,37.6,62.7,34.4,59,33.6z M16.5,26.2c0-9,7.3-16.2,16.2-16.2c9,0,16.2,7.3,16.2,16.2v7.2H16.5V26.2z
	"/>
</svg>
