<?xml version="1.0" encoding="utf-8"?>
<!-- Generator: Adobe Illustrator 21.1.0, SVG Export Plug-In . SVG Version: 6.00 Build 0)  -->
<svg version="1.1" id="Layer_1" xmlns="http://www.w3.org/2000/svg" xmlns:xlink="http://www.w3.org/1999/xlink" x="0px" y="0px"
	 viewBox="0 0 33.2 35.9" style="enable-background:new 0 0 33.2 35.9;" xml:space="preserve">
<style type="text/css">
	.st0{fill:#DDDDDD;}
</style>
<path class="st0" d="M30.9,12V9.3c0-5.2-4.2-9.3-9.3-9.3c-3.2,0-6.1,1.6-7.8,4.1c1.3,0.2,2.5,0.6,3.6,1.2c1.1-1.1,2.5-1.8,4.2-1.8
	c3.2,0,5.8,2.6,5.8,5.8v2.6h-4.5c0.3,1.1,0.5,2.2,0.5,3.4v1.3c1.4,0.9,2.3,2.4,2.3,4.1v9.1h4.7c1.6,0,2.8-1.3,2.8-2.8V14.8
	C33.2,13.4,32.2,12.2,30.9,12z"/>
<path class="st0" d="M21,18v-2.6c0-5.2-4.2-9.3-9.3-9.3c-5.2,0-9.3,4.2-9.3,9.3V18C1,18.2,0,19.4,0,20.8V33c0,1.6,1.3,2.8,2.8,2.8
	h17.6c1.6,0,2.8-1.3,2.8-2.8V20.8C23.3,19.4,22.3,18.2,21,18z M5.9,15.3c0-3.2,2.6-5.8,5.8-5.8c3.2,0,5.8,2.6,5.8,5.8v2.6H5.9V15.3z
	"/>
</svg>
