<?xml version="1.0" encoding="utf-8"?>
<!-- Generator: Adobe Illustrator 19.2.1, SVG Export Plug-In . SVG Version: 6.00 Build 0)  -->
<svg version="1.1" id="Layer_1" xmlns="http://www.w3.org/2000/svg" xmlns:xlink="http://www.w3.org/1999/xlink" x="0px" y="0px"
	 width="88.5px" height="69.9px" viewBox="0 0 88.5 69.9" style="enable-background:new 0 0 88.5 69.9;" xml:space="preserve">
<style type="text/css">
	.st0{opacity:0.4;}
	.st1{fill:url(#SVGID_1_);}
	.st2{fill:url(#SVGID_2_);}
	.st3{fill:url(#SVGID_3_);}
	.st4{fill:url(#SVGID_4_);}
	.st5{fill:url(#SVGID_5_);}
	.st6{fill:url(#SVGID_6_);}
	.st7{fill:url(#SVGID_7_);}
	.st8{fill:url(#SVGID_8_);}
	.st9{fill:url(#SVGID_9_);}
	.st10{fill:url(#SVGID_10_);}
	.st11{fill:url(#SVGID_11_);}
	.st12{fill:url(#SVGID_12_);}
	.st13{fill:url(#SVGID_13_);}
	.st14{fill:url(#SVGID_14_);}
	.st15{fill:url(#SVGID_15_);}
</style>
<title>DriTri_1</title>
<g class="st0">
	
		<linearGradient id="SVGID_1_" gradientUnits="userSpaceOnUse" x1="26.8882" y1="88.964" x2="43.3482" y2="95.744" gradientTransform="matrix(1 0 0 -1 0 115.2797)">
		<stop  offset="0" style="stop-color:#606060"/>
		<stop  offset="0.2" style="stop-color:#5C5C5C"/>
		<stop  offset="0.41" style="stop-color:#4F4F4F"/>
		<stop  offset="0.61" style="stop-color:#3B3B3B"/>
		<stop  offset="0.82" style="stop-color:#1E1E1E"/>
		<stop  offset="1" style="stop-color:#000000"/>
	</linearGradient>
	<path class="st1" d="M49.4,27.5c0,0.7,0.6,1.2,1.3,1.2s1.2-0.6,1.2-1.3c0-0.1,0-0.2,0-0.2c0-1.5-0.4-3-1.1-4.4
		c-1-1.8-3.8-2.5-3.8-2.5v-3.7l1.4,1.6c0.4,0.4,1,0.4,1.4,0c0.1-0.1,0.2-0.3,0.3-0.5l0.4-3.6h1.3v1.9c0,0.2,0.2,0.3,0.3,0.3H53
		c0.2,0,0.3-0.2,0.3-0.3V14h0.5c0.4,0,0.6-0.3,0.7-0.6c0-0.4-0.3-0.7-0.6-0.7c0,0,0,0,0,0h-0.6v-1.9c0-0.2-0.2-0.3-0.3-0.3h-0.9
		c-0.2,0-0.3,0.2-0.3,0.3v1.8h-1.2c-0.1-0.5-0.6-0.9-1.2-0.8c-0.3,0.1-0.6,0.3-0.7,0.6v0.2H47c-0.7,1.5-2.5,2.1-4,1.4
		c-0.6-0.3-1.1-0.8-1.4-1.4h-1.7v-0.2c-0.2-0.5-0.8-0.8-1.3-0.6c-0.3,0.1-0.5,0.4-0.6,0.7h-1.2v-1.8c0-0.2-0.2-0.3-0.3-0.3h-0.9
		c-0.2,0-0.3,0.2-0.3,0.3v1.8h-0.5c-0.4,0-0.6,0.3-0.7,0.6c0,0.4,0.3,0.7,0.6,0.7c0,0,0,0,0,0h0.6v1.9c0,0.2,0.2,0.3,0.3,0.3h0.9
		c0.2,0,0.3-0.2,0.3-0.3V14h1.3l0.4,3.6c0.1,0.5,0.6,0.9,1.2,0.8c0.2,0,0.4-0.1,0.5-0.3l1.3-1.5v3.7c0,0-2.8,0.7-3.8,2.5
		c-0.7,1.4-1.1,2.9-1.1,4.4c-0.2,0.7,0.2,1.3,0.9,1.5c0.7,0.2,1.3-0.2,1.5-0.9c0-0.1,0-0.2,0-0.2l0.2-1.9c0.3-2.5,3.2-3.2,3.5-3.3
		h2.8c0,0,3.3,0.7,3.5,3.3L49.4,27.5z M48.4,14l-0.1,1.2l-1-1.2H48.4z M40.1,15.2L40,14h1.2L40.1,15.2z"/>
	
		<linearGradient id="SVGID_2_" gradientUnits="userSpaceOnUse" x1="40.7442" y1="102.4025" x2="43.9442" y2="103.7125" gradientTransform="matrix(1 0 0 -1 0 115.2797)">
		<stop  offset="0" style="stop-color:#606060"/>
		<stop  offset="0.2" style="stop-color:#5C5C5C"/>
		<stop  offset="0.41" style="stop-color:#4F4F4F"/>
		<stop  offset="0.61" style="stop-color:#3B3B3B"/>
		<stop  offset="0.82" style="stop-color:#1E1E1E"/>
		<stop  offset="1" style="stop-color:#000000"/>
	</linearGradient>
	<circle class="st2" cx="44.3" cy="11.4" r="2.2"/>
	
		<linearGradient id="SVGID_3_" gradientUnits="userSpaceOnUse" x1="51.6595" y1="52.6194" x2="64.1696" y2="57.7694" gradientTransform="matrix(1 0 0 -1 0 115.2797)">
		<stop  offset="0" style="stop-color:#606060"/>
		<stop  offset="0.2" style="stop-color:#5C5C5C"/>
		<stop  offset="0.41" style="stop-color:#4F4F4F"/>
		<stop  offset="0.61" style="stop-color:#3B3B3B"/>
		<stop  offset="0.82" style="stop-color:#1E1E1E"/>
		<stop  offset="1" style="stop-color:#000000"/>
	</linearGradient>
	<path class="st3" d="M73.5,54.6L66.2,55c0,0-6.5,0.4-7.9,0.4s-2.3,0.6-2,1.8s1.9,1.1,1.9,1.1s14.9,0,15.4,0
		C72.7,57.3,72.7,55.7,73.5,54.6z"/>
	
		<linearGradient id="SVGID_4_" gradientUnits="userSpaceOnUse" x1="67.5173" y1="60.6392" x2="76.7973" y2="64.4592" gradientTransform="matrix(1 0 0 -1 0 115.2797)">
		<stop  offset="0" style="stop-color:#606060"/>
		<stop  offset="0.2" style="stop-color:#5C5C5C"/>
		<stop  offset="0.41" style="stop-color:#4F4F4F"/>
		<stop  offset="0.61" style="stop-color:#3B3B3B"/>
		<stop  offset="0.82" style="stop-color:#1E1E1E"/>
		<stop  offset="1" style="stop-color:#000000"/>
	</linearGradient>
	<path class="st4" d="M80,41.6l-3,3c-0.3,0.3-0.9,0.7-0.6,1c0.2,0.2,0.5,0.3,0.7,0.1l1-1l-1.9,9.3H76c-1.3,0-2.4,1-2.4,2.4
		c0,1.3,1,2.4,2.4,2.4s2.4-1,2.4-2.4c0-0.9-0.5-1.7-1.3-2.1c0.4-1.9,2.2-10.3,2.3-10.7s1.9-1.7,1.4-2C80.6,41.4,80.2,41.4,80,41.6z
		 M77.6,56.5c0,0.9-0.7,1.6-1.6,1.6s-1.6-0.7-1.6-1.6c0-0.9,0.7-1.6,1.6-1.6C76.9,54.9,77.6,55.6,77.6,56.5
		C77.6,56.5,77.6,56.5,77.6,56.5L77.6,56.5z"/>
	
		<linearGradient id="SVGID_5_" gradientUnits="userSpaceOnUse" x1="73.5154" y1="57.7494" x2="75.7754" y2="58.6794" gradientTransform="matrix(1 0 0 -1 0 115.2797)">
		<stop  offset="0" style="stop-color:#606060"/>
		<stop  offset="0.2" style="stop-color:#5C5C5C"/>
		<stop  offset="0.41" style="stop-color:#4F4F4F"/>
		<stop  offset="0.61" style="stop-color:#3B3B3B"/>
		<stop  offset="0.82" style="stop-color:#1E1E1E"/>
		<stop  offset="1" style="stop-color:#000000"/>
	</linearGradient>
	<path class="st5" d="M74.5,56.5c0,0.8,0.7,1.5,1.5,1.5s1.5-0.7,1.5-1.5S76.8,55,76,55h0C75.2,55,74.5,55.7,74.5,56.5z M76.8,56.5
		c0,0.5-0.4,0.8-0.8,0.8s-0.8-0.4-0.8-0.8s0.4-0.8,0.8-0.8h0C76.5,55.7,76.8,56,76.8,56.5z"/>
	
		<linearGradient id="SVGID_6_" gradientUnits="userSpaceOnUse" x1="64.7158" y1="75.1684" x2="67.8258" y2="76.4484" gradientTransform="matrix(1 0 0 -1 1.163582e-003 115.2813)">
		<stop  offset="0" style="stop-color:#606060"/>
		<stop  offset="0.2" style="stop-color:#5C5C5C"/>
		<stop  offset="0.41" style="stop-color:#4F4F4F"/>
		<stop  offset="0.61" style="stop-color:#3B3B3B"/>
		<stop  offset="0.82" style="stop-color:#1E1E1E"/>
		<stop  offset="1" style="stop-color:#000000"/>
	</linearGradient>
	<circle class="st6" cx="68.1" cy="38.7" r="2.1"/>
	
		<linearGradient id="SVGID_7_" gradientUnits="userSpaceOnUse" x1="54.1267" y1="61.9262" x2="64.7067" y2="66.2762" gradientTransform="matrix(1 0 0 -1 0 115.2797)">
		<stop  offset="0" style="stop-color:#606060"/>
		<stop  offset="0.2" style="stop-color:#5C5C5C"/>
		<stop  offset="0.41" style="stop-color:#4F4F4F"/>
		<stop  offset="0.61" style="stop-color:#3B3B3B"/>
		<stop  offset="0.82" style="stop-color:#1E1E1E"/>
		<stop  offset="1" style="stop-color:#000000"/>
	</linearGradient>
	<path class="st7" d="M64.3,52.2c1.8-0.4,3-2.5,3.4-3.2c1.7,0.4,1.4,1.8,1,2.7s-0.8,1.8,0.1,2.1s1.4-0.8,1.4-0.8s1.5-2.3,0.5-4
		c-0.5-0.8-1.2-1.4-2.1-1.7c0-0.1,0-0.3,0-0.4c-0.1-0.7-0.2-1.7-0.2-1.7c0.7,0,1.4-0.1,2-0.4c0.8-0.4,1.2-0.9,0.9-1.3
		s-0.8-0.3-1.2,0.1c-0.4,0.4-1,0.5-1.6,0.3c0.3-2.1-0.4-2.4-0.4-2.4c-0.6-0.4-1.5-0.3-1.9,0.4c0,0,0,0,0,0.1c1-0.1,1.5,0,1.7,0.5
		c0.1,0.2,0.1,0.3,0,0.5c-0.2,0.3-0.7,0.4-1.3,0.4l-0.5,0.1l-0.5,0.1c0,0.2-0.1,0.4-0.1,0.6l0.3,0.2c0.4,0.3,0.9,0.5,1,1
		c0.2,0.3,0.1,0.8-0.2,1c-0.1,0.1-0.2,0.1-0.3,0.1c-0.3,0-0.5-0.1-0.7-0.3L65.5,46c0,0.4,0.1,0.7,0.1,1.1c0,0.4,0.1,0.8,0.2,1.2
		c-0.6,0.8-0.8,1.6-1.6,2.1c-1.2,0.3-2.4,0.5-3.6,0.6c-1.4,0.2-1.3,0.7-1.2,1.3C59.8,53.1,62.2,52.7,64.3,52.2z"/>
	
		<linearGradient id="SVGID_8_" gradientUnits="userSpaceOnUse" x1="62.5239" y1="69.743" x2="65.7739" y2="71.073" gradientTransform="matrix(1 0 0 -1 0 115.2797)">
		<stop  offset="0" style="stop-color:#606060"/>
		<stop  offset="0.2" style="stop-color:#5C5C5C"/>
		<stop  offset="0.41" style="stop-color:#4F4F4F"/>
		<stop  offset="0.61" style="stop-color:#3B3B3B"/>
		<stop  offset="0.82" style="stop-color:#1E1E1E"/>
		<stop  offset="1" style="stop-color:#000000"/>
	</linearGradient>
	<path class="st8" d="M65.6,45.9c0.8,0.7,1.3,0.1,1.1-0.6s-1.5-1-1.7-1.5s0.6-0.4,1.5-0.5s1.4-0.2,1.2-0.8s-1-0.6-2.5-0.3
		c-1.5,0.3-2.2,1.3-1.3,2.2C64.5,45,65,45.5,65.6,45.9z"/>
	
		<linearGradient id="SVGID_9_" gradientUnits="userSpaceOnUse" x1="0.4232" y1="52.0047" x2="21.1832" y2="60.5547" gradientTransform="matrix(1 0 0 -1 0 115.2797)">
		<stop  offset="0" style="stop-color:#606060"/>
		<stop  offset="0.2" style="stop-color:#5C5C5C"/>
		<stop  offset="0.41" style="stop-color:#4F4F4F"/>
		<stop  offset="0.61" style="stop-color:#3B3B3B"/>
		<stop  offset="0.82" style="stop-color:#1E1E1E"/>
		<stop  offset="1" style="stop-color:#000000"/>
	</linearGradient>
	<path class="st9" d="M30.4,46.7l1.2,0.3l-16,3c-0.2-0.3-0.5-0.4-0.8-0.3c-0.1,0-0.3,0.1-0.3,0.3c0.1,0,0.3,0,0.4,0
		c0.2,0,0.3,0.1,0.4,0.3c0.2,0.4,0.1,0.9-0.2,1.1c0,0,0,0,0,0l0,0H15c0.1,0.1,0.3,0.1,0.4,0c0.4-0.2,0.6-0.7,0.4-1.1l16.2-3v2.3
		c-1.7-1.5-4.3-1.4-5.8,0.4c-1.1,1.2-1.3,3-0.6,4.5l-0.7,0.9H10.3c0,0-1.1-0.2-1.2,0.6s1,0.7,1,0.7h1.3v1.3c0,0.2,0.2,0.4,0.4,0.4h0
		h0.7c0.2,0,0.4-0.2,0.4-0.4l0,0v-1.2l14.7,0.1c0,0,0.8,0,1.5,0h0.1v1.2c0,0.2,0.2,0.4,0.4,0.4h0h0.7c0.2,0,0.4-0.2,0.4-0.4v0v-1.4
		c0,0,0-0.1,0-0.1c1.4-0.5,2.4-1.7,2.6-3.2c0-0.1,0.1-0.1,0.1-0.2V53c0-0.1,0-0.2,0-0.3s0-0.2,0-0.3v-5.1l1.2,0.3
		c0.2,0.1,0.4-0.1,0.5-0.3l0.2-0.7c0.1-0.2-0.1-0.4-0.3-0.5l-4.2-1c-0.2-0.1-0.4,0.1-0.5,0.3l-0.2,0.7
		C30.1,46.4,30.2,46.7,30.4,46.7z M31.4,54.7c-0.5,0.6-1.2,0.9-2,0.9h-0.2c-1.6,0-2.9-1.3-2.9-2.9c0-1.6,1.3-2.9,2.9-2.9
		c1.6,0,2.9,1.3,2.9,2.9C32.1,53.5,31.9,54.2,31.4,54.7L31.4,54.7z"/>
	
		<linearGradient id="SVGID_10_" gradientUnits="userSpaceOnUse" x1="9.2677" y1="64.8839" x2="11.5877" y2="65.8439" gradientTransform="matrix(1 0 0 -1 0 115.2797)">
		<stop  offset="0" style="stop-color:#606060"/>
		<stop  offset="0.2" style="stop-color:#5C5C5C"/>
		<stop  offset="0.41" style="stop-color:#4F4F4F"/>
		<stop  offset="0.61" style="stop-color:#3B3B3B"/>
		<stop  offset="0.82" style="stop-color:#1E1E1E"/>
		<stop  offset="1" style="stop-color:#000000"/>
	</linearGradient>
	<path class="st10" d="M11.6,47.5c-1,0.1-1.3,1.4-1.1,2.7v0.2c0.1-0.3,0.2-0.6,0.3-0.8l0-0.1c0.4-1.1,0.9-1.2,1.2-1
		c0.2,0,0.4,0.2,0.5,0.4c0.1,0.3,0,0.7-0.2,1c-0.2,0.4-0.3,0.8-0.4,1.3c0.5-0.1,1-0.3,1.5-0.6l0.1-0.1l0.2-0.1l-0.4-1.1
		C13.1,48.3,12.6,47.4,11.6,47.5z"/>
	
		<linearGradient id="SVGID_11_" gradientUnits="userSpaceOnUse" x1="8.2933" y1="57.5887" x2="17.3334" y2="61.3087" gradientTransform="matrix(1 0 0 -1 0 115.2797)">
		<stop  offset="0" style="stop-color:#606060"/>
		<stop  offset="0.2" style="stop-color:#5C5C5C"/>
		<stop  offset="0.41" style="stop-color:#4F4F4F"/>
		<stop  offset="0.61" style="stop-color:#3B3B3B"/>
		<stop  offset="0.82" style="stop-color:#1E1E1E"/>
		<stop  offset="1" style="stop-color:#000000"/>
	</linearGradient>
	<path class="st11" d="M11.9,52.6c-0.2,0-0.5,0-0.7-0.1c0.2,0.7,0.5,1.3,0.9,1.9c0.7,1.2,2.3,0.7,2.6,0.5s3.9-1.5,6.9-0.7
		c0.7,0.3,1.4,0.6,2,0.9c0.6,0.1,1.2-0.3,1.4-0.9c0.2-0.4-0.2-1.6-3.7-2.3c-2.2-0.3-4.4-0.1-6.5,0.6l-0.3-0.8l-0.5,0.3
		C13.2,52.4,12.6,52.6,11.9,52.6z"/>
	
		<linearGradient id="SVGID_12_" gradientUnits="userSpaceOnUse" x1="8.0842" y1="68.7923" x2="11.0042" y2="69.9923" gradientTransform="matrix(1 0 0 -1 6.887059e-003 115.283)">
		<stop  offset="0" style="stop-color:#606060"/>
		<stop  offset="0.2" style="stop-color:#5C5C5C"/>
		<stop  offset="0.41" style="stop-color:#4F4F4F"/>
		<stop  offset="0.61" style="stop-color:#3B3B3B"/>
		<stop  offset="0.82" style="stop-color:#1E1E1E"/>
		<stop  offset="1" style="stop-color:#000000"/>
	</linearGradient>
	<circle class="st12" cx="11.3" cy="45.2" r="2"/>
	
		<linearGradient id="SVGID_13_" gradientUnits="userSpaceOnUse" x1="24.951" y1="60.7402" x2="28.871" y2="62.3602" gradientTransform="matrix(1 0 0 -1 0 115.2797)">
		<stop  offset="0" style="stop-color:#606060"/>
		<stop  offset="0.2" style="stop-color:#5C5C5C"/>
		<stop  offset="0.41" style="stop-color:#4F4F4F"/>
		<stop  offset="0.61" style="stop-color:#3B3B3B"/>
		<stop  offset="0.82" style="stop-color:#1E1E1E"/>
		<stop  offset="1" style="stop-color:#000000"/>
	</linearGradient>
	<path class="st13" d="M29.3,50.1L29.3,50.1c-1.6,0-2.7,1.2-2.7,2.7s1.2,2.6,2.7,2.6c1.5,0,2.6-1.2,2.6-2.7
		C31.8,51.3,30.7,50.2,29.3,50.1L29.3,50.1z M29.3,54.4c-0.9,0-1.6-0.6-1.7-1.5c0-0.9,0.6-1.6,1.5-1.7c0.9,0,1.6,0.6,1.7,1.5
		c0,0,0,0,0,0C30.9,53.6,30.2,54.3,29.3,54.4L29.3,54.4z"/>
	
		<linearGradient id="SVGID_14_" gradientUnits="userSpaceOnUse" x1="8.6489" y1="63.3211" x2="12.3089" y2="64.8311" gradientTransform="matrix(1 0 0 -1 0 115.2797)">
		<stop  offset="0" style="stop-color:#606060"/>
		<stop  offset="0.2" style="stop-color:#5C5C5C"/>
		<stop  offset="0.41" style="stop-color:#4F4F4F"/>
		<stop  offset="0.61" style="stop-color:#3B3B3B"/>
		<stop  offset="0.82" style="stop-color:#1E1E1E"/>
		<stop  offset="1" style="stop-color:#000000"/>
	</linearGradient>
	<path class="st14" d="M15.3,50.3c-0.4-0.6-1.4,0.1-1.8,0.3s-1.5,0.8-1.6,0.5c0.1-0.5,0.2-0.9,0.4-1.3c0.4-0.8,0.3-1.1-0.3-1.3
		s-0.9,0.4-1.1,1s-0.9,2.1,0,2.8s2.8-0.3,2.8-0.3l1.3-0.7C15.4,51.1,15.5,50.7,15.3,50.3C15.3,50.3,15.3,50.3,15.3,50.3z"/>
	
		<linearGradient id="SVGID_15_" gradientUnits="userSpaceOnUse" x1="-28.1352" y1="45.8108" x2="35.0149" y2="71.8108" gradientTransform="matrix(1 0 0 -1 0 115.2797)">
		<stop  offset="0" style="stop-color:#606060"/>
		<stop  offset="0.2" style="stop-color:#5C5C5C"/>
		<stop  offset="0.41" style="stop-color:#4F4F4F"/>
		<stop  offset="0.61" style="stop-color:#3B3B3B"/>
		<stop  offset="0.82" style="stop-color:#1E1E1E"/>
		<stop  offset="1" style="stop-color:#000000"/>
	</linearGradient>
	<path class="st15" d="M77.8,30.1c-4-2.3-8.6-3.3-13.2-2.7c3.4-11.3-3-23.1-14.3-26.5s-23.1,3-26.5,14.3c-1.2,4-1.2,8.2,0,12.2
		C12.1,26,1.5,34.4,0.2,46c-1.4,11.7,7,22.3,18.6,23.7c0.9,0.1,1.7,0.2,2.6,0.1l0,0c11.8,0,21.3-9.6,21.3-21.3
		c0-2.1-0.3-4.1-0.9-6.1c1.7,0.2,3.3,0.2,5,0c-3.4,11.3,3,23.1,14.3,26.5c2,0.6,4,0.9,6.1,0.9c11.8,0,21.3-9.5,21.4-21.3
		C88.5,41,84.4,33.9,77.8,30.1L77.8,30.1z M30.6,64.6c-2.8,1.6-6,2.5-9.2,2.5l0,0c-6.6,0-12.8-3.5-16.1-9.3C0.1,49,3.1,37.7,12,32.5
		c3.9-2.3,8.5-3,13-2.1c2.7,5.6,7.6,9.8,13.6,11.5C41.9,50.4,38.5,60.1,30.6,64.6z M28.9,31.6c3.2,1.4,5.8,3.7,7.8,6.5
		C33.5,36.8,30.8,34.5,28.9,31.6z M44.3,39.9c-1.2,0-2.4-0.1-3.6-0.4c-0.3-0.5-0.5-1.1-0.8-1.6C37,33.1,32.4,29.5,27,28
		c-3.7-9.5,1-20.3,10.5-24s20.3,1,24,10.5c1.7,4.3,1.7,9.1,0,13.5c-5.4,1.5-10,5-12.8,9.9c-0.3,0.5-0.6,1-0.8,1.6
		C46.7,39.7,45.5,39.9,44.3,39.9z M59.6,31.6c-1.9,2.9-4.6,5.1-7.8,6.5C53.8,35.3,56.5,33,59.6,31.6z M83.3,57.8
		c-3.3,5.7-9.4,9.2-16.1,9.3l0,0c-10.2,0-18.5-8.3-18.5-18.5c0-2.3,0.4-4.6,1.3-6.7c6-1.7,10.9-5.8,13.5-11.4
		c10-2,19.8,4.4,21.8,14.4C86.3,49.3,85.5,53.9,83.3,57.8z"/>
</g>
</svg>
