<?xml version="1.0" encoding="utf-8"?>
<!-- Generator: Adobe Illustrator 23.0.1, SVG Export Plug-In . SVG Version: 6.00 Build 0)  -->
<svg version="1.1" id="Layer_1" xmlns="http://www.w3.org/2000/svg" xmlns:xlink="http://www.w3.org/1999/xlink" x="0px" y="0px"
	 viewBox="0 0 381 340.1" style="enable-background:new 0 0 381 340.1;" xml:space="preserve">
<style type="text/css">
	.st0{fill:#f58220;}
</style>
<polygon class="st0" points="-158.8,125 -158.8,125 -158.8,124.9 -158.8,124.8 -158.8,125 "/>
<g>
	<path class="st0" d="M300.3,190.3c-3.3-8.2-10.8-15.3-23.3-18.1c-4.6-1-7.8-1.7-11.6-2.7l-15.8-3.9c-4.9-1.2-10.8-4-17-7.6
		c-8-4.6-16.3-10.3-24-16.2c-5.6-4.2-10.9-8.6-15.5-12.5c-7.3-6.2-12.9-11.3-15.7-13.9c-4.3-4-10-3.6-15.1-0.2
		c-1.5,0.9-3,2.2-4.3,3.7l-0.3,0.2c-1.3,1.6-2.6,3.3-3.5,5.3c-2.7,5.5-3.3,12.1,0.7,18.1l-0.9,0.4c-4.6,2.3-11.3,3.8-17.7,3.8v0
		c-7.6,0-11.5-3.9-15.8-8.4L120,138c-2.9-3-5.9-6.4-10.3-9.7l-0.5-0.3c-2.6-1.9-5.2-3.4-7.7-4.1l-0.5-0.2c-2.1-0.5-4.3-0.6-6.4,0
		c-2.6,0.7-4.7,2.1-6.4,4.3c-1,1.4-1.7,3-2.2,4.8v0.1c-2,7.9-3.1,16.4-4.1,24.5l0,0.3l-1,7.2l0,0.2c-0.8,6.1-1.5,11-1.8,15.3v0.1
		c-0.4,4.6-0.4,8.8-0.1,12.9c2.5,34.1,15,34.1,36.3,34.1h0.1c5.4,0,13.5-0.2,20.4-0.3c3.6-0.1,6.8-0.1,10.9-0.1h129.2
		c9.9,0,17.6-4.9,22.2-11.9c2.3-3.5,3.7-7.7,4.1-12C302.5,198.9,301.9,194.5,300.3,190.3L300.3,190.3z M283.5,205.8L283.5,205.8
		c-1.5,2.3-4.1,4-7.7,4H146.7c-1.2,0-5.9,0.1-11.2,0.2c-5.4,0.1-11.9,0.3-20.1,0.3h-0.1c-11.2,0-17.9-0.1-19.2-18.2
		c-0.2-3.2-0.2-6.6,0.1-10.4v-0.2c0.3-4,0.9-8.5,1.6-14l0.1-0.3l1-7.2l0-0.4c0.7-5.3,1.4-10.8,2.4-16.1c2.3,1.9,4.3,4.1,6.3,6.3
		l0.5,0.5c7,7.4,13.3,13.9,28.2,13.9c8.8,0,18.4-2.2,25.2-5.6c3.5-1.7,6.4-3.8,8.4-6.1c3.2-3.6,4.5-7.7,3.4-12.3h0
		c-0.6-2.3-1.8-4.6-3.8-6.5c-0.3-0.3-0.2-0.9,0.1-1.5l0-0.1v0.1l0.2-0.2c3.1,2.8,7.3,6.6,12.2,10.6c3,2.6,6.4,5.4,10,8.3l-10.2,11.7
		c-1.9,2.2-1.6,5.5,0.5,7.3c2.2,1.9,5.4,1.6,7.2-0.6l10.6-12.2c2.9,2.2,5.9,4.4,8.9,6.5l-9.7,11.2c-1.9,2.1-1.6,5.4,0.5,7.3
		c2.1,1.8,5.4,1.6,7.3-0.6l10.6-12.2c2.2,1.4,4.3,2.7,6.4,3.9c7.4,4.3,14.8,7.6,21.4,9.3c5.4,1.3,9.8,2.4,16,3.9
		c4.2,1.1,7.6,1.8,11.9,2.7c6.1,1.4,9.7,4.4,11,7.8c0.6,1.6,0.8,3.2,0.7,4.7C284.9,203,284.4,204.5,283.5,205.8L283.5,205.8z"/>
	<g>
		<g>
			<path class="st0" d="M352.5,176.9c-3.8,0-6.8-3-6.8-6.8c0-36.9-13.7-74-37.6-101.9C269.7,23.4,205.3,3.4,147.9,18.6
				C93.5,33,48.4,80.4,35.6,136.6c-0.8,3.7-4.5,5.9-8.1,5.1c-3.7-0.8-5.9-4.5-5.1-8.1c6.8-29.9,21.9-57.8,43.5-80.7
				c22-23.2,49.1-39.6,78.5-47.4c62.3-16.5,132.3,5.2,174,53.9c25.9,30.3,40.8,70.6,40.8,110.7C359.3,173.9,356.2,176.9,352.5,176.9
				z"/>
			<path class="st0" d="M352.1,179.3c-2.8,0-5.4-1-7.5-2.8l-21.2-18.6c-2.8-2.5-3.1-6.8-0.6-9.6c2.5-2.8,6.8-3.1,9.6-0.6l19.5,17.1
				l17.1-19.5c2.5-2.8,6.8-3.1,9.6-0.6c2.8,2.5,3.1,6.8,0.6,9.6l-18.6,21.2c-2,2.3-4.8,3.7-7.8,3.9
				C352.6,179.3,352.3,179.3,352.1,179.3z"/>
		</g>
		<g>
			<path class="st0" d="M194.1,340.1c-50,0-99.7-21.8-132.1-59.9C36.4,249.9,21.7,209.8,21.7,170c0-3.8,3-6.8,6.8-6.8c0,0,0,0,0,0
				c3.8,0,6.8,3,6.8,6.8c0,36.6,13.5,73.5,37.2,101.4c37.9,44.7,101.8,65,159,50.5c27-6.8,52-21.5,72.4-42.6
				c20.2-20.8,34.4-46.3,41-73.7c0.9-3.6,4.6-5.9,8.2-5c3.6,0.9,5.9,4.6,5,8.2c-7.2,29.7-22.6,57.3-44.5,79.9
				c-22.2,22.9-49.4,38.9-78.9,46.3C221.4,338.4,207.8,340.1,194.1,340.1z"/>
			<path class="st0" d="M6.8,197.1c-1.6,0-3.2-0.6-4.5-1.7c-2.8-2.5-3.1-6.8-0.6-9.6l18.6-21.2c4.1-4.7,11.4-5.2,16.1-1.1l21.2,18.6
				c2.8,2.5,3.1,6.8,0.6,9.6c-2.5,2.8-6.8,3.1-9.6,0.6L29,175.3l-17.1,19.5C10.6,196.3,8.7,197.1,6.8,197.1z"/>
		</g>
	</g>
</g>
</svg>
