<?xml version="1.0" encoding="utf-8"?>
<!-- Generator: Adobe Illustrator 21.0.0, SVG Export Plug-In . SVG Version: 6.00 Build 0)  -->
<svg version="1.1" id="Isolation_Mode" xmlns="http://www.w3.org/2000/svg" xmlns:xlink="http://www.w3.org/1999/xlink" x="0px"
	 y="0px" viewBox="0 0 165 160" style="enable-background:new 0 0 165 160;" xml:space="preserve">
<style type="text/css">
	.st0{fill:url(#SVGID_1_);}
	.st1{fill:url(#SVGID_2_);}
	.st2{fill:url(#SVGID_3_);}
	.st3{fill:url(#SVGID_4_);}
	.st4{fill:url(#SVGID_5_);}
	.st5{fill:url(#SVGID_6_);}
	.st6{fill:url(#SVGID_7_);}
	.st7{fill:url(#SVGID_8_);}
	.st8{fill:url(#SVGID_9_);}
	.st9{fill:url(#SVGID_10_);}
	.st10{fill:url(#SVGID_11_);}
	.st11{fill:url(#SVGID_12_);}
	.st12{fill:url(#SVGID_13_);}
	.st13{fill:url(#SVGID_14_);}
	.st14{fill:url(#SVGID_15_);}
	.st15{fill:url(#SVGID_16_);}
	.st16{fill:url(#SVGID_17_);}
	.st17{fill:url(#SVGID_18_);}
	.st18{fill:#FFFFFF;}
	.st19{fill:url(#SVGID_19_);}
	.st20{fill:url(#SVGID_20_);}
	.st21{fill:url(#SVGID_21_);}
	.st22{fill:url(#SVGID_22_);}
	.st23{fill:url(#SVGID_23_);}
	.st24{fill:url(#SVGID_24_);}
	.st25{fill:url(#SVGID_25_);}
	.st26{fill:url(#SVGID_26_);}
	.st27{fill:url(#SVGID_27_);}
	.st28{fill:url(#SVGID_28_);}
	.st29{fill:url(#SVGID_29_);}
	.st30{fill:url(#SVGID_30_);}
	.st31{opacity:0.4;}
	.st32{fill:url(#SVGID_31_);}
	.st33{fill:url(#SVGID_32_);}
	.st34{fill:url(#SVGID_33_);}
	.st35{fill:url(#SVGID_34_);}
	.st36{fill:url(#SVGID_35_);}
	.st37{fill:url(#SVGID_36_);}
	.st38{fill:url(#SVGID_37_);}
	.st39{fill:url(#SVGID_38_);}
	.st40{fill:url(#SVGID_39_);}
	.st41{fill:url(#SVGID_40_);}
	.st42{fill:url(#SVGID_41_);}
	.st43{fill:url(#SVGID_42_);}
	.st44{fill:url(#SVGID_43_);}
	.st45{fill:url(#SVGID_44_);}
	.st46{fill:url(#SVGID_45_);}
	.st47{fill:url(#SVGID_46_);}
	.st48{fill:url(#SVGID_47_);}
	.st49{fill:url(#SVGID_48_);}
	.st50{fill:url(#SVGID_49_);}
	.st51{fill:url(#SVGID_50_);}
	.st52{fill:url(#SVGID_51_);}
	.st53{fill:url(#SVGID_52_);}
	.st54{fill:url(#SVGID_53_);}
	.st55{fill:url(#SVGID_54_);}
	.st56{fill:url(#SVGID_55_);}
	.st57{fill:url(#SVGID_56_);}
	.st58{fill:url(#SVGID_57_);}
	.st59{fill:url(#SVGID_58_);}
	.st60{fill:url(#SVGID_59_);}
	.st61{fill:url(#SVGID_60_);}
	.st62{fill:url(#SVGID_61_);}
	.st63{fill:url(#SVGID_62_);}
	.st64{fill:url(#SVGID_63_);}
	.st65{fill:url(#SVGID_64_);}
	.st66{fill:url(#SVGID_65_);}
	.st67{fill:url(#SVGID_66_);}
	.st68{fill:url(#SVGID_67_);}
	.st69{fill:url(#SVGID_68_);}
	.st70{fill:url(#SVGID_69_);}
	.st71{fill:url(#SVGID_70_);}
	.st72{fill:url(#SVGID_71_);}
	.st73{fill:url(#SVGID_72_);}
	.st74{fill:url(#SVGID_73_);}
	.st75{fill:url(#SVGID_74_);}
	.st76{fill:url(#SVGID_75_);}
	.st77{fill:url(#SVGID_76_);}
	.st78{fill:url(#SVGID_77_);}
	.st79{fill:url(#SVGID_78_);}
	.st80{fill:url(#SVGID_79_);}
	.st81{fill:url(#SVGID_80_);}
	.st82{fill:url(#SVGID_81_);}
	.st83{fill:url(#SVGID_82_);}
	.st84{fill:url(#SVGID_83_);}
	.st85{fill:url(#SVGID_84_);}
	.st86{fill:url(#SVGID_85_);}
	.st87{fill:url(#SVGID_86_);}
	.st88{fill:url(#SVGID_87_);}
	.st89{fill:url(#SVGID_88_);}
	.st90{fill:url(#SVGID_89_);}
	.st91{fill:url(#SVGID_90_);}
	.st92{fill:url(#SVGID_91_);}
	.st93{fill:url(#SVGID_92_);}
	.st94{fill:url(#SVGID_93_);}
	.st95{fill:url(#SVGID_94_);}
	.st96{fill:url(#SVGID_95_);}
	.st97{fill:url(#SVGID_96_);}
	.st98{fill:url(#SVGID_97_);}
	.st99{fill:url(#SVGID_98_);}
	.st100{fill:url(#SVGID_99_);}
	.st101{fill:url(#SVGID_100_);}
	.st102{fill:url(#SVGID_101_);}
	.st103{fill:url(#SVGID_102_);}
	.st104{fill:url(#SVGID_103_);}
	.st105{fill:url(#SVGID_104_);}
	.st106{fill:url(#SVGID_105_);}
	.st107{fill:url(#SVGID_106_);}
	.st108{fill:url(#SVGID_107_);}
	.st109{fill:url(#SVGID_108_);}
	.st110{fill:url(#SVGID_109_);}
	.st111{fill:url(#SVGID_110_);}
	.st112{fill:url(#SVGID_111_);}
	.st113{fill:url(#SVGID_112_);}
	.st114{fill:url(#SVGID_113_);}
	.st115{fill:url(#SVGID_114_);}
	.st116{fill:url(#SVGID_115_);}
	.st117{fill:url(#SVGID_116_);}
	.st118{fill:url(#SVGID_117_);}
	.st119{fill:url(#SVGID_118_);}
	.st120{fill:url(#SVGID_119_);}
	.st121{fill:url(#SVGID_120_);}
	.st122{fill:url(#SVGID_121_);}
	.st123{fill:url(#SVGID_122_);}
	.st124{fill:url(#SVGID_123_);}
	.st125{fill:url(#SVGID_124_);}
	.st126{fill:url(#SVGID_125_);}
	.st127{fill:url(#SVGID_126_);}
	.st128{fill:url(#SVGID_127_);}
	.st129{fill:url(#SVGID_128_);}
	.st130{fill:url(#SVGID_129_);}
	.st131{fill:url(#SVGID_130_);}
	.st132{fill:url(#SVGID_131_);}
	.st133{fill:url(#SVGID_132_);}
	.st134{fill:url(#SVGID_133_);}
	.st135{fill:url(#SVGID_134_);}
	.st136{fill:url(#SVGID_135_);}
	.st137{fill:url(#SVGID_136_);}
	.st138{fill:url(#SVGID_137_);}
	.st139{fill:url(#SVGID_138_);}
	.st140{fill:url(#SVGID_139_);}
	.st141{fill:url(#SVGID_140_);}
	.st142{fill:url(#SVGID_141_);}
	.st143{fill:url(#SVGID_142_);}
	.st144{fill:url(#SVGID_143_);}
	.st145{fill:url(#SVGID_144_);}
	.st146{fill:url(#SVGID_145_);}
	.st147{fill:url(#SVGID_146_);}
	.st148{fill:url(#SVGID_147_);}
	.st149{fill:url(#SVGID_148_);}
	.st150{fill:url(#SVGID_149_);}
	.st151{fill:url(#SVGID_150_);}
	.st152{fill:url(#SVGID_151_);}
	.st153{fill:url(#SVGID_152_);}
	.st154{fill:url(#SVGID_153_);}
	.st155{fill:url(#SVGID_154_);}
	.st156{fill:url(#SVGID_155_);}
	.st157{fill:url(#SVGID_156_);}
	.st158{fill:url(#SVGID_157_);}
	.st159{fill:url(#SVGID_158_);}
	.st160{fill:url(#SVGID_159_);}
	.st161{fill:url(#SVGID_160_);}
	.st162{fill:url(#SVGID_161_);}
	.st163{fill:url(#SVGID_162_);}
	.st164{fill:url(#SVGID_163_);}
	.st165{fill:url(#SVGID_164_);}
	.st166{fill:url(#SVGID_165_);}
	.st167{fill:url(#SVGID_166_);}
	.st168{fill:url(#SVGID_167_);}
	.st169{fill:url(#SVGID_168_);}
	.st170{fill:url(#SVGID_169_);}
	.st171{fill:url(#SVGID_170_);}
	.st172{fill:url(#SVGID_171_);}
	.st173{fill:url(#SVGID_172_);}
	.st174{fill:url(#SVGID_173_);}
	.st175{fill:url(#SVGID_174_);}
	.st176{fill:url(#SVGID_175_);}
	.st177{fill:url(#SVGID_176_);}
	.st178{fill:url(#SVGID_177_);}
	.st179{fill:url(#SVGID_178_);}
	.st180{fill:url(#SVGID_179_);}
	.st181{fill:url(#SVGID_180_);}
	.st182{fill:url(#SVGID_181_);}
	.st183{fill:url(#SVGID_182_);}
	.st184{fill:url(#SVGID_183_);}
	.st185{fill:url(#SVGID_184_);}
	.st186{fill:url(#SVGID_185_);}
	.st187{fill:#E7E7E7;}
	.st188{fill:url(#SVGID_186_);}
	.st189{fill:url(#SVGID_187_);}
	.st190{fill:url(#SVGID_188_);}
	.st191{fill:url(#SVGID_189_);}
	.st192{fill:url(#SVGID_190_);}
	.st193{fill:url(#SVGID_191_);}
	.st194{fill:url(#SVGID_192_);}
	.st195{fill:url(#SVGID_193_);}
	.st196{fill:url(#SVGID_194_);}
	.st197{fill:url(#SVGID_195_);}
	.st198{fill:url(#SVGID_196_);}
	.st199{fill:url(#SVGID_197_);}
	.st200{fill:url(#SVGID_198_);}
	.st201{fill:url(#SVGID_199_);}
	.st202{fill:url(#SVGID_200_);}
	.st203{fill:url(#SVGID_201_);}
	.st204{fill:url(#SVGID_202_);}
	.st205{fill:url(#SVGID_203_);}
	.st206{fill:url(#SVGID_204_);}
	.st207{fill:url(#SVGID_205_);}
	.st208{fill:url(#SVGID_206_);}
	.st209{fill:url(#SVGID_207_);}
	.st210{fill:url(#SVGID_208_);}
	.st211{fill:url(#SVGID_209_);}
	.st212{fill:url(#SVGID_210_);}
	.st213{fill:url(#SVGID_211_);}
	.st214{fill:url(#SVGID_212_);}
	.st215{fill:url(#SVGID_213_);}
	.st216{fill:url(#SVGID_214_);}
	.st217{fill:url(#SVGID_215_);}
	.st218{fill:url(#SVGID_216_);}
	.st219{fill:url(#SVGID_217_);}
	.st220{fill:url(#SVGID_218_);}
	.st221{fill:url(#SVGID_219_);}
	.st222{fill:url(#SVGID_220_);}
	.st223{fill:url(#SVGID_221_);}
	.st224{fill:url(#SVGID_222_);}
	.st225{fill:url(#SVGID_223_);}
	.st226{fill:url(#SVGID_224_);}
	.st227{fill:url(#SVGID_225_);}
	.st228{fill:url(#SVGID_226_);}
	.st229{fill:url(#SVGID_227_);}
	.st230{fill:url(#SVGID_228_);}
	.st231{fill:url(#SVGID_229_);}
	.st232{fill:url(#SVGID_230_);}
	.st233{fill:url(#SVGID_231_);}
	.st234{fill:url(#SVGID_232_);}
	.st235{fill:url(#SVGID_233_);}
	.st236{fill:url(#SVGID_234_);}
	.st237{fill:url(#SVGID_235_);}
	.st238{fill:url(#SVGID_236_);}
	.st239{fill:url(#SVGID_237_);}
	.st240{fill:url(#SVGID_238_);}
	.st241{fill:url(#SVGID_239_);}
	.st242{fill:url(#SVGID_240_);}
	.st243{fill:url(#SVGID_241_);}
	.st244{fill:url(#SVGID_242_);}
	.st245{fill:#333333;}
	.st246{fill:url(#SVGID_243_);}
	.st247{fill:url(#SVGID_244_);}
	.st248{fill:url(#SVGID_245_);}
	.st249{fill:url(#SVGID_246_);}
	.st250{fill:url(#SVGID_247_);}
	.st251{fill:url(#SVGID_248_);}
	.st252{fill:url(#SVGID_249_);}
	.st253{fill:url(#SVGID_250_);}
	.st254{fill:url(#SVGID_251_);}
	.st255{fill:url(#SVGID_252_);}
	.st256{fill:url(#SVGID_253_);}
	.st257{fill:url(#SVGID_254_);}
	.st258{fill:url(#SVGID_255_);}
	.st259{fill:url(#SVGID_256_);}
	.st260{fill:url(#SVGID_257_);}
	.st261{fill:url(#SVGID_258_);}
	.st262{fill:url(#SVGID_259_);}
	.st263{fill:url(#SVGID_260_);}
	.st264{fill:url(#SVGID_261_);}
	.st265{fill:url(#SVGID_262_);}
	.st266{fill:url(#SVGID_263_);}
	.st267{fill:url(#SVGID_264_);}
	.st268{fill:url(#SVGID_265_);}
	.st269{fill:url(#SVGID_266_);}
	.st270{fill:url(#SVGID_267_);}
	.st271{fill:url(#SVGID_268_);}
	.st272{fill:url(#SVGID_269_);}
	.st273{fill:url(#SVGID_270_);}
	.st274{fill:url(#SVGID_271_);}
	.st275{fill:url(#SVGID_272_);}
	.st276{fill:url(#SVGID_273_);}
	.st277{fill:url(#SVGID_274_);}
	.st278{fill:url(#SVGID_275_);}
	.st279{fill:url(#SVGID_276_);}
	.st280{fill:url(#SVGID_277_);}
	.st281{fill:url(#SVGID_278_);}
	.st282{fill:url(#SVGID_279_);}
	.st283{fill:url(#SVGID_280_);}
	.st284{fill:url(#SVGID_281_);}
	.st285{fill:url(#SVGID_282_);}
	.st286{fill:url(#SVGID_283_);}
	.st287{fill:url(#SVGID_284_);}
	.st288{fill:url(#SVGID_285_);}
	.st289{fill:url(#SVGID_286_);}
	.st290{fill:url(#SVGID_287_);}
	.st291{fill:url(#SVGID_288_);}
	.st292{fill:url(#SVGID_289_);}
	.st293{fill:url(#SVGID_290_);}
	.st294{opacity:0.8;fill:url(#SVGID_291_);}
	.st295{opacity:0.8;fill:url(#SVGID_292_);}
	.st296{fill:url(#SVGID_293_);}
	.st297{opacity:0.8;}
	.st298{fill:url(#SVGID_294_);}
	.st299{fill:url(#SVGID_295_);}
	.st300{fill:url(#SVGID_296_);}
	.st301{fill:url(#SVGID_297_);}
	.st302{fill:url(#SVGID_298_);}
	.st303{fill:url(#SVGID_299_);}
	.st304{fill:url(#SVGID_300_);}
	.st305{fill:url(#SVGID_301_);}
	.st306{fill:url(#SVGID_302_);}
	.st307{fill:url(#SVGID_303_);}
	.st308{fill:url(#SVGID_304_);}
	.st309{fill:url(#SVGID_305_);}
	.st310{fill:url(#SVGID_306_);}
	.st311{fill:url(#SVGID_307_);}
	.st312{fill:url(#SVGID_308_);}
	.st313{fill:url(#SVGID_309_);}
	.st314{fill:url(#SVGID_310_);}
	.st315{fill:url(#SVGID_311_);}
	.st316{fill:url(#SVGID_312_);}
	.st317{fill:url(#SVGID_313_);}
	.st318{fill:url(#SVGID_314_);}
	.st319{fill:url(#SVGID_315_);}
	.st320{fill:url(#SVGID_316_);}
	.st321{fill:url(#SVGID_317_);}
	.st322{fill:url(#SVGID_318_);}
	.st323{fill:url(#SVGID_319_);}
	.st324{fill:url(#SVGID_320_);}
	.st325{fill:url(#SVGID_321_);}
	.st326{fill:url(#SVGID_322_);}
	.st327{fill:url(#SVGID_323_);}
	.st328{fill:url(#SVGID_324_);}
	.st329{fill:url(#SVGID_325_);}
	.st330{fill:url(#SVGID_326_);}
	.st331{fill:url(#SVGID_327_);}
	.st332{fill:url(#SVGID_328_);}
	.st333{fill:url(#SVGID_329_);}
	.st334{fill:url(#SVGID_330_);}
	.st335{fill:url(#SVGID_331_);}
	.st336{fill:url(#SVGID_332_);}
	.st337{fill:url(#SVGID_333_);}
	.st338{fill:url(#SVGID_334_);}
	.st339{fill:url(#SVGID_335_);}
	.st340{fill:url(#SVGID_336_);}
	.st341{fill:url(#SVGID_337_);}
	.st342{fill:url(#SVGID_338_);}
	.st343{fill:url(#SVGID_339_);}
	.st344{fill:url(#SVGID_340_);}
	.st345{fill:url(#SVGID_341_);}
	.st346{fill:url(#SVGID_342_);}
	.st347{fill:url(#SVGID_343_);}
	.st348{fill:url(#SVGID_344_);}
	.st349{fill:url(#SVGID_345_);}
	.st350{fill:url(#SVGID_346_);}
	.st351{fill:url(#SVGID_347_);}
	.st352{fill:url(#SVGID_348_);}
	.st353{fill:url(#SVGID_349_);}
	.st354{fill:url(#SVGID_350_);}
	.st355{fill:url(#SVGID_351_);}
	.st356{fill:url(#SVGID_352_);}
	.st357{fill:url(#SVGID_353_);}
	.st358{fill:url(#SVGID_354_);}
	.st359{fill:url(#SVGID_355_);}
	.st360{fill:url(#SVGID_356_);}
	.st361{fill:url(#SVGID_357_);}
	.st362{fill:url(#SVGID_358_);}
	.st363{fill:#F48220;}
</style>
<g class="st31">
	<linearGradient id="SVGID_1_" gradientUnits="userSpaceOnUse" x1="-14.7822" y1="147.0069" x2="115.358" y2="115.306">
		<stop  offset="0" style="stop-color:#606060"/>
		<stop  offset="0.1994" style="stop-color:#5C5C5C"/>
		<stop  offset="0.4056" style="stop-color:#4F4F4F"/>
		<stop  offset="0.6148" style="stop-color:#3B3B3B"/>
		<stop  offset="0.8249" style="stop-color:#1E1E1E"/>
		<stop  offset="1" style="stop-color:#000000"/>
	</linearGradient>
	<path class="st0" d="M108.4,107.5c0,0-5.2,10.5,4.3,17.9c-2.7,0.6-74.2,14.3-74.2,14.3s-7.5,1.9-10-3.7c-2.5-5.6,1.4-9,7.8-10.4
		c6.4-1.4,37.5-9.3,37.5-9.3L108.4,107.5z"/>
	<linearGradient id="SVGID_2_" gradientUnits="userSpaceOnUse" x1="-23.9616" y1="109.3228" x2="106.1785" y2="77.622">
		<stop  offset="0" style="stop-color:#606060"/>
		<stop  offset="0.1994" style="stop-color:#5C5C5C"/>
		<stop  offset="0.4056" style="stop-color:#4F4F4F"/>
		<stop  offset="0.6148" style="stop-color:#3B3B3B"/>
		<stop  offset="0.8249" style="stop-color:#1E1E1E"/>
		<stop  offset="1" style="stop-color:#000000"/>
	</linearGradient>
	<path class="st1" d="M125.6,56l-4.4,5.4c0,0-1.6,1.4-3.4-0.2s0.8-3.5,2.2-5.3c1.4-1.8,13.1-16.3,13.1-16.3s1.5-2.1,3.7-0.7
		c2.3,1.4-5.9,8.7-5.9,10.9s-6.1,55.2-6.1,55.2l-4.5-0.8L125.6,56z"/>
	<linearGradient id="SVGID_3_" gradientUnits="userSpaceOnUse" x1="-14.5894" y1="147.7984" x2="115.5508" y2="116.0976">
		<stop  offset="0" style="stop-color:#606060"/>
		<stop  offset="0.1994" style="stop-color:#5C5C5C"/>
		<stop  offset="0.4056" style="stop-color:#4F4F4F"/>
		<stop  offset="0.6148" style="stop-color:#3B3B3B"/>
		<stop  offset="0.8249" style="stop-color:#1E1E1E"/>
		<stop  offset="1" style="stop-color:#000000"/>
	</linearGradient>
	<path class="st2" d="M133.7,112.3c-1.2-6.3-7.3-10.4-13.6-9.2c-6.3,1.2-10.4,7.3-9.2,13.6c1.2,6.3,7.3,10.4,13.6,9.2
		C130.8,124.6,134.9,118.6,133.7,112.3z M128.9,118.9c-1.2,1.8-3,3-5.1,3.4c-0.5,0.1-1,0.1-1.5,0.1c-3.7,0-7.1-2.7-7.8-6.5
		c-0.4-2.1,0-4.2,1.2-6c1.2-1.8,3-3,5.1-3.4c4.3-0.8,8.5,2,9.3,6.3C130.5,115,130.1,117.2,128.9,118.9z"/>
	<linearGradient id="SVGID_4_" gradientUnits="userSpaceOnUse" x1="-14.5894" y1="147.7985" x2="115.5508" y2="116.0977">
		<stop  offset="0" style="stop-color:#606060"/>
		<stop  offset="0.1994" style="stop-color:#5C5C5C"/>
		<stop  offset="0.4056" style="stop-color:#4F4F4F"/>
		<stop  offset="0.6148" style="stop-color:#3B3B3B"/>
		<stop  offset="0.8249" style="stop-color:#1E1E1E"/>
		<stop  offset="1" style="stop-color:#000000"/>
	</linearGradient>
	<path class="st3" d="M129.6,113.1c-0.7-3.6-3.8-6-7.3-6c-0.5,0-0.9,0-1.4,0.1c-2,0.4-3.6,1.5-4.8,3.1c-1.1,1.6-1.5,3.6-1.1,5.6
		c0.4,2,1.5,3.6,3.1,4.8c1.6,1.1,3.6,1.5,5.6,1.1c2-0.4,3.6-1.5,4.8-3.1C129.6,117,130,115,129.6,113.1z M123,118.5
		c-2.2,0.4-4.4-1-4.8-3.3c-0.4-2.2,1-4.4,3.3-4.8c2.2-0.4,4.4,1,4.8,3.3C126.8,115.9,125.3,118.1,123,118.5z"/>
	<linearGradient id="SVGID_5_" gradientUnits="userSpaceOnUse" x1="-9.8367" y1="167.3093" x2="120.3035" y2="135.6085">
		<stop  offset="0" style="stop-color:#606060"/>
		<stop  offset="0.1994" style="stop-color:#5C5C5C"/>
		<stop  offset="0.4056" style="stop-color:#4F4F4F"/>
		<stop  offset="0.6148" style="stop-color:#3B3B3B"/>
		<stop  offset="0.8249" style="stop-color:#1E1E1E"/>
		<stop  offset="1" style="stop-color:#000000"/>
	</linearGradient>
	<polygon class="st4" points="129.5,132.5 129.5,141 66.8,141 	"/>
	<linearGradient id="SVGID_6_" gradientUnits="userSpaceOnUse" x1="-37.0306" y1="55.6711" x2="93.1095" y2="23.9703">
		<stop  offset="0" style="stop-color:#606060"/>
		<stop  offset="0.1994" style="stop-color:#5C5C5C"/>
		<stop  offset="0.4056" style="stop-color:#4F4F4F"/>
		<stop  offset="0.6148" style="stop-color:#3B3B3B"/>
		<stop  offset="0.8249" style="stop-color:#1E1E1E"/>
		<stop  offset="1" style="stop-color:#000000"/>
	</linearGradient>
	<circle class="st5" cx="71.4" cy="29.3" r="10.2"/>
	<linearGradient id="SVGID_7_" gradientUnits="userSpaceOnUse" x1="-25.8695" y1="101.4904" x2="104.2706" y2="69.7896">
		<stop  offset="0" style="stop-color:#606060"/>
		<stop  offset="0.1994" style="stop-color:#5C5C5C"/>
		<stop  offset="0.4056" style="stop-color:#4F4F4F"/>
		<stop  offset="0.6148" style="stop-color:#3B3B3B"/>
		<stop  offset="0.8249" style="stop-color:#1E1E1E"/>
		<stop  offset="1" style="stop-color:#000000"/>
	</linearGradient>
	<path class="st6" d="M92.7,101.8c-0.9-3.4-2.1-7.6-3.9-11.9c-0.5-1.6-1.3-3.3-2.3-5c-1.2-2.2-2.6-4.2-4.2-6c-3.5-4.4-6.9-7.8-7-8.2
		c0-2.6-0.8-10.1-0.7-9.5c0,0,5.4-0.2,9.4-2.3c4-2.2,5.7-4.8,4.4-6.7c-1.2-1.9-3.9-1.2-5.9,0.7c-2,1.9-5.3,2.8-7.6,1.8
		c1.4-10.2-2.1-11.7-2.1-11.7s-5.1-3.5-9.5,2.4c4.1-0.5,6.5,0.1,7.3,2.4c0.3,1,0.3,1.8-0.1,2.5c-0.9,1.4-3.3,1.9-6.3,2.3
		c-0.8,0.1-1.6,0.2-2.4,0.3c-0.6,0.1-1.1,0.1-1.6,0.2c-0.2,1.1-0.4,2.3-0.4,3.4c0.3,0.2,0.5,0.3,0.8,0.5c2.1,1.2,4.5,2.6,5.1,4.7
		c0.6,2,0.2,3.9-1,4.8c-0.4,0.3-1,0.5-1.5,0.5h0c-0.9,0-2-0.4-3.1-1.2c0.3,2.7,0.7,4.4,0.7,4.4c1.1,6.1,2.9,5.9,2.9,8.6
		c0,2.6-3.8,18.4-5.5,24.3c-1.7,5.9-3.5,12.9,0.8,13.2c4.3,0.3,5.4-2.7,7-7c3.4-8.7,5.9-21.6,6.9-27.8c2.9,3,6.6,7.2,8.4,11.5
		c2.7,6.5,4,16.7,8,17.1C93.7,110.2,94.1,106.2,92.7,101.8z"/>
	<linearGradient id="SVGID_8_" gradientUnits="userSpaceOnUse" x1="-31.3763" y1="78.8835" x2="98.7638" y2="47.1827">
		<stop  offset="0" style="stop-color:#606060"/>
		<stop  offset="0.1994" style="stop-color:#5C5C5C"/>
		<stop  offset="0.4056" style="stop-color:#4F4F4F"/>
		<stop  offset="0.6148" style="stop-color:#3B3B3B"/>
		<stop  offset="0.8249" style="stop-color:#1E1E1E"/>
		<stop  offset="1" style="stop-color:#000000"/>
	</linearGradient>
	<path class="st7" d="M59.9,64.8c0,0-3.8-2.7-8.2-7.1s-1-9.6,6.3-11.1c7.2-1.5,11.2-1.7,12.2,1.2s-1.8,3.5-6,4.1
		c-4.2,0.6-7.9,0.5-7.2,2.6c0.8,2.1,7.1,3.6,8.2,7.1S64,68.2,59.9,64.8z"/>
</g>
</svg>
