<svg id="Layer_1" data-name="Layer 1" xmlns="http://www.w3.org/2000/svg" xmlns:xlink="http://www.w3.org/1999/xlink" width="93.73" height="58.27" viewBox="0 0 93.73 58.27"><defs><style>.cls-1{fill:none;}.cls-2{opacity:0.4;}.cls-3{fill:url(#linear-gradient);}.cls-4{fill:url(#linear-gradient-2);}.cls-5{fill:url(#linear-gradient-3);}.cls-6{fill:url(#linear-gradient-4);}.cls-7{fill:url(#linear-gradient-5);}.cls-8{fill:url(#linear-gradient-6);}</style><linearGradient id="linear-gradient" x1="-8.02" y1="229.21" x2="55.73" y2="190.96" gradientUnits="userSpaceOnUse"><stop offset="0" stop-color="#606060"/><stop offset="0.2" stop-color="#5c5c5c"/><stop offset="0.41" stop-color="#4f4f4f"/><stop offset="0.61" stop-color="#3b3b3b"/><stop offset="0.82" stop-color="#1e1e1e"/><stop offset="1"/></linearGradient><linearGradient id="linear-gradient-2" x1="-23.49" y1="203.43" x2="40.26" y2="165.18" xlink:href="#linear-gradient"/><linearGradient id="linear-gradient-3" x1="-12.52" y1="221.72" x2="51.23" y2="183.47" xlink:href="#linear-gradient"/><linearGradient id="linear-gradient-4" x1="-29.79" y1="192.93" x2="33.96" y2="154.68" xlink:href="#linear-gradient"/><linearGradient id="linear-gradient-5" x1="-4.4" y1="235.25" x2="59.35" y2="197" xlink:href="#linear-gradient"/><linearGradient id="linear-gradient-6" x1="-21.52" y1="206.72" x2="42.23" y2="168.47" xlink:href="#linear-gradient"/></defs><title>rower_time_keyboard</title><rect id="backgroundrect" class="cls-1" width="93.73" height="58.27"/><g class="cls-2"><g id="svg_1" data-name="svg 1"><path id="svg_2" data-name="svg 2" class="cls-3" d="M88,170l-12.9-3a1.39,1.39,0,0,0-1.7,1.1l-0.4,1.8a1.39,1.39,0,0,0,1.1,1.7l3.7,0.9-50,9.5a2.21,2.21,0,0,0-2.4-1.1,1.76,1.76,0,0,0-1,.9,2.85,2.85,0,0,1,1.3,0,1.78,1.78,0,0,1,1.2.9,2.61,2.61,0,0,1-.8,3.6l-0.2.1a1.69,1.69,0,0,0,1.4.1,2.63,2.63,0,0,0,1.1-3.4l50.5-9.6v7.3a13,13,0,0,0-20.3,15.3l-2,3H11s-3.4-.5-3.9,1.9,3.1,2.3,3.1,2.3h4.2v3.8a1.37,1.37,0,0,0,1.4,1.4h1.9a1.37,1.37,0,0,0,1.4-1.4h0v-3.8l46.1,0.2h5V207a1.37,1.37,0,0,0,1.4,1.4h1.9a1.37,1.37,0,0,0,1.4-1.4h0v-3.8a0.9,0.9,0,0,0-.1-0.5,13,13,0,0,0,8.2-9.9,1.42,1.42,0,0,0,.2-0.6v-18.4l3.7,0.9a1.39,1.39,0,0,0,1.7-1.1l0.4-1.8a1.43,1.43,0,0,0-1-1.8h0Zm-11.1,26.6h0a8.89,8.89,0,0,1-6.3,2.9h-0.4A9,9,0,1,1,76.91,196.58Z" transform="translate(0 -154.75)"/><path id="svg_3" data-name="svg 3" class="cls-4" d="M15,174c-3.2.3-4.1,4.5-3.4,8.3l0.1,0.7a13.38,13.38,0,0,1,.9-2.6l0.2-.4c1.3-3.3,2.8-3.6,3.8-3.3a2.74,2.74,0,0,1,1.7,1.3,3.66,3.66,0,0,1-.6,3.2,13.41,13.41,0,0,0-1.3,4,10,10,0,0,0,4.7-1.8l0.3-.2,0.7-.4-1.2-3.4C19.71,176.28,18.21,173.68,15,174Z" transform="translate(0 -154.75)"/><path id="svg_4" data-name="svg 4" class="cls-5" d="M15.81,190.08a5.7,5.7,0,0,1-2.2-.4,41.06,41.06,0,0,0,2.8,6c2.2,3.8,7.1,2.2,8,1.7s12.2-4.8,21.6-2.2a45.08,45.08,0,0,1,6.3,2.9,3.7,3.7,0,0,0,4.3-2.7v-0.2c0.5-1.3-.7-5-11.6-7a43.6,43.6,0,0,0-20.6,1.7l-0.8-2.4-1.6.9A14.72,14.72,0,0,1,15.81,190.08Z" transform="translate(0 -154.75)"/><path id="svg_5" data-name="svg 5" class="cls-6" d="M13.81,160.48a6.16,6.16,0,1,1-5.9,6.4A6.09,6.09,0,0,1,13.81,160.48Z" transform="translate(0 -154.75)"/><path id="svg_6" data-name="svg 6" class="cls-7" d="M70.21,182.18h-0.3a8.31,8.31,0,1,0,8.6,8h0A8.42,8.42,0,0,0,70.21,182.18Zm0.2,13.3h0a5,5,0,1,1,4.7-5.1h0A4.84,4.84,0,0,1,70.41,195.48Z" transform="translate(0 -154.75)"/><path id="svg_7" data-name="svg 7" class="cls-8" d="M26.61,182.68c-1.2-2-4.3.2-5.5,0.9s-4.7,2.4-5.2,1.7a12.25,12.25,0,0,1,1.4-4.2c1.2-2.4.8-3.6-.9-4.1s-2.8,1.4-3.4,3.1-2.8,6.6,0,8.9,8.9-1,8.9-1l4.1-2.1A2.35,2.35,0,0,0,26.61,182.68Z" transform="translate(0 -154.75)"/></g></g></svg>