<svg xmlns="http://www.w3.org/2000/svg" xmlns:xlink="http://www.w3.org/1999/xlink" version="1.1" width="93.72973011983754" height="58.270270911161674" style="" xml:space="preserve"><rect id="backgroundrect" width="100%" height="100%" x="0" y="0" fill="none" stroke="none" style="" class=""/>
<style type="text/css">
	.st0{fill:url(#SVGID_1_);}
	.st1{fill:url(#SVGID_2_);}
	.st2{fill:url(#SVGID_3_);}
	.st3{fill:url(#SVGID_4_);}
	.st4{fill:url(#SVGID_5_);}
	.st5{fill:url(#SVGID_6_);}
</style>
<title>Rower-Selected_1</title>

<g class="currentLayer" style=""><title>Layer 1</title><g id="svg_1" class="">
	
		<linearGradient id="SVGID_1_" gradientUnits="userSpaceOnUse" x1="29.13990020751953" y1="65.1322021484375" x2="121.4728012084961" y2="81.51640319824219" gradientTransform="matrix(1 0 0 -1 0 162)" transform="translate(-12.432432174682617,-32.97297286987305) translate(-19.45945930480957,-17.29729652404785) ">
		<stop offset="0" style="stop-color:#F58220"/>
		<stop offset="0.3" style="stop-color:#F47E1E"/>
		<stop offset="0.61" style="stop-color:#F07116"/>
		<stop offset="0.93" style="stop-color:#EB5D0A"/>
		<stop offset="1" style="stop-color:#E95707"/>
	</linearGradient>
	<path class="st0" d="M88.00810852050782,15.229730606079102 l-12.9,-3 c-0.8,-0.2 -1.5,0.3000000000000001 -1.7000000000000002,1.1 l-0.4,1.8 c-0.2,0.8 0.3000000000000001,1.5 1.1,1.7000000000000002 l3.7,0.9 l-50,9.5 c-0.5,-0.9 -1.5,-1.3 -2.4,-1.1 c-0.4,0.1 -0.8,0.5 -1,0.9 c0.4,-0.1 0.9,-0.1 1.3,0 c0.5,0.1 0.9,0.4 1.2,0.9 c0.8,1.2 0.4,2.8 -0.8,3.6 l-0.2,0.1 c0.4,0.2 0.9,0.3000000000000001 1.4,0.1 c1.2,-0.7000000000000002 1.7000000000000002,-2.2 1.1,-3.4 l50.5,-9.6 v7.3 c-5.4,-4.7 -13.6,-4.2 -18.3,1.2 c-3.4,3.9 -4.2,9.4 -2,14.1 l-2,3 H11.008108520507815 c0,0 -3.4,-0.5 -3.9,1.9 s3.1,2.3 3.1,2.3 h4.2 v3.8 c0,0.8 0.6000000000000002,1.4 1.4,1.4 l0,0 h1.9 c0.8,0 1.4,-0.6000000000000002 1.4,-1.4 l0,0 v-3.8 L65.2081085205078,48.7297306060791 h5 v3.5 c0,0.8 0.6000000000000002,1.4 1.4,1.4 c0,0 0,0 0,0 h1.9 c0.8,0 1.4,-0.6000000000000002 1.4,-1.4 c0,0 0,0 0,0 v-3.8 c0,-0.2 0,-0.3000000000000001 -0.1,-0.5 c4.3,-1.6 7.4,-5.4 8.2,-9.9 c0.1,-0.2 0.2,-0.4 0.2,-0.6000000000000002 v-1.6 c0,-0.3000000000000001 0,-0.7000000000000002 0,-0.9 V19.0297306060791 l3.7,0.9 c0.8,0.2 1.5,-0.3000000000000001 1.7000000000000002,-1.1 l0.4,-1.8 C89.2081085205078,16.2297306060791 88.80810852050782,15.429730606079104 88.00810852050782,15.229730606079102 C88.00810852050782,15.229730606079102 88.00810852050782,15.229730606079102 88.00810852050782,15.229730606079102 zM76.90810852050781,41.829730606079096 L76.90810852050781,41.829730606079096 c-1.6,1.8 -3.9,2.8 -6.3,2.9 h-0.4 c-5,0 -9,-4.1 -9,-9.1 c0,-5 4.1,-9 9.1,-9 c5,0 9,4.1 9,9.1 C79.30810852050782,38.0297306060791 78.40810852050781,40.2297306060791 76.90810852050781,41.829730606079096 z" id="svg_2"/>
	
		<linearGradient id="SVGID_2_" gradientUnits="userSpaceOnUse" x1="25.96179962158203" y1="83.06159973144531" x2="118.28970336914062" y2="99.44499969482422" gradientTransform="matrix(1 0 0 -1 0 162)" transform="translate(-12.432432174682617,-32.97297286987305) translate(-19.45945930480957,-17.29729652404785) ">
		<stop offset="0" style="stop-color:#F58220"/>
		<stop offset="0.3" style="stop-color:#F47E1E"/>
		<stop offset="0.61" style="stop-color:#F07116"/>
		<stop offset="0.93" style="stop-color:#EB5D0A"/>
		<stop offset="1" style="stop-color:#E95707"/>
	</linearGradient>
	<path class="st1" d="M15.008108520507815,19.2297306060791 c-3.2,0.3000000000000001 -4.1,4.5 -3.4,8.3 l0.1,0.7000000000000002 c0.2,-0.9 0.5,-1.7000000000000002 0.9,-2.6 l0.2,-0.4 c1.3,-3.3 2.8,-3.6 3.8,-3.3 c0.7000000000000002,0.2 1.3,0.6000000000000002 1.7000000000000002,1.3 c0.3000000000000001,1.1 0.1,2.3 -0.6000000000000002,3.2 c-0.6000000000000002,1.2 -1.1,2.6 -1.3,4 c1.7000000000000002,-0.2 3.3,-0.8 4.7,-1.8 l0.3000000000000001,-0.2 l0.7000000000000002,-0.4 l-1.2,-3.4 C19.708108520507814,21.5297306060791 18.208108520507814,18.929730606079104 15.008108520507815,19.2297306060791 z" id="svg_3"/>
	
		<linearGradient id="SVGID_3_" gradientUnits="userSpaceOnUse" x1="28.939800262451172" y1="66.2323989868164" x2="121.27580261230469" y2="82.61540222167969" gradientTransform="matrix(1 0 0 -1 0 162)" transform="translate(-12.432432174682617,-32.97297286987305) translate(-19.45945930480957,-17.29729652404785) ">
		<stop offset="0" style="stop-color:#F58220"/>
		<stop offset="0.3" style="stop-color:#F47E1E"/>
		<stop offset="0.61" style="stop-color:#F07116"/>
		<stop offset="0.93" style="stop-color:#EB5D0A"/>
		<stop offset="1" style="stop-color:#E95707"/>
	</linearGradient>
	<path class="st2" d="M15.808108520507815,35.329730606079096 c-0.7000000000000002,0 -1.5,-0.1 -2.2,-0.4 c0.8,2.1 1.7000000000000002,4.1 2.8,6 c2.2,3.8 7.1,2.2 8,1.7000000000000002 c0.9,-0.5 12.2,-4.8 21.6,-2.2 c2.2,0.8 4.3,1.8 6.3,2.9 c1.9,0.4 3.8,-0.8 4.3,-2.7 v-0.2 c0.5,-1.3 -0.7000000000000002,-5 -11.6,-7 c-6.9,-1.1 -14,-0.5 -20.6,1.7000000000000002 L23.608108520507812,32.7297306060791 l-1.6,0.9 C20.108108520507812,34.62973060607911 18.008108520507815,35.2297306060791 15.808108520507815,35.329730606079096 z" id="svg_4"/>
	
		<linearGradient id="SVGID_4_" gradientUnits="userSpaceOnUse" x1="23.683799743652344" y1="95.89810180664062" x2="116.01399993896484" y2="112.27179718017578" gradientTransform="matrix(1 0 0 -1 -4.833379e-003 162.0061)" transform="translate(-12.432432174682617,-32.97297286987305) translate(-19.45945930480957,-17.29729652404785) ">
		<stop offset="0" style="stop-color:#F58220"/>
		<stop offset="0.3" style="stop-color:#F47E1E"/>
		<stop offset="0.61" style="stop-color:#F07116"/>
		<stop offset="0.93" style="stop-color:#EB5D0A"/>
		<stop offset="1" style="stop-color:#E95707"/>
	</linearGradient>
	<path class="st3" d="M13.808108520507815,5.729730606079102 c3.4,-0.1 6.3,2.5 6.4,5.9 c0.1,3.4 -2.5,6.3 -5.9,6.4 c-3.4,0.1 -6.3,-2.5 -6.4,-5.9 C7.708108520507814,8.729730606079102 10.40810852050781,5.829730606079103 13.808108520507815,5.729730606079102 z" id="svg_5"/>
	
		<linearGradient id="SVGID_5_" gradientUnits="userSpaceOnUse" x1="29.494699478149414" y1="63.11669921875" x2="121.82499694824219" y2="79.50039672851562" gradientTransform="matrix(1 0 0 -1 0 162)" transform="translate(-12.432432174682617,-32.97297286987305) translate(-19.45945930480957,-17.29729652404785) ">
		<stop offset="0" style="stop-color:#F58220"/>
		<stop offset="0.3" style="stop-color:#F47E1E"/>
		<stop offset="0.61" style="stop-color:#F07116"/>
		<stop offset="0.93" style="stop-color:#EB5D0A"/>
		<stop offset="1" style="stop-color:#E95707"/>
	</linearGradient>
	<path class="st4" d="M70.2081085205078,27.429730606079104 h-0.3000000000000001 c-4.6,0.2 -8.1,4 -8,8.6 c0.2,4.6 4,8.1 8.6,8 c4.6,-0.2 8.1,-4 8,-8.6 c0,0 0,0 0,0 l0,0 C78.30810852050782,31.0297306060791 74.60810852050781,27.429730606079104 70.2081085205078,27.429730606079104 zM70.40810852050781,40.7297306060791 L70.40810852050781,40.7297306060791 c-2.8,0.2 -5.2,-2 -5.3,-4.7 c-0.1,-2.8 2,-5.1 4.8,-5.2 c2.8,-0.1 5.1,2 5.2,4.8 c0,0 0,0 0,0 l0,0 C75.30810852050782,38.329730606079096 73.2081085205078,40.5297306060791 70.40810852050781,40.7297306060791 z" id="svg_6"/>
	
		<linearGradient id="SVGID_6_" gradientUnits="userSpaceOnUse" x1="26.628400802612305" y1="79.29440307617188" x2="118.95909881591797" y2="95.6781997680664" gradientTransform="matrix(1 0 0 -1 0 162)" transform="translate(-12.432432174682617,-32.97297286987305) translate(-19.45945930480957,-17.29729652404785) ">
		<stop offset="0" style="stop-color:#F58220"/>
		<stop offset="0.3" style="stop-color:#F47E1E"/>
		<stop offset="0.61" style="stop-color:#F07116"/>
		<stop offset="0.93" style="stop-color:#EB5D0A"/>
		<stop offset="1" style="stop-color:#E95707"/>
	</linearGradient>
	<path class="st5" d="M26.608108520507812,27.929730606079104 c-1.2,-2 -4.3,0.2 -5.5,0.9 s-4.7,2.4 -5.2,1.7000000000000002 c0.2,-1.5 0.7000000000000002,-2.9 1.4,-4.2 c1.2,-2.4 0.8,-3.6 -0.9,-4.1 c-1.7000000000000002,-0.5 -2.8,1.4 -3.4,3.1 c-0.6000000000000002,1.7000000000000002 -2.8,6.6 0,8.9 c2.8,2.4 8.9,-1 8.9,-1 l4.1,-2.1 C27.00810852050781,30.429730606079104 27.308108520507815,29.0297306060791 26.608108520507812,27.929730606079104 z" id="svg_7"/>
</g></g></svg>