<svg xmlns="http://www.w3.org/2000/svg" viewBox="0 0 99.15 24.11"><defs><style>.cls-1{fill:#fff;}</style></defs><title>Asset 1</title><g id="Layer_2" data-name="Layer 2"><g id="bttm_bar"><path class="cls-1" d="M16.91,16.44h0a1.37,1.37,0,0,1-1.6-1.93l0,0a6.4,6.4,0,0,0,0-5.34l0,0A1.44,1.44,0,0,1,16.92,7.3h0c.73.11,1.3-.58,1.3-1.53a2.11,2.11,0,0,0-1.3-2.06c-.77-.2-1.42.47-1.42,1.51h0c0,1.81-1,2.54-1.79,1.86l0,0a5.09,5.09,0,0,0-2.5-1.18,5,5,0,0,0-2.88.4c-.92.33-2.66-.79-2.66-3.1h0A3.5,3.5,0,0,0,3,.1c-1.62-.42-3,.46-3,2a3.51,3.51,0,0,0,3,3.2H3c2.4.35,3.53,1.86,3.08,3A6.39,6.39,0,0,0,5,11.87a6.41,6.41,0,0,0,1,3.46c.42,1-.51,2.75-3,3.11H3a3.51,3.51,0,0,0-3,3.2c0,1.53,1.4,2.4,3,2A3.5,3.5,0,0,0,5.68,20.5h0c0-2.25,1.43-3.52,2.54-3.16a5,5,0,0,0,3,.46,5.09,5.09,0,0,0,2.49-1.17l0,0c.66-.52,1.81,0,1.81,1.84h0c0,1,.65,1.71,1.42,1.51A2.11,2.11,0,0,0,18.22,18C18.22,17,17.65,16.33,16.91,16.44Zm-5.74-.86a3.49,3.49,0,0,1-3.69-3.71,3.49,3.49,0,0,1,3.69-3.71,3.62,3.62,0,0,1,3,3.71A3.62,3.62,0,0,1,11.18,15.58Z"/><path class="cls-1" d="M17.33,8.3h2v.84l.1-.11.13-.15a2.18,2.18,0,0,1,1.59-.74h.24v1.8l-.3-.06c-1.12-.1-1.67.48-1.67,1.59v4.12H17.33Z"/><path class="cls-1" d="M23.73,11.15a3.71,3.71,0,0,1,1,0,2.88,2.88,0,0,1,1.5.52v-.51c0-.74-.48-1.21-1.67-1.35a8.36,8.36,0,0,0-1.94,0l-.34.06V8.33a12,12,0,0,1,1.19-.13c3.41-.13,4.73,1,4.73,3.08v4.3h-2v-.65l-.22.18a3.11,3.11,0,0,1-1.94.58c-1.76,0-2.8-1.08-2.74-2.25a2.5,2.5,0,0,1,2.49-2.29m.79,3.27a2.14,2.14,0,0,0,.52,0,1.59,1.59,0,0,0,.73-.25A.88.88,0,0,0,26,12.78,1.61,1.61,0,0,0,25,12.4c-1.08-.14-1.7.35-1.74,1s.42.94,1.22,1"/><path class="cls-1" d="M29.73,8.3h2v.79l.17-.17a2.79,2.79,0,0,1,1.87-.76c1.77,0,2.87,1.15,2.87,3.23v4.19H34.55V11.66c0-1.07-.37-1.62-1.11-1.81-1-.25-1.64.31-1.64,1.43v4.3H29.73Z"/><path class="cls-1" d="M37.87,11.28A3.57,3.57,0,0,1,39.33,8.9a3.14,3.14,0,0,1,4.14.24V8.3h2v7.24c0,2-1.36,3.3-4.15,3.34a8,8,0,0,1-1.28-.1V17a3.79,3.79,0,0,0,1.18.15c1.49,0,2.16-.65,2.16-1.71v-.53a3,3,0,0,1-3.55.55,3.39,3.39,0,0,1-2-2.77,3.79,3.79,0,0,1,0-.69,4,4,0,0,1,.06-.7m2.05,1a1.78,1.78,0,0,0,3.55,0,2.57,2.57,0,0,0,0-.66,1.78,1.78,0,0,0-3.55,0,2.83,2.83,0,0,0,0,.34,2.6,2.6,0,0,0,0,.32"/><path class="cls-1" d="M49.09,8.28a3.93,3.93,0,0,1,1.47-.19,3.71,3.71,0,0,1,3.55,3.8c0,.2,0,.39,0,.59l-5.44,0a1.5,1.5,0,0,0,.84,1.34,1.83,1.83,0,0,0,1.44.13,1.9,1.9,0,0,0,.9-.57l.1-.1,1.57,1.09-.17.2a3.81,3.81,0,0,1-4,1.07A3.72,3.72,0,0,1,46.62,11a3.69,3.69,0,0,1,2.47-2.75m3.17,2.92V11.1l0-.12A1.62,1.62,0,0,0,50.6,9.6a1.81,1.81,0,0,0-1.78,1.24,2.84,2.84,0,0,0-.09.32Z"/><path class="cls-1" d="M54.51,8.3h.82V6.44L56.38,6V8.3h2l-.2.77H56.38v4.51c0,.86.55,1.32,1.64,1.25l.25,0v.81l-.25,0c-2.06.17-2.73-.55-2.73-2.71V9.07h-.94Z"/><path class="cls-1" d="M59.22,5.46l1.07-.22V9.48A3.06,3.06,0,0,1,60.73,9a3,3,0,0,1,1.45-.74,2.93,2.93,0,0,1,3.7,3.12v4.23H64.81V11.7C64.81,9.91,64,9,62.57,9a2.22,2.22,0,0,0-2.29,2.47v4.06H59.22Z"/><path class="cls-1" d="M67.32,10.44A3.65,3.65,0,0,1,70.2,8.2a3.7,3.7,0,0,1,4.29,3.55,4.36,4.36,0,0,1,0,.46l-6.34,0c0,.07,0,.13,0,.19a2.56,2.56,0,0,0,1.45,2.17,2.93,2.93,0,0,0,3.42-.6s.1-.09.14-.15l.79.56a3.91,3.91,0,0,1-.77.72,3.82,3.82,0,0,1-3.32.56,3.67,3.67,0,0,1-2.75-4.46,3.45,3.45,0,0,1,.22-.73m6.14,1V11.3l0-.14a1.42,1.42,0,0,0-.08-.36A2.52,2.52,0,0,0,70.92,9a2.66,2.66,0,0,0-2.61,1.87,2.56,2.56,0,0,0-.11.55Z"/><path class="cls-1" d="M80.21,8.1a3.64,3.64,0,0,1,3.23,3.81,3.64,3.64,0,0,1-3.23,3.81,3.78,3.78,0,0,1-4.59-3.81A3.78,3.78,0,0,1,80.21,8.1m-1.15,6.66a2.73,2.73,0,0,0,1,0,2.81,2.81,0,0,0,2.26-3.47,2.68,2.68,0,0,0-.82-1.55,2.94,2.94,0,0,0-3.85,0,2.83,2.83,0,0,0-.87,2.16,2.72,2.72,0,0,0,2.32,2.85"/><path class="cls-1" d="M84.85,8.3h1v1L86,9.16a2.37,2.37,0,0,1,2-1.07h.3v1l-.32,0a1.87,1.87,0,0,0-2.05,2v4.47H84.85Z"/><path class="cls-1" d="M89.16,8.3h1.07v4c0,1.53.52,2.25,1.73,2.47a2.48,2.48,0,0,0,1,0,2,2,0,0,0,1.78-2.23V8.3h1.05v7c0,2-1.46,3.33-4.44,3.15-.18,0-.35,0-.52,0v-.9l.51.06c2.32.13,3.39-.81,3.39-2.44v-.66c-.06.08-.13.15-.18.22a3,3,0,0,1-2.38,1,2.77,2.77,0,0,1-3-2.67,3.1,3.1,0,0,1,0-.62Z"/><path class="cls-1" d="M17.33,8.3h2v.84l.1-.11.13-.15a2.18,2.18,0,0,1,1.59-.74h.24v1.8l-.3-.06c-1.12-.1-1.67.48-1.67,1.59v4.12H17.33Z"/><path class="cls-1" d="M23.73,11.15a3.71,3.71,0,0,1,1,0,2.88,2.88,0,0,1,1.5.52v-.51c0-.74-.48-1.21-1.67-1.35a8.36,8.36,0,0,0-1.94,0l-.34.06V8.33a12,12,0,0,1,1.19-.13c3.41-.13,4.73,1,4.73,3.08v4.3h-2v-.65l-.22.18a3.11,3.11,0,0,1-1.94.58c-1.76,0-2.8-1.08-2.74-2.25a2.5,2.5,0,0,1,2.49-2.29m.79,3.27a2.14,2.14,0,0,0,.52,0,1.59,1.59,0,0,0,.73-.25A.88.88,0,0,0,26,12.78,1.61,1.61,0,0,0,25,12.4c-1.08-.14-1.7.35-1.74,1s.42.94,1.22,1"/><path class="cls-1" d="M29.73,8.3h2v.79l.17-.17a2.79,2.79,0,0,1,1.87-.76c1.77,0,2.87,1.15,2.87,3.23v4.19H34.55V11.66c0-1.07-.37-1.62-1.11-1.81-1-.25-1.64.31-1.64,1.43v4.3H29.73Z"/><path class="cls-1" d="M37.87,11.28A3.57,3.57,0,0,1,39.33,8.9a3.14,3.14,0,0,1,4.14.24V8.3h2v7.24c0,2-1.36,3.3-4.15,3.34a8,8,0,0,1-1.28-.1V17a3.79,3.79,0,0,0,1.18.15c1.49,0,2.16-.65,2.16-1.71v-.53a3,3,0,0,1-3.55.55,3.39,3.39,0,0,1-2-2.77,3.79,3.79,0,0,1,0-.69,4,4,0,0,1,.06-.7m2.05,1a1.78,1.78,0,0,0,3.55,0,2.57,2.57,0,0,0,0-.66,1.78,1.78,0,0,0-3.55,0,2.83,2.83,0,0,0,0,.34,2.6,2.6,0,0,0,0,.32"/><path class="cls-1" d="M49.09,8.28a3.93,3.93,0,0,1,1.47-.19,3.71,3.71,0,0,1,3.55,3.8c0,.2,0,.39,0,.59l-5.44,0a1.5,1.5,0,0,0,.84,1.34,1.83,1.83,0,0,0,1.44.13,1.9,1.9,0,0,0,.9-.57l.1-.1,1.57,1.09-.17.2a3.81,3.81,0,0,1-4,1.07A3.72,3.72,0,0,1,46.62,11a3.69,3.69,0,0,1,2.47-2.75m3.17,2.92V11.1l0-.12A1.62,1.62,0,0,0,50.6,9.6a1.81,1.81,0,0,0-1.78,1.24,2.84,2.84,0,0,0-.09.32Z"/><path class="cls-1" d="M54.51,8.3h.82V6.44L56.38,6V8.3h2l-.2.77H56.38v4.51c0,.86.55,1.32,1.64,1.25l.25,0v.81l-.25,0c-2.06.17-2.73-.55-2.73-2.71V9.07h-.94Z"/><path class="cls-1" d="M59.22,5.46l1.07-.22V9.48A3.06,3.06,0,0,1,60.73,9a3,3,0,0,1,1.45-.74,2.93,2.93,0,0,1,3.7,3.12v4.23H64.81V11.7C64.81,9.91,64,9,62.57,9a2.22,2.22,0,0,0-2.29,2.47v4.06H59.22Z"/><path class="cls-1" d="M67.32,10.44A3.65,3.65,0,0,1,70.2,8.2a3.7,3.7,0,0,1,4.29,3.55,4.36,4.36,0,0,1,0,.46l-6.34,0c0,.07,0,.13,0,.19a2.56,2.56,0,0,0,1.45,2.17,2.93,2.93,0,0,0,3.42-.6s.1-.09.14-.15l.79.56a3.91,3.91,0,0,1-.77.72,3.82,3.82,0,0,1-3.32.56,3.67,3.67,0,0,1-2.75-4.46,3.45,3.45,0,0,1,.22-.73m6.14,1V11.3l0-.14a1.42,1.42,0,0,0-.08-.36A2.52,2.52,0,0,0,70.92,9a2.66,2.66,0,0,0-2.61,1.87,2.56,2.56,0,0,0-.11.55Z"/><path class="cls-1" d="M80.21,8.1a3.64,3.64,0,0,1,3.23,3.81,3.64,3.64,0,0,1-3.23,3.81,3.78,3.78,0,0,1-4.59-3.81A3.78,3.78,0,0,1,80.21,8.1m-1.15,6.66a2.73,2.73,0,0,0,1,0,2.81,2.81,0,0,0,2.26-3.47,2.68,2.68,0,0,0-.82-1.55,2.94,2.94,0,0,0-3.85,0,2.83,2.83,0,0,0-.87,2.16,2.72,2.72,0,0,0,2.32,2.85"/><path class="cls-1" d="M84.85,8.3h1v1L86,9.16a2.37,2.37,0,0,1,2-1.07h.3v1l-.32,0a1.87,1.87,0,0,0-2.05,2v4.47H84.85Z"/><path class="cls-1" d="M89.16,8.3h1.07v4c0,1.53.52,2.25,1.73,2.47a2.48,2.48,0,0,0,1,0,2,2,0,0,0,1.78-2.23V8.3h1.05v7c0,2-1.46,3.33-4.44,3.15-.18,0-.35,0-.52,0v-.9l.51.06c2.32.13,3.39-.81,3.39-2.44v-.66c-.06.08-.13.15-.18.22a3,3,0,0,1-2.38,1,2.77,2.77,0,0,1-3-2.67,3.1,3.1,0,0,1,0-.62Z"/><polygon class="cls-1" points="22.39 21.9 22.39 22.36 20.14 22.36 20.14 23.81 19.58 23.81 19.58 20.41 23.11 20.41 23.11 20.89 20.14 20.89 20.14 21.9 22.39 21.9"/><polygon class="cls-1" points="23.33 21.11 23.33 20.19 19.36 20.19 19.36 24.02 20.36 24.02 20.36 22.58 22.61 22.58 22.61 21.68 20.36 21.68 20.36 21.11 23.33 21.11"/><rect class="cls-1" x="31.64" y="20.19" width="0.99" height="3.83"/><polygon class="cls-1" points="40.89 21.11 42.66 21.11 42.66 24.02 43.66 24.02 43.66 21.11 45.44 21.11 45.44 20.19 40.89 20.19 40.89 21.11"/><polygon class="cls-1" points="57.1 22.43 53.97 20.14 53.64 20.14 53.64 24.02 54.63 24.02 54.63 21.77 57.77 24.11 58.09 24.11 58.09 20.19 57.1 20.19 57.1 22.43"/><polygon class="cls-1" points="67.61 22.51 69.72 22.51 69.72 21.61 67.61 21.61 67.61 21.11 70.53 21.11 70.53 20.19 66.62 20.19 66.62 24.02 70.67 24.02 70.67 23.11 67.61 23.11 67.61 22.51"/><path class="cls-1" d="M81.54,21.61l-1.07,0c-.71,0-.71-.16-.71-.22s.41-.33,1.09-.33a3.11,3.11,0,0,1,1.63.35l.19.1.43-.81-.19-.1a4.12,4.12,0,0,0-2.07-.42c-1.32,0-2.08.46-2.08,1.25,0,1,1.16,1.07,1.6,1.1l1.07,0c.8,0,.8.16.8.27s-.45.41-1.21.41a3.12,3.12,0,0,1-1.75-.43l-.18-.12-.53.77.19.12a4,4,0,0,0,2.27.54c1.41,0,2.22-.49,2.22-1.33C83.23,21.7,82.09,21.64,81.54,21.61Z"/><path class="cls-1" d="M94,21.61l-1.07,0c-.71,0-.71-.16-.71-.22s.41-.33,1.09-.33a3.12,3.12,0,0,1,1.63.35l.19.1.43-.81-.19-.1a4.12,4.12,0,0,0-2.07-.42c-1.32,0-2.08.46-2.08,1.25,0,1,1.16,1.07,1.6,1.1l1.07,0c.79,0,.79.16.79.27s-.45.41-1.21.41a3.12,3.12,0,0,1-1.75-.43l-.18-.12-.53.77.19.12a4,4,0,0,0,2.27.54c1.41,0,2.22-.49,2.22-1.33C95.73,21.7,94.58,21.64,94,21.61Z"/><path class="cls-1" d="M97.81,5.61a1.32,1.32,0,1,1-1.36,1.32A1.33,1.33,0,0,1,97.8,5.61Zm0,.26a1.05,1.05,0,0,0,0,2.1,1,1,0,0,0,1-1.05,1,1,0,0,0-1-1.05Zm-.2,1.73h-.31V6.3a2.52,2.52,0,0,1,.51,0,.74.74,0,0,1,.46.1.36.36,0,0,1,.13.28.34.34,0,0,1-.27.31V7a.38.38,0,0,1,.24.32.86.86,0,0,0,.1.32h-.33A1,1,0,0,1,98,7.3c0-.14-.1-.21-.27-.21h-.14Zm0-.74h.14c.17,0,.31-.06.31-.19s-.09-.2-.28-.2l-.17,0Z"/></g></g></svg>