<?xml version="1.0" encoding="utf-8"?>
<!-- Generator: Adobe Illustrator 21.0.0, SVG Export Plug-In . SVG Version: 6.00 Build 0)  -->
<svg version="1.1" id="Isolation_Mode" xmlns="http://www.w3.org/2000/svg" xmlns:xlink="http://www.w3.org/1999/xlink" x="0px"
	 y="0px" viewBox="0 0 165 160" style="enable-background:new 0 0 165 160;" xml:space="preserve">
<style type="text/css">
	.st0{fill:url(#SVGID_1_);}
	.st1{fill:url(#SVGID_2_);}
	.st2{fill:url(#SVGID_3_);}
	.st3{fill:url(#SVGID_4_);}
	.st4{fill:url(#SVGID_5_);}
	.st5{fill:url(#SVGID_6_);}
	.st6{fill:url(#SVGID_7_);}
	.st7{fill:url(#SVGID_8_);}
	.st8{fill:url(#SVGID_9_);}
	.st9{fill:url(#SVGID_10_);}
	.st10{fill:url(#SVGID_11_);}
	.st11{fill:url(#SVGID_12_);}
	.st12{fill:url(#SVGID_13_);}
	.st13{fill:url(#SVGID_14_);}
	.st14{fill:url(#SVGID_15_);}
	.st15{fill:url(#SVGID_16_);}
	.st16{fill:url(#SVGID_17_);}
	.st17{fill:url(#SVGID_18_);}
	.st18{fill:#FFFFFF;}
	.st19{fill:url(#SVGID_19_);}
	.st20{fill:url(#SVGID_20_);}
	.st21{fill:url(#SVGID_21_);}
	.st22{fill:url(#SVGID_22_);}
	.st23{fill:url(#SVGID_23_);}
	.st24{fill:url(#SVGID_24_);}
	.st25{fill:url(#SVGID_25_);}
	.st26{fill:url(#SVGID_26_);}
	.st27{fill:url(#SVGID_27_);}
	.st28{fill:url(#SVGID_28_);}
	.st29{fill:url(#SVGID_29_);}
	.st30{fill:url(#SVGID_30_);}
	.st31{opacity:0.4;}
	.st32{fill:url(#SVGID_31_);}
	.st33{fill:url(#SVGID_32_);}
	.st34{fill:url(#SVGID_33_);}
	.st35{fill:url(#SVGID_34_);}
	.st36{fill:url(#SVGID_35_);}
	.st37{fill:url(#SVGID_36_);}
	.st38{fill:url(#SVGID_37_);}
	.st39{fill:url(#SVGID_38_);}
	.st40{fill:url(#SVGID_39_);}
	.st41{fill:url(#SVGID_40_);}
	.st42{fill:url(#SVGID_41_);}
	.st43{fill:url(#SVGID_42_);}
	.st44{fill:url(#SVGID_43_);}
	.st45{fill:url(#SVGID_44_);}
	.st46{fill:url(#SVGID_45_);}
	.st47{fill:url(#SVGID_46_);}
	.st48{fill:url(#SVGID_47_);}
	.st49{fill:url(#SVGID_48_);}
	.st50{fill:url(#SVGID_49_);}
	.st51{fill:url(#SVGID_50_);}
	.st52{fill:url(#SVGID_51_);}
	.st53{fill:url(#SVGID_52_);}
	.st54{fill:url(#SVGID_53_);}
	.st55{fill:url(#SVGID_54_);}
	.st56{fill:url(#SVGID_55_);}
	.st57{fill:url(#SVGID_56_);}
	.st58{fill:url(#SVGID_57_);}
	.st59{fill:url(#SVGID_58_);}
	.st60{fill:url(#SVGID_59_);}
	.st61{fill:url(#SVGID_60_);}
	.st62{fill:url(#SVGID_61_);}
	.st63{fill:url(#SVGID_62_);}
	.st64{fill:url(#SVGID_63_);}
	.st65{fill:url(#SVGID_64_);}
	.st66{fill:url(#SVGID_65_);}
	.st67{fill:url(#SVGID_66_);}
	.st68{fill:url(#SVGID_67_);}
	.st69{fill:url(#SVGID_68_);}
	.st70{fill:url(#SVGID_69_);}
	.st71{fill:url(#SVGID_70_);}
	.st72{fill:url(#SVGID_71_);}
	.st73{fill:url(#SVGID_72_);}
	.st74{fill:url(#SVGID_73_);}
	.st75{fill:url(#SVGID_74_);}
	.st76{fill:url(#SVGID_75_);}
	.st77{fill:url(#SVGID_76_);}
	.st78{fill:url(#SVGID_77_);}
	.st79{fill:url(#SVGID_78_);}
	.st80{fill:url(#SVGID_79_);}
	.st81{fill:url(#SVGID_80_);}
	.st82{fill:url(#SVGID_81_);}
	.st83{fill:url(#SVGID_82_);}
	.st84{fill:url(#SVGID_83_);}
	.st85{fill:url(#SVGID_84_);}
	.st86{fill:url(#SVGID_85_);}
	.st87{fill:url(#SVGID_86_);}
	.st88{fill:url(#SVGID_87_);}
	.st89{fill:url(#SVGID_88_);}
	.st90{fill:url(#SVGID_89_);}
	.st91{fill:url(#SVGID_90_);}
	.st92{fill:url(#SVGID_91_);}
	.st93{fill:url(#SVGID_92_);}
	.st94{fill:url(#SVGID_93_);}
	.st95{fill:url(#SVGID_94_);}
	.st96{fill:url(#SVGID_95_);}
	.st97{fill:url(#SVGID_96_);}
	.st98{fill:url(#SVGID_97_);}
	.st99{fill:url(#SVGID_98_);}
	.st100{fill:url(#SVGID_99_);}
	.st101{fill:url(#SVGID_100_);}
	.st102{fill:url(#SVGID_101_);}
	.st103{fill:url(#SVGID_102_);}
	.st104{fill:url(#SVGID_103_);}
	.st105{fill:url(#SVGID_104_);}
	.st106{fill:url(#SVGID_105_);}
	.st107{fill:url(#SVGID_106_);}
	.st108{fill:url(#SVGID_107_);}
	.st109{fill:url(#SVGID_108_);}
	.st110{fill:url(#SVGID_109_);}
	.st111{fill:url(#SVGID_110_);}
	.st112{fill:url(#SVGID_111_);}
	.st113{fill:url(#SVGID_112_);}
	.st114{fill:url(#SVGID_113_);}
	.st115{fill:url(#SVGID_114_);}
	.st116{fill:url(#SVGID_115_);}
	.st117{fill:url(#SVGID_116_);}
	.st118{fill:url(#SVGID_117_);}
	.st119{fill:url(#SVGID_118_);}
	.st120{fill:url(#SVGID_119_);}
	.st121{fill:url(#SVGID_120_);}
	.st122{fill:url(#SVGID_121_);}
	.st123{fill:url(#SVGID_122_);}
	.st124{fill:url(#SVGID_123_);}
	.st125{fill:url(#SVGID_124_);}
	.st126{fill:url(#SVGID_125_);}
	.st127{fill:url(#SVGID_126_);}
	.st128{fill:url(#SVGID_127_);}
	.st129{fill:url(#SVGID_128_);}
	.st130{fill:url(#SVGID_129_);}
	.st131{fill:url(#SVGID_130_);}
	.st132{fill:url(#SVGID_131_);}
	.st133{fill:url(#SVGID_132_);}
	.st134{fill:url(#SVGID_133_);}
	.st135{fill:url(#SVGID_134_);}
	.st136{fill:url(#SVGID_135_);}
	.st137{fill:url(#SVGID_136_);}
	.st138{fill:url(#SVGID_137_);}
	.st139{fill:url(#SVGID_138_);}
	.st140{fill:url(#SVGID_139_);}
	.st141{fill:url(#SVGID_140_);}
	.st142{fill:url(#SVGID_141_);}
	.st143{fill:url(#SVGID_142_);}
	.st144{fill:url(#SVGID_143_);}
	.st145{fill:url(#SVGID_144_);}
	.st146{fill:url(#SVGID_145_);}
	.st147{fill:url(#SVGID_146_);}
	.st148{fill:url(#SVGID_147_);}
	.st149{fill:url(#SVGID_148_);}
	.st150{fill:url(#SVGID_149_);}
	.st151{fill:url(#SVGID_150_);}
	.st152{fill:url(#SVGID_151_);}
	.st153{fill:url(#SVGID_152_);}
	.st154{fill:url(#SVGID_153_);}
	.st155{fill:url(#SVGID_154_);}
	.st156{fill:url(#SVGID_155_);}
	.st157{fill:url(#SVGID_156_);}
	.st158{fill:url(#SVGID_157_);}
	.st159{fill:url(#SVGID_158_);}
	.st160{fill:url(#SVGID_159_);}
	.st161{fill:url(#SVGID_160_);}
	.st162{fill:url(#SVGID_161_);}
	.st163{fill:url(#SVGID_162_);}
	.st164{fill:url(#SVGID_163_);}
	.st165{fill:url(#SVGID_164_);}
	.st166{fill:url(#SVGID_165_);}
	.st167{fill:url(#SVGID_166_);}
	.st168{fill:url(#SVGID_167_);}
	.st169{fill:url(#SVGID_168_);}
	.st170{fill:url(#SVGID_169_);}
	.st171{fill:url(#SVGID_170_);}
	.st172{fill:url(#SVGID_171_);}
	.st173{fill:url(#SVGID_172_);}
	.st174{fill:url(#SVGID_173_);}
	.st175{fill:url(#SVGID_174_);}
	.st176{fill:url(#SVGID_175_);}
	.st177{fill:url(#SVGID_176_);}
	.st178{fill:url(#SVGID_177_);}
	.st179{fill:url(#SVGID_178_);}
	.st180{fill:url(#SVGID_179_);}
	.st181{fill:url(#SVGID_180_);}
	.st182{fill:url(#SVGID_181_);}
	.st183{fill:url(#SVGID_182_);}
	.st184{fill:url(#SVGID_183_);}
	.st185{fill:url(#SVGID_184_);}
	.st186{fill:url(#SVGID_185_);}
	.st187{fill:#E7E7E7;}
	.st188{fill:url(#SVGID_186_);}
	.st189{fill:url(#SVGID_187_);}
	.st190{fill:url(#SVGID_188_);}
	.st191{fill:url(#SVGID_189_);}
	.st192{fill:url(#SVGID_190_);}
	.st193{fill:url(#SVGID_191_);}
	.st194{fill:url(#SVGID_192_);}
	.st195{fill:url(#SVGID_193_);}
	.st196{fill:url(#SVGID_194_);}
	.st197{fill:url(#SVGID_195_);}
	.st198{fill:url(#SVGID_196_);}
	.st199{fill:url(#SVGID_197_);}
	.st200{fill:url(#SVGID_198_);}
	.st201{fill:url(#SVGID_199_);}
	.st202{fill:url(#SVGID_200_);}
	.st203{fill:url(#SVGID_201_);}
	.st204{fill:url(#SVGID_202_);}
	.st205{fill:url(#SVGID_203_);}
	.st206{fill:url(#SVGID_204_);}
	.st207{fill:url(#SVGID_205_);}
	.st208{fill:url(#SVGID_206_);}
	.st209{fill:url(#SVGID_207_);}
	.st210{fill:url(#SVGID_208_);}
	.st211{fill:url(#SVGID_209_);}
	.st212{fill:url(#SVGID_210_);}
	.st213{fill:url(#SVGID_211_);}
	.st214{fill:url(#SVGID_212_);}
	.st215{fill:url(#SVGID_213_);}
	.st216{fill:url(#SVGID_214_);}
	.st217{fill:url(#SVGID_215_);}
	.st218{fill:url(#SVGID_216_);}
	.st219{fill:url(#SVGID_217_);}
	.st220{fill:url(#SVGID_218_);}
	.st221{fill:url(#SVGID_219_);}
	.st222{fill:url(#SVGID_220_);}
	.st223{fill:url(#SVGID_221_);}
	.st224{fill:url(#SVGID_222_);}
	.st225{fill:url(#SVGID_223_);}
	.st226{fill:url(#SVGID_224_);}
	.st227{fill:url(#SVGID_225_);}
	.st228{fill:url(#SVGID_226_);}
	.st229{fill:url(#SVGID_227_);}
	.st230{fill:url(#SVGID_228_);}
	.st231{fill:url(#SVGID_229_);}
	.st232{fill:url(#SVGID_230_);}
	.st233{fill:url(#SVGID_231_);}
	.st234{fill:url(#SVGID_232_);}
	.st235{fill:url(#SVGID_233_);}
	.st236{fill:url(#SVGID_234_);}
	.st237{fill:url(#SVGID_235_);}
	.st238{fill:url(#SVGID_236_);}
	.st239{fill:url(#SVGID_237_);}
	.st240{fill:url(#SVGID_238_);}
	.st241{fill:url(#SVGID_239_);}
	.st242{fill:url(#SVGID_240_);}
	.st243{fill:url(#SVGID_241_);}
	.st244{fill:url(#SVGID_242_);}
	.st245{fill:#333333;}
	.st246{fill:url(#SVGID_243_);}
	.st247{fill:url(#SVGID_244_);}
	.st248{fill:url(#SVGID_245_);}
	.st249{fill:url(#SVGID_246_);}
	.st250{fill:url(#SVGID_247_);}
	.st251{fill:url(#SVGID_248_);}
	.st252{fill:url(#SVGID_249_);}
	.st253{fill:url(#SVGID_250_);}
	.st254{fill:url(#SVGID_251_);}
	.st255{fill:url(#SVGID_252_);}
	.st256{fill:url(#SVGID_253_);}
	.st257{fill:url(#SVGID_254_);}
	.st258{fill:url(#SVGID_255_);}
	.st259{fill:url(#SVGID_256_);}
	.st260{fill:url(#SVGID_257_);}
	.st261{fill:url(#SVGID_258_);}
	.st262{fill:url(#SVGID_259_);}
	.st263{fill:url(#SVGID_260_);}
	.st264{fill:url(#SVGID_261_);}
	.st265{fill:url(#SVGID_262_);}
	.st266{fill:url(#SVGID_263_);}
	.st267{fill:url(#SVGID_264_);}
	.st268{fill:url(#SVGID_265_);}
	.st269{fill:url(#SVGID_266_);}
	.st270{fill:url(#SVGID_267_);}
	.st271{fill:url(#SVGID_268_);}
	.st272{fill:url(#SVGID_269_);}
	.st273{fill:url(#SVGID_270_);}
	.st274{fill:url(#SVGID_271_);}
	.st275{fill:url(#SVGID_272_);}
	.st276{fill:url(#SVGID_273_);}
	.st277{fill:url(#SVGID_274_);}
	.st278{fill:url(#SVGID_275_);}
	.st279{fill:url(#SVGID_276_);}
	.st280{fill:url(#SVGID_277_);}
	.st281{fill:url(#SVGID_278_);}
	.st282{fill:url(#SVGID_279_);}
	.st283{fill:url(#SVGID_280_);}
	.st284{fill:url(#SVGID_281_);}
	.st285{fill:url(#SVGID_282_);}
	.st286{fill:url(#SVGID_283_);}
	.st287{fill:url(#SVGID_284_);}
	.st288{fill:url(#SVGID_285_);}
	.st289{fill:url(#SVGID_286_);}
	.st290{fill:url(#SVGID_287_);}
	.st291{fill:url(#SVGID_288_);}
	.st292{fill:url(#SVGID_289_);}
	.st293{fill:url(#SVGID_290_);}
	.st294{opacity:0.8;fill:url(#SVGID_291_);}
	.st295{opacity:0.8;fill:url(#SVGID_292_);}
	.st296{fill:url(#SVGID_293_);}
	.st297{opacity:0.8;}
	.st298{fill:url(#SVGID_294_);}
	.st299{fill:url(#SVGID_295_);}
	.st300{fill:url(#SVGID_296_);}
	.st301{fill:url(#SVGID_297_);}
	.st302{fill:url(#SVGID_298_);}
	.st303{fill:url(#SVGID_299_);}
	.st304{fill:url(#SVGID_300_);}
	.st305{fill:url(#SVGID_301_);}
	.st306{fill:url(#SVGID_302_);}
	.st307{fill:url(#SVGID_303_);}
	.st308{fill:url(#SVGID_304_);}
	.st309{fill:url(#SVGID_305_);}
	.st310{fill:url(#SVGID_306_);}
	.st311{fill:url(#SVGID_307_);}
	.st312{fill:url(#SVGID_308_);}
	.st313{fill:url(#SVGID_309_);}
	.st314{fill:url(#SVGID_310_);}
	.st315{fill:url(#SVGID_311_);}
	.st316{fill:url(#SVGID_312_);}
	.st317{fill:url(#SVGID_313_);}
	.st318{fill:url(#SVGID_314_);}
	.st319{fill:url(#SVGID_315_);}
	.st320{fill:url(#SVGID_316_);}
	.st321{fill:url(#SVGID_317_);}
	.st322{fill:url(#SVGID_318_);}
	.st323{fill:url(#SVGID_319_);}
	.st324{fill:url(#SVGID_320_);}
	.st325{fill:url(#SVGID_321_);}
	.st326{fill:url(#SVGID_322_);}
	.st327{fill:url(#SVGID_323_);}
	.st328{fill:url(#SVGID_324_);}
	.st329{fill:url(#SVGID_325_);}
	.st330{fill:url(#SVGID_326_);}
	.st331{fill:url(#SVGID_327_);}
	.st332{fill:url(#SVGID_328_);}
	.st333{fill:url(#SVGID_329_);}
	.st334{fill:url(#SVGID_330_);}
	.st335{fill:url(#SVGID_331_);}
	.st336{fill:url(#SVGID_332_);}
	.st337{fill:url(#SVGID_333_);}
	.st338{fill:url(#SVGID_334_);}
	.st339{fill:url(#SVGID_335_);}
	.st340{fill:url(#SVGID_336_);}
	.st341{fill:url(#SVGID_337_);}
	.st342{fill:url(#SVGID_338_);}
	.st343{fill:url(#SVGID_339_);}
	.st344{fill:url(#SVGID_340_);}
	.st345{fill:url(#SVGID_341_);}
	.st346{fill:url(#SVGID_342_);}
	.st347{fill:url(#SVGID_343_);}
	.st348{fill:url(#SVGID_344_);}
	.st349{fill:url(#SVGID_345_);}
	.st350{fill:url(#SVGID_346_);}
	.st351{fill:url(#SVGID_347_);}
	.st352{fill:url(#SVGID_348_);}
	.st353{fill:url(#SVGID_349_);}
	.st354{fill:url(#SVGID_350_);}
	.st355{fill:url(#SVGID_351_);}
	.st356{fill:url(#SVGID_352_);}
	.st357{fill:url(#SVGID_353_);}
	.st358{fill:url(#SVGID_354_);}
	.st359{fill:url(#SVGID_355_);}
	.st360{fill:url(#SVGID_356_);}
	.st361{fill:url(#SVGID_357_);}
	.st362{fill:url(#SVGID_358_);}
	.st363{fill:#F48220;}
</style>
<g class="st31">
	<linearGradient id="SVGID_1_" gradientUnits="userSpaceOnUse" x1="-4.695" y1="92.6553" x2="105.4937" y2="69.8051">
		<stop  offset="0" style="stop-color:#606060"/>
		<stop  offset="0.1994" style="stop-color:#5C5C5C"/>
		<stop  offset="0.4056" style="stop-color:#4F4F4F"/>
		<stop  offset="0.6148" style="stop-color:#3B3B3B"/>
		<stop  offset="0.8249" style="stop-color:#1E1E1E"/>
		<stop  offset="1" style="stop-color:#000000"/>
	</linearGradient>
	<path class="st0" d="M117.6,67.8c0.2-0.2,0.4-0.3,0.6-0.6l0.4-0.6c-1.3,0.3-2.6,0.5-4,0.6C115.3,68.2,116.6,68.5,117.6,67.8z"/>
	<linearGradient id="SVGID_2_" gradientUnits="userSpaceOnUse" x1="-12.607" y1="54.5015" x2="97.5816" y2="31.6513">
		<stop  offset="0" style="stop-color:#606060"/>
		<stop  offset="0.1994" style="stop-color:#5C5C5C"/>
		<stop  offset="0.4056" style="stop-color:#4F4F4F"/>
		<stop  offset="0.6148" style="stop-color:#3B3B3B"/>
		<stop  offset="0.8249" style="stop-color:#1E1E1E"/>
		<stop  offset="1" style="stop-color:#000000"/>
	</linearGradient>
	<circle class="st1" cx="97.4" cy="31.7" r="10.2"/>
	<linearGradient id="SVGID_3_" gradientUnits="userSpaceOnUse" x1="-7.943" y1="76.9925" x2="102.2456" y2="54.1423">
		<stop  offset="0" style="stop-color:#606060"/>
		<stop  offset="0.1994" style="stop-color:#5C5C5C"/>
		<stop  offset="0.4056" style="stop-color:#4F4F4F"/>
		<stop  offset="0.6148" style="stop-color:#3B3B3B"/>
		<stop  offset="0.8249" style="stop-color:#1E1E1E"/>
		<stop  offset="1" style="stop-color:#000000"/>
	</linearGradient>
	<path class="st2" d="M89.1,44.3c-0.8-1.8-3-2.6-4.8-1.7c-1.8,0.8-2.6,3-1.7,4.8c2.2,4.4,5.2,8.3,8.9,11.6
		c6.2,5.8,14.6,8.7,23.1,7.8c1.7-0.2,3.4-0.5,5-0.9c1.3-0.6,2.2-2,2.1-3.4c-0.1-2-1.8-3.5-3.8-3.4C98.6,63.9,89.5,45.1,89.1,44.3z"
		/>
	<linearGradient id="SVGID_4_" gradientUnits="userSpaceOnUse" x1="-5.4131" y1="89.1923" x2="104.7755" y2="66.3421">
		<stop  offset="0" style="stop-color:#606060"/>
		<stop  offset="0.1994" style="stop-color:#5C5C5C"/>
		<stop  offset="0.4056" style="stop-color:#4F4F4F"/>
		<stop  offset="0.6148" style="stop-color:#3B3B3B"/>
		<stop  offset="0.8249" style="stop-color:#1E1E1E"/>
		<stop  offset="1" style="stop-color:#000000"/>
	</linearGradient>
	<path class="st3" d="M81.4,77.4c6,2,10.2,7.4,10.8,13.6c0.3,3,1,8.6,5.4,8.2c2.3,0,4.4-1.3,5.5-3.3c0,0,2-3.9-3.2-16.2
		c-5.2-12.3-19.7-14.7-19.7-14.7s4.5-5.8,7.4-9.3c-2.2-2.5-4.1-5.3-5.6-8.3c-1-2.1-0.2-4.7,2-5.7c2.1-1,4.7-0.2,5.7,2
		c1.4,2.8,3.2,5.3,5.3,7.5c-1.2-3.6-2.1-7.9-6.3-10.9c-5.2-3.8-12.4,2.3-12.4,2.3S64.7,53.9,62.7,64.5S72.9,74.5,81.4,77.4z"/>
	<linearGradient id="SVGID_5_" gradientUnits="userSpaceOnUse" x1="-6.15" y1="85.6387" x2="104.0386" y2="62.7885">
		<stop  offset="0" style="stop-color:#606060"/>
		<stop  offset="0.1994" style="stop-color:#5C5C5C"/>
		<stop  offset="0.4056" style="stop-color:#4F4F4F"/>
		<stop  offset="0.6148" style="stop-color:#3B3B3B"/>
		<stop  offset="0.8249" style="stop-color:#1E1E1E"/>
		<stop  offset="1" style="stop-color:#000000"/>
	</linearGradient>
	<path class="st4" d="M90.7,59.6l-1.3-1.3c6.8,13.2,21.3,11.9,23.8,9.5h-1.8C103.7,67.8,96.3,64.8,90.7,59.6z"/>
	<linearGradient id="SVGID_6_" gradientUnits="userSpaceOnUse" x1="0.7172" y1="118.754" x2="110.9058" y2="95.9038">
		<stop  offset="0" style="stop-color:#606060"/>
		<stop  offset="0.1994" style="stop-color:#5C5C5C"/>
		<stop  offset="0.4056" style="stop-color:#4F4F4F"/>
		<stop  offset="0.6148" style="stop-color:#3B3B3B"/>
		<stop  offset="0.8249" style="stop-color:#1E1E1E"/>
		<stop  offset="1" style="stop-color:#000000"/>
	</linearGradient>
	<path class="st5" d="M56.1,90c-9.5,0-17.2,7.7-17.2,17.2c0,9.5,7.7,17.2,17.2,17.2c9.5,0,17.2-7.7,17.2-17.2
		C73.3,97.8,65.6,90,56.1,90z M56.1,117.3c-5.5,0-10-4.5-10-10c0-5.5,4.5-10,10-10c5.5,0,10,4.5,10,10
		C66.1,112.8,61.6,117.3,56.1,117.3z"/>
	<linearGradient id="SVGID_7_" gradientUnits="userSpaceOnUse" x1="1.5233" y1="122.6411" x2="111.7119" y2="99.7909">
		<stop  offset="0" style="stop-color:#606060"/>
		<stop  offset="0.1994" style="stop-color:#5C5C5C"/>
		<stop  offset="0.4056" style="stop-color:#4F4F4F"/>
		<stop  offset="0.6148" style="stop-color:#3B3B3B"/>
		<stop  offset="0.8249" style="stop-color:#1E1E1E"/>
		<stop  offset="1" style="stop-color:#000000"/>
	</linearGradient>
	<path class="st6" d="M79,110.2c0-3.7,1.3-7.3,3.6-10.2l-1.1-1.4c-1.8,0-3.4,0.1-5.1,0.3C73.1,91,65.2,85.4,56.1,85.4
		c-12.1,0-21.9,9.8-21.9,21.9c0,8.1,4.4,15.2,11,19l-3.5,6.7h-5.8h0c-1.5,0-2.8,1.2-2.8,2.8c0,1.5,1.2,2.8,2.8,2.8h16.2h0
		c1.5,0,2.8-1.2,2.8-2.8c0-1.5-1.2-2.8-2.8-2.8h-4.1l2.4-4.6c1.8,0.5,3.8,0.8,5.7,0.8c5.7,0,10.9-2.2,14.8-5.8
		c4.8,0.5,9.6,0.4,14.3-0.2C81.2,120.1,78.9,115.3,79,110.2z M38.1,107.3c0-9.9,8-18,18-18s18,8,18,18c0,9.9-8.1,18-18,18
		C46.2,125.2,38.1,117.2,38.1,107.3z"/>
	<linearGradient id="SVGID_8_" gradientUnits="userSpaceOnUse" x1="1.1587" y1="120.8828" x2="111.3473" y2="98.0326">
		<stop  offset="0" style="stop-color:#606060"/>
		<stop  offset="0.1994" style="stop-color:#5C5C5C"/>
		<stop  offset="0.4056" style="stop-color:#4F4F4F"/>
		<stop  offset="0.6148" style="stop-color:#3B3B3B"/>
		<stop  offset="0.8249" style="stop-color:#1E1E1E"/>
		<stop  offset="1" style="stop-color:#000000"/>
	</linearGradient>
	<path class="st7" d="M130.7,59.3C130.7,59.3,130.7,59.2,130.7,59.3c-0.5-0.4-1-0.5-1.5-0.5l-3.8-2.1l0.7-1.1c0.7-1,0.5-2.3-0.5-3
		c-1-0.7-2.3-0.5-3,0.5c0,0,0,0,0,0l-3.7,5.3c1.6,0.1,2.9,1.1,3.5,2.5l1.1-1.6l2.6,1.4l-21.8,29.5c0.6,2.1,0.6,4.2,0,6.3
		c-0.1,0.2-0.3,0.4-0.4,0.6l-0.1,0c-0.9,1.4-2.3,2.4-3.8,3c-0.2,0.1-0.3,0.1-0.5,0.2c0,0,0,0,0,0c-0.6,0.2-1.2,0.3-1.8,0.3h-0.6
		c-3.5,0-5-2.8-5.7-5.5c-0.5,0.1-0.9,0.3-1.3,0.5c0.1-1,0.3-2,0.3-3.1c0-0.4,0-0.9-0.1-1.3c-0.6-5.6-4.3-10.4-9.6-12.2
		c-2-0.6-4-1.2-6.1-1.6c-3.9-0.6-7.6-1.9-10.8-4.1h-5.2c-1.4,0-2.6,1.2-2.6,2.6c0,1.4,1.2,2.6,2.6,2.6h5.9c0.1,0.2,0.2,0.4,0.4,0.6
		L83,99.4c1.2-1.4,2.6-2.6,4.1-3.5L71.8,78.5h2.7c0.6,0.5,1.1,0.9,1.6,1.4c2.7,2.5,4.7,5.6,5.9,9.1l6.4,7.2
		c-6.4,3.3-10,10.6-8.1,17.9c2.2,8.4,10.7,13.4,19.1,11.2c2.2-0.6,4.2-1.6,5.9-3l6.8,10.6h-4.3h0c-1.5,0-2.8,1.2-2.8,2.8
		c0,1.5,1.2,2.8,2.8,2.8H124h0c1.5,0,2.8-1.2,2.8-2.8c0-1.5-1.2-2.8-2.8-2.8h-5.3l-9.6-15c1.9-3.4,2.6-7.6,1.5-11.7
		c-0.8-3.1-2.6-5.9-5.1-8l25.9-35.2C132.3,61.9,132,60.1,130.7,59.3z M95.2,115.2c-2.8,0-5-2.2-5-5s2.2-5,5-5c0.1,0,0.2,0,0.3,0
		l-0.8,4.2l0,0c-0.1,0.5,0.2,1,0.7,1.1c0.5,0.1,1-0.2,1.1-0.7l0.8-4.1c1.7,0.8,2.9,2.5,2.9,4.5C100.2,113,98,115.2,95.2,115.2z"/>
</g>
</svg>
