<?xml version="1.0" encoding="utf-8"?>
<!-- Generator: Adobe Illustrator 21.1.0, SVG Export Plug-In . SVG Version: 6.00 Build 0)  -->
<svg version="1.1" id="Layer_1" xmlns="http://www.w3.org/2000/svg" xmlns:xlink="http://www.w3.org/1999/xlink" x="0px" y="0px"
	 viewBox="0 0 88.5 69.9" style="enable-background:new 0 0 88.5 69.9;" xml:space="preserve">
<style type="text/css">
	.st0{fill:url(#SVGID_1_);}
	.st1{fill:url(#SVGID_2_);}
	.st2{fill:url(#SVGID_3_);}
	.st3{fill:url(#SVGID_4_);}
	.st4{fill:url(#SVGID_5_);}
	.st5{fill:url(#SVGID_6_);}
	.st6{fill:url(#SVGID_7_);}
	.st7{fill:url(#SVGID_8_);}
	.st8{fill:url(#SVGID_9_);}
	.st9{fill:url(#SVGID_10_);}
	.st10{fill:url(#SVGID_11_);}
	.st11{fill:url(#SVGID_12_);}
	.st12{fill:url(#SVGID_13_);}
	.st13{fill:url(#SVGID_14_);}
	.st14{fill:url(#SVGID_15_);}
	.st15{fill:url(#SVGID_16_);}
	.st16{fill:url(#SVGID_17_);}
</style>
<title>DriTri-Selected_1</title>
<linearGradient id="SVGID_1_" gradientUnits="userSpaceOnUse" x1="554.5017" y1="597.0629" x2="523.6683" y2="620.4796" gradientTransform="matrix(1 0 0 1 0 -965.7603)">
	<stop  offset="0" style="stop-color:#F58220"/>
	<stop  offset="0.3" style="stop-color:#F47E1E"/>
	<stop  offset="0.61" style="stop-color:#F07116"/>
	<stop  offset="0.93" style="stop-color:#EB5D0A"/>
	<stop  offset="1" style="stop-color:#E95707"/>
</linearGradient>
<path class="st0" d="M49.3,27.6c0,0.7,0.6,1.2,1.3,1.2s1.2-0.6,1.2-1.3c0-0.1,0-0.2,0-0.2c0-1.5-0.4-3-1.1-4.4
	c-1-1.8-3.8-2.5-3.8-2.5v-3.7l1.4,1.6c0.4,0.4,1,0.4,1.4,0c0.1-0.1,0.2-0.3,0.3-0.5l0.4-3.6h1.3V16c0,0.2,0.2,0.3,0.3,0.3h0.9
	c0.2,0,0.3-0.2,0.3-0.3v-2h0.5c0.4,0,0.6-0.3,0.7-0.6c0-0.4-0.3-0.7-0.6-0.7l0,0h-0.6v-1.9c0-0.2-0.2-0.3-0.3-0.3H52
	c-0.2,0-0.3,0.2-0.3,0.3v1.8h-1.2c-0.1-0.5-0.6-0.9-1.2-0.8c-0.3,0.1-0.6,0.3-0.7,0.6v0.2h-1.7c-0.7,1.5-2.5,2.1-4,1.4
	c-0.6-0.3-1.1-0.8-1.4-1.4h-1.7v-0.2c-0.2-0.5-0.8-0.8-1.3-0.6c-0.3,0.1-0.5,0.4-0.6,0.7h-1.2v-1.8c0-0.2-0.2-0.3-0.3-0.3h-0.9
	c-0.2,0-0.3,0.2-0.3,0.3v1.8h-0.5c-0.4,0-0.6,0.3-0.7,0.6c0,0.4,0.3,0.7,0.6,0.7l0,0h0.6v1.8c0,0.2,0.2,0.3,0.3,0.3h0.9
	c0.2,0,0.3-0.2,0.3-0.3V14H38l0.4,3.6c0.1,0.5,0.6,0.9,1.2,0.8c0.2,0,0.4-0.1,0.5-0.3l1.3-1.5v3.7c0,0-2.8,0.7-3.8,2.5
	c-0.7,1.4-1.1,2.9-1.1,4.4c-0.2,0.7,0.2,1.3,0.9,1.5s1.3-0.2,1.5-0.9c0-0.1,0-0.2,0-0.2l0.2-1.9c0.2-2.5,3.2-3.2,3.5-3.3h2.8
	c0,0,3.2,0.7,3.5,3.3L49.3,27.6z M48.3,14l-0.1,1.2l-1-1.2H48.3z M40,15.2L39.9,14h1.2L40,15.2z"/>
<linearGradient id="SVGID_2_" gradientUnits="userSpaceOnUse" x1="550.967" y1="592.4086" x2="520.1337" y2="615.8253" gradientTransform="matrix(1 0 0 1 0 -965.7603)">
	<stop  offset="0" style="stop-color:#F58220"/>
	<stop  offset="0.3" style="stop-color:#F47E1E"/>
	<stop  offset="0.61" style="stop-color:#F07116"/>
	<stop  offset="0.93" style="stop-color:#EB5D0A"/>
	<stop  offset="1" style="stop-color:#E95707"/>
</linearGradient>
<circle class="st1" cx="44.2" cy="11.5" r="2.2"/>
<g>
	
		<linearGradient id="SVGID_3_" gradientUnits="userSpaceOnUse" x1="563.5587" y1="608.9884" x2="532.7253" y2="632.4051" gradientTransform="matrix(1 0 0 1 0 -965.7603)">
		<stop  offset="0" style="stop-color:#F58220"/>
		<stop  offset="0.3" style="stop-color:#F47E1E"/>
		<stop  offset="0.61" style="stop-color:#F07116"/>
		<stop  offset="0.93" style="stop-color:#EB5D0A"/>
		<stop  offset="1" style="stop-color:#E95707"/>
	</linearGradient>
	<path class="st2" d="M30.3,46.8l1.2,0.3l-16,3c-0.2-0.3-0.5-0.4-0.8-0.3c-0.1,0-0.3,0.1-0.3,0.3c0.1,0,0.3,0,0.4,0
		c0.2,0,0.3,0.1,0.4,0.3c0.2,0.4,0.1,0.9-0.2,1.1l0,0l0,0h-0.1c0.1,0.1,0.3,0.1,0.4,0c0.4-0.2,0.6-0.7,0.4-1.1l16.1-3.1v2.3
		c-1.7-1.5-4.3-1.4-5.8,0.4c-1.1,1.2-1.3,3-0.6,4.5l-0.7,0.9H10.2c0,0-1.1-0.2-1.2,0.6s1,0.7,1,0.7h1.3V58c0,0.2,0.2,0.4,0.4,0.4
		l0,0h0.7c0.2,0,0.4-0.2,0.4-0.4l0,0v-1.2L27.5,57c0,0,0.8,0,1.5,0h0.1v1.1c0,0.2,0.2,0.4,0.4,0.4l0,0h0.7c0.2,0,0.4-0.2,0.4-0.4
		l0,0v-1.3v-0.1c1.4-0.5,2.4-1.7,2.6-3.2c0-0.1,0.1-0.1,0.1-0.2V53c0-0.1,0-0.2,0-0.2v-0.2v-5.1l1.2,0.3c0.2,0.1,0.4-0.1,0.5-0.3
		l0.2-0.7c0.1-0.2-0.1-0.4-0.3-0.5l-4.2-1c-0.2-0.1-0.4,0.1-0.5,0.3L30,46.3C30,46.5,30.1,46.7,30.3,46.8z M31.3,54.8
		c-0.5,0.6-1.2,0.9-2,0.9h-0.2c-1.6,0-2.9-1.3-2.9-2.9c0-1.6,1.3-2.9,2.9-2.9s2.9,1.3,2.9,2.9C32,53.5,31.8,54.2,31.3,54.8
		L31.3,54.8z"/>
	
		<linearGradient id="SVGID_4_" gradientUnits="userSpaceOnUse" x1="557.4036" y1="600.8839" x2="526.5703" y2="624.3006" gradientTransform="matrix(1 0 0 1 0 -965.7603)">
		<stop  offset="0" style="stop-color:#F58220"/>
		<stop  offset="0.3" style="stop-color:#F47E1E"/>
		<stop  offset="0.61" style="stop-color:#F07116"/>
		<stop  offset="0.93" style="stop-color:#EB5D0A"/>
		<stop  offset="1" style="stop-color:#E95707"/>
	</linearGradient>
	<path class="st3" d="M11.5,47.6c-1,0.1-1.3,1.4-1.1,2.7v0.2c0.1-0.3,0.2-0.6,0.3-0.8v-0.1c0.4-1.1,0.9-1.2,1.2-1
		c0.2,0,0.4,0.2,0.5,0.4c0.1,0.3,0,0.7-0.2,1c-0.2,0.4-0.3,0.8-0.4,1.2c0.5-0.1,1-0.3,1.5-0.6l0.1-0.1l0.2-0.1l-0.4-1.1
		C13,48.3,12.5,47.5,11.5,47.6z"/>
	
		<linearGradient id="SVGID_5_" gradientUnits="userSpaceOnUse" x1="561.6605" y1="606.4891" x2="530.8272" y2="629.9058" gradientTransform="matrix(1 0 0 1 0 -965.7603)">
		<stop  offset="0" style="stop-color:#F58220"/>
		<stop  offset="0.3" style="stop-color:#F47E1E"/>
		<stop  offset="0.61" style="stop-color:#F07116"/>
		<stop  offset="0.93" style="stop-color:#EB5D0A"/>
		<stop  offset="1" style="stop-color:#E95707"/>
	</linearGradient>
	<path class="st4" d="M11.8,52.7c-0.2,0-0.5,0-0.7-0.1c0.2,0.7,0.5,1.3,0.9,1.9c0.7,1.2,2.3,0.7,2.6,0.5s3.9-1.5,6.9-0.7
		c0.7,0.3,1.4,0.6,2,0.9c0.6,0.1,1.2-0.3,1.4-0.9c0.2-0.4-0.2-1.6-3.7-2.2c-2.2-0.4-4.5-0.2-6.6,0.6l-0.3-0.8l-0.5,0.3
		C13.1,52.4,12.5,52.6,11.8,52.7z"/>
	
		<linearGradient id="SVGID_6_" gradientUnits="userSpaceOnUse" x1="555.1273" y1="597.8867" x2="524.294" y2="621.3033" gradientTransform="matrix(1 0 0 1 -3.128489e-03 -965.7578)">
		<stop  offset="0" style="stop-color:#F58220"/>
		<stop  offset="0.3" style="stop-color:#F47E1E"/>
		<stop  offset="0.61" style="stop-color:#F07116"/>
		<stop  offset="0.93" style="stop-color:#EB5D0A"/>
		<stop  offset="1" style="stop-color:#E95707"/>
	</linearGradient>
	<circle class="st5" cx="11.2" cy="45.2" r="2"/>
	
		<linearGradient id="SVGID_7_" gradientUnits="userSpaceOnUse" x1="565.3338" y1="611.3258" x2="534.5005" y2="634.7425" gradientTransform="matrix(1 0 0 1 0 -965.7603)">
		<stop  offset="0" style="stop-color:#F58220"/>
		<stop  offset="0.3" style="stop-color:#F47E1E"/>
		<stop  offset="0.61" style="stop-color:#F07116"/>
		<stop  offset="0.93" style="stop-color:#EB5D0A"/>
		<stop  offset="1" style="stop-color:#E95707"/>
	</linearGradient>
	<path class="st6" d="M29.2,50.1L29.2,50.1c-1.6,0-2.7,1.2-2.7,2.7s1.2,2.6,2.7,2.6s2.6-1.2,2.6-2.7C31.7,51.3,30.6,50.1,29.2,50.1z
		 M29.2,54.4c-0.9,0-1.6-0.6-1.7-1.5c0-0.9,0.6-1.6,1.5-1.7c0.9,0,1.6,0.6,1.7,1.5l0,0C30.8,53.6,30.1,54.3,29.2,54.4L29.2,54.4
		L29.2,54.4z"/>
	
		<linearGradient id="SVGID_8_" gradientUnits="userSpaceOnUse" x1="558.131" y1="601.8417" x2="527.2977" y2="625.2584" gradientTransform="matrix(1 0 0 1 0 -965.7603)">
		<stop  offset="0" style="stop-color:#F58220"/>
		<stop  offset="0.3" style="stop-color:#F47E1E"/>
		<stop  offset="0.61" style="stop-color:#F07116"/>
		<stop  offset="0.93" style="stop-color:#EB5D0A"/>
		<stop  offset="1" style="stop-color:#E95707"/>
	</linearGradient>
	<path class="st7" d="M15.2,50.3c-0.4-0.6-1.4,0.1-1.8,0.3s-1.5,0.8-1.6,0.5c0.1-0.5,0.2-0.9,0.4-1.3c0.4-0.8,0.2-1.1-0.3-1.3
		s-0.9,0.4-1.1,1s-0.9,2.1,0,2.8s2.8-0.3,2.8-0.3l1.3-0.7C15.3,51.2,15.4,50.7,15.2,50.3L15.2,50.3z"/>
</g>
<linearGradient id="SVGID_9_" gradientUnits="userSpaceOnUse" x1="92.6338" y1="-11.0906" x2="61.8004" y2="12.3261">
	<stop  offset="0" style="stop-color:#F58220"/>
	<stop  offset="0.3" style="stop-color:#F47E1E"/>
	<stop  offset="0.61" style="stop-color:#F07116"/>
	<stop  offset="0.93" style="stop-color:#EB5D0A"/>
	<stop  offset="1" style="stop-color:#E95707"/>
</linearGradient>
<path class="st8" d="M12.2,49.8c-0.2,0.4-0.3,0.8-0.4,1.3c0,0,0,0,0,0c0.1-0.4,0.2-0.7,0.4-1.1c0.2-0.3,0.3-0.7,0.2-1c0,0,0,0,0,0
	C12.4,49.2,12.4,49.4,12.2,49.8z"/>
<g>
	
		<linearGradient id="SVGID_10_" gradientUnits="userSpaceOnUse" x1="580.5444" y1="631.354" x2="549.7111" y2="654.7707" gradientTransform="matrix(1 0 0 1 0 -965.7603)">
		<stop  offset="0" style="stop-color:#F58220"/>
		<stop  offset="0.3" style="stop-color:#F47E1E"/>
		<stop  offset="0.61" style="stop-color:#F07116"/>
		<stop  offset="0.93" style="stop-color:#EB5D0A"/>
		<stop  offset="1" style="stop-color:#E95707"/>
	</linearGradient>
	<path class="st9" d="M73.4,54.6L66.1,55c0,0-6.5,0.4-7.9,0.4s-2.2,0.6-2,1.8s1.9,1.1,1.9,1.1s14.9,0,15.4,0
		C72.6,57.3,72.6,55.8,73.4,54.6z"/>
	
		<linearGradient id="SVGID_11_" gradientUnits="userSpaceOnUse" x1="582.1392" y1="633.4539" x2="551.3058" y2="656.8705" gradientTransform="matrix(1 0 0 1 0 -965.7603)">
		<stop  offset="0" style="stop-color:#F58220"/>
		<stop  offset="0.3" style="stop-color:#F47E1E"/>
		<stop  offset="0.61" style="stop-color:#F07116"/>
		<stop  offset="0.93" style="stop-color:#EB5D0A"/>
		<stop  offset="1" style="stop-color:#E95707"/>
	</linearGradient>
	<path class="st10" d="M79.9,41.7l-3,3c-0.3,0.3-0.9,0.7-0.6,1c0.2,0.2,0.5,0.3,0.7,0.1l1-1l-1.9,9.3h-0.2c-1.3,0-2.4,1-2.4,2.4
		c0,1.3,1,2.4,2.4,2.4s2.4-1,2.4-2.4c0-0.9-0.5-1.7-1.3-2.1c0.4-1.9,2.2-10.3,2.3-10.7s1.8-1.8,1.4-2.1
		C80.4,41.4,80.1,41.5,79.9,41.7z M77.5,56.5c0,0.9-0.7,1.6-1.6,1.6s-1.6-0.7-1.6-1.6c0-0.9,0.7-1.6,1.6-1.6S77.5,55.7,77.5,56.5
		L77.5,56.5z"/>
	
		<linearGradient id="SVGID_12_" gradientUnits="userSpaceOnUse" x1="584.2371" y1="636.2162" x2="553.4037" y2="659.6329" gradientTransform="matrix(1 0 0 1 0 -965.7603)">
		<stop  offset="0" style="stop-color:#F58220"/>
		<stop  offset="0.3" style="stop-color:#F47E1E"/>
		<stop  offset="0.61" style="stop-color:#F07116"/>
		<stop  offset="0.93" style="stop-color:#EB5D0A"/>
		<stop  offset="1" style="stop-color:#E95707"/>
	</linearGradient>
	<path class="st11" d="M74.4,56.5c0,0.8,0.7,1.5,1.5,1.5s1.5-0.7,1.5-1.5S76.7,55,75.9,55l0,0C75.1,55,74.4,55.7,74.4,56.5z
		 M76.7,56.5c0,0.5-0.4,0.8-0.8,0.8s-0.8-0.4-0.8-0.8s0.4-0.8,0.8-0.8l0,0C76.4,55.7,76.7,56.1,76.7,56.5z"/>
	
		<linearGradient id="SVGID_13_" gradientUnits="userSpaceOnUse" x1="572.7758" y1="621.1249" x2="541.9425" y2="644.5416" gradientTransform="matrix(1 0 0 1 8.408215e-04 -965.765)">
		<stop  offset="0" style="stop-color:#F58220"/>
		<stop  offset="0.3" style="stop-color:#F47E1E"/>
		<stop  offset="0.61" style="stop-color:#F07116"/>
		<stop  offset="0.93" style="stop-color:#EB5D0A"/>
		<stop  offset="1" style="stop-color:#E95707"/>
	</linearGradient>
	<circle class="st12" cx="68" cy="38.7" r="2.1"/>
	
		<linearGradient id="SVGID_14_" gradientUnits="userSpaceOnUse" x1="577.1038" y1="626.8237" x2="546.2704" y2="650.2403" gradientTransform="matrix(1 0 0 1 0 -965.7603)">
		<stop  offset="0" style="stop-color:#F58220"/>
		<stop  offset="0.3" style="stop-color:#F47E1E"/>
		<stop  offset="0.61" style="stop-color:#F07116"/>
		<stop  offset="0.93" style="stop-color:#EB5D0A"/>
		<stop  offset="1" style="stop-color:#E95707"/>
	</linearGradient>
	<path class="st13" d="M64.2,52.3c1.8-0.4,3-2.5,3.4-3.2c1.7,0.4,1.4,1.8,1,2.7s-0.8,1.8,0.1,2.1s1.4-0.8,1.4-0.8s1.5-2.2,0.5-4
		c-0.5-0.8-1.2-1.4-2.1-1.7c0-0.1,0-0.3,0-0.4c-0.1-0.7-0.2-1.7-0.2-1.7c0.7,0,1.4-0.1,2-0.4c0.8-0.4,1.2-0.9,0.9-1.3
		s-0.8-0.3-1.2,0.1c-0.4,0.4-1,0.5-1.6,0.3c0.3-2.1-0.4-2.4-0.4-2.4c-0.6-0.4-1.5-0.3-1.9,0.4c0,0,0,0,0,0.1c1-0.1,1.5,0,1.7,0.5
		c0.1,0.2,0.1,0.3,0,0.5c-0.2,0.3-0.7,0.4-1.3,0.4L66,43.6l-0.5,0.1c0,0.2-0.1,0.4-0.1,0.6l0.3,0.2c0.4,0.3,0.9,0.5,1,1
		c0.2,0.3,0.1,0.8-0.2,1c-0.1,0.1-0.2,0.1-0.3,0.1c-0.3,0-0.5-0.1-0.7-0.3L65.4,46c0,0.4,0.1,0.7,0.1,1.1c0,0.4,0.1,0.8,0.2,1.2
		c-0.6,0.8-0.8,1.6-1.6,2.1c-1.2,0.3-2.4,0.5-3.6,0.6c-1.4,0.1-1.4,0.7-1.2,1.2C59.7,53.2,62.1,52.8,64.2,52.3z"/>
	
		<linearGradient id="SVGID_15_" gradientUnits="userSpaceOnUse" x1="574.4875" y1="623.3788" x2="543.6542" y2="646.7955" gradientTransform="matrix(1 0 0 1 0 -965.7603)">
		<stop  offset="0" style="stop-color:#F58220"/>
		<stop  offset="0.3" style="stop-color:#F47E1E"/>
		<stop  offset="0.61" style="stop-color:#F07116"/>
		<stop  offset="0.93" style="stop-color:#EB5D0A"/>
		<stop  offset="1" style="stop-color:#E95707"/>
	</linearGradient>
	<path class="st14" d="M65.5,45.9c0.8,0.7,1.3,0.1,1.1-0.6s-1.5-1-1.7-1.5s0.6-0.4,1.5-0.5s1.4-0.2,1.2-0.8s-1-0.6-2.5-0.3
		c-1.5,0.3-2.2,1.3-1.3,2.2C64.4,45,64.9,45.5,65.5,45.9z"/>
</g>
<g>
	<linearGradient id="SVGID_16_" gradientUnits="userSpaceOnUse" x1="113.9917" y1="17.032" x2="83.1584" y2="40.4486">
		<stop  offset="0" style="stop-color:#F58220"/>
		<stop  offset="0.3" style="stop-color:#F47E1E"/>
		<stop  offset="0.61" style="stop-color:#F07116"/>
		<stop  offset="0.93" style="stop-color:#EB5D0A"/>
		<stop  offset="1" style="stop-color:#E95707"/>
	</linearGradient>
	<path class="st15" d="M65.2,53.6c0.3,0,0.6,0,0.8,0l0.7,0c0-0.3,0-0.6,0-0.8C66.3,53,65.8,53.3,65.2,53.6z"/>
	<linearGradient id="SVGID_17_" gradientUnits="userSpaceOnUse" x1="101.2773" y1="0.2905" x2="70.444" y2="23.7072">
		<stop  offset="0" style="stop-color:#F58220"/>
		<stop  offset="0.3" style="stop-color:#F47E1E"/>
		<stop  offset="0.61" style="stop-color:#F07116"/>
		<stop  offset="0.93" style="stop-color:#EB5D0A"/>
		<stop  offset="1" style="stop-color:#E95707"/>
	</linearGradient>
	<path class="st16" d="M88.5,48.7c0-7.7-4.1-14.8-10.8-18.6c-3.2-1.9-6.9-2.9-10.6-2.9l0,0c0,0,0,0,0,0c-0.9,0-1.8,0-2.6,0.2
		c3.4-11.3-3-23.1-14.3-26.5c-3.7-1.1-7.5-1.2-11-0.3c0,0,0,0,0,0c-1.6,0.4-3.2,1-4.7,1.7c0,0-0.1,0-0.1,0c-0.5,0.2-1,0.5-1.4,0.8
		c0,0,0,0,0,0c-0.5,0.3-0.9,0.6-1.4,0.9c0,0,0,0,0,0c-0.4,0.3-0.8,0.6-1.2,1c-0.1,0-0.1,0.1-0.2,0.1c-0.4,0.3-0.8,0.7-1.1,1.1
		c0,0,0,0,0,0c-0.4,0.4-0.7,0.7-1,1.1c0,0-0.1,0.1-0.1,0.1c-0.3,0.4-0.6,0.8-0.9,1.2c-0.1,0.1-0.1,0.2-0.2,0.2
		c-0.3,0.4-0.6,0.9-0.9,1.3c0,0,0,0,0,0.1c-0.3,0.4-0.5,0.9-0.7,1.3c0,0.1-0.1,0.2-0.1,0.3c-0.2,0.5-0.4,0.9-0.6,1.4
		c0,0.1-0.1,0.2-0.1,0.3c-0.2,0.5-0.4,1-0.5,1.5c-0.1,0.5-0.3,1-0.4,1.4c0,0.2-0.1,0.4-0.1,0.6c-0.1,0.3-0.1,0.6-0.2,0.9
		c0,0.2-0.1,0.5-0.1,0.7c0,0.2-0.1,0.5-0.1,0.7c0,0.3,0,0.6-0.1,0.8c0,0.2,0,0.4,0,0.6c0,0.3,0,0.6,0,0.9c0,0.1,0,0.3,0,0.4
		c0,0.3,0,0.7,0.1,1c0,0.1,0,0.2,0,0.3c0,0.4,0.1,0.7,0.2,1.1c0,0.1,0,0.1,0,0.2c0.1,0.8,0.3,1.6,0.6,2.4c-1-0.1-2-0.2-2.9-0.1l0,0
		h0c-0.6,0-1.3,0.1-1.9,0.1c0,0,0,0,0,0c-0.6,0.1-1.3,0.2-1.9,0.3c0,0,0,0,0,0c-2.5,0.5-4.8,1.5-6.9,2.8c0,0,0,0-0.1,0
		c-0.5,0.3-1,0.6-1.5,1c0,0-0.1,0.1-0.1,0.1c-0.5,0.3-0.9,0.7-1.3,1.1c0,0-0.1,0.1-0.1,0.1C6.5,33.2,6,33.6,5.6,34c0,0,0,0-0.1,0.1
		C4.8,35,4,35.9,3.4,36.9c0,0,0,0.1-0.1,0.1c-0.3,0.5-0.6,1-0.9,1.5c0,0.1-0.1,0.1-0.1,0.2c-0.3,0.5-0.5,1-0.7,1.5
		c0,0.1-0.1,0.2-0.1,0.3c-0.2,0.5-0.4,1-0.6,1.6c0,0.1-0.1,0.2-0.1,0.3c-0.2,0.6-0.3,1.1-0.4,1.7c0,0.1,0,0.1,0,0.2
		c-0.1,0.6-0.2,1.2-0.3,1.8c0,0,0,0,0,0c-1.3,11.6,7,22.3,18.6,23.7c0.3,0,0.7,0.1,1,0.1c0,0,0.1,0,0.1,0c0.5,0,1,0.1,1.5,0
		c11.8,0,21.3-9.6,21.3-21.3c0-2-0.3-4.1-0.9-6c0.9,0.1,1.7,0.2,2.5,0.2c0,0,0,0,0,0l0,0c0.8,0,1.6-0.1,2.5-0.1
		c-0.1,0.2-0.1,0.4-0.2,0.6l0,0c0,0,0,0,0,0c-0.6,2.1-0.8,4.2-0.7,6.2c0,0,0,0,0,0c0,0.7,0.1,1.4,0.2,2c0,0,0,0,0,0
		c0.1,0.7,0.2,1.3,0.4,2c0,0,0,0,0,0c0.1,0.6,0.3,1.3,0.5,1.9c0,0,0,0,0,0c0.2,0.6,0.4,1.2,0.7,1.8c0,0,0,0,0,0.1
		c0.3,0.6,0.5,1.2,0.9,1.7c0,0,0,0,0,0.1c0.3,0.6,0.6,1.1,1,1.6c0,0,0,0.1,0.1,0.1c0.4,0.5,0.7,1,1.2,1.5c0,0,0,0.1,0.1,0.1
		c0.4,0.5,0.8,1,1.3,1.4c0,0,0.1,0.1,0.1,0.1c0.5,0.4,0.9,0.9,1.4,1.3c0,0,0.1,0,0.1,0.1c0.5,0.4,1,0.8,1.6,1.2c0,0,0.1,0,0.1,0.1
		c0.5,0.4,1.1,0.7,1.7,1c0,0,0,0,0.1,0c0.6,0.3,1.2,0.6,1.8,0.9c0,0,0,0,0,0c0.6,0.3,1.3,0.5,2,0.7c2,0.6,4,0.9,6.1,0.9c0,0,0,0,0,0
		l0,0C78.9,69.9,88.4,60.4,88.5,48.7z M30.5,64.6c-2.8,1.6-6,2.5-9.2,2.5c-0.2,0-0.4,0-0.5,0v-8.7l-6.5-0.1c-0.2,0.9-1,1.6-1.9,1.6
		h-0.7c-1,0-1.8-0.8-1.9-1.7c-0.8,0-1.4-0.3-1.8-0.8c-0.4-0.4-0.6-1-0.5-1.6c0.1-1.2,1.1-1.9,2.4-1.9c0,0,0,0,0.1,0
		c-0.1-0.1-0.1-0.3-0.2-0.5c-1-0.8-1-2-0.9-2.9l0,0c0,0,0,0,0,0l0,0v-0.1c0,0,0,0,0-0.1l-0.2-0.6l0.1,0.1c0-0.7,0.1-1.3,0.2-1.8
		c-0.9-0.6-1.4-1.6-1.4-2.8c0-1.9,1.6-3.5,3.5-3.5s3.5,1.6,3.5,3.5c0,0.8-0.3,1.5-0.7,2.1c0.2,0.3,0.4,0.6,0.5,1
		c0.1,0,0.3-0.1,0.4-0.1c0.3,0,0.7,0.1,1,0.2l4.9-0.9V30.1c1.4,0,2.8,0.1,4.1,0.4c2.7,5.6,7.6,9.8,13.6,11.5
		C41.8,50.4,38.4,60.1,30.5,64.6z M44.3,39.9v-16h-1.4c-1,0.3-2.1,0.9-2.2,1.9l-0.2,1.9V28l-0.1,0.2c-0.3,1.2-1.4,2-2.6,2
		c-0.3,0-0.5,0-0.8-0.1c-1.4-0.4-2.3-1.7-2-3.1c0-1.6,0.5-3.3,1.3-4.9c0.6-1.1,1.5-1.8,2.4-2.3c-0.9-0.3-1.6-1-1.8-1.9l0-0.1l0-0.4
		c-0.1,0-0.3,0.1-0.5,0.1h-0.9c-0.9,0-1.8-0.7-1.8-1.8v-0.5c-0.7-0.4-1.2-1.1-1.2-2v-0.2l0.1-0.2c0.2-0.6,0.6-1.1,1.1-1.4v-0.5
		c0-0.9,0.7-1.8,1.8-1.8h0.9c0.8,0,1.6,0.6,1.8,1.4c0.2-0.1,0.4-0.1,0.7-0.1c0.7,0,1.3,0.3,1.7,0.7c0.3-1.8,1.8-3.1,3.6-3.1
		c0,0,0,0,0,0v-5c7.4,0,14.4,4.5,17.3,11.7c1.7,4.3,1.7,9.1,0,13.5c-5.4,1.5-10,5-12.8,9.9c-0.3,0.5-0.6,1-0.8,1.6
		C46.6,39.8,45.4,39.9,44.3,39.9z M67.2,67.2v-7.4l-9.1,0c-1.8,0-3-0.9-3.3-2.4c-0.2-1.2,0.2-2,0.6-2.4c0.4-0.5,1.3-1.1,2.9-1.1
		c0.2,0,0.4,0,0.7,0c-0.5-0.3-0.9-0.7-1-1.1c-0.4-1-0.2-1.7,0.1-2.1c0.7-1,1.9-1.1,2.4-1.2c1-0.1,2-0.2,3.1-0.5
		c0.1-0.1,0.3-0.3,0.4-0.7c0.1-0.1,0.1-0.2,0.2-0.3c-0.1-0.3-0.1-0.6-0.1-0.9c0-0.1,0-0.2,0-0.3c0-0.1,0-0.1,0-0.2
		c-0.4-0.3-0.8-0.7-1.2-1.1c-0.7-0.7-1-1.7-0.7-2.6c0.3-1.1,1.3-1.9,2.8-2.2c0.1,0,0.1,0,0.2,0c-0.4-0.6-0.6-1.3-0.6-2
		c0-1.7,1.2-3.1,2.7-3.5v-5c8.6,0,16.4,6,18.2,14.8c0.9,4.3,0.1,8.9-2.1,12.9C79.9,63.6,73.7,67.2,67.2,67.2z"/>
</g>
</svg>
